<?xml version="1.0" encoding="UTF-8" standalone="no"?>
<svg
   xmlns:dc="http://purl.org/dc/elements/1.1/"
   xmlns:cc="http://creativecommons.org/ns#"
   xmlns:rdf="http://www.w3.org/1999/02/22-rdf-syntax-ns#"
   xmlns:svg="http://www.w3.org/2000/svg"
   xmlns="http://www.w3.org/2000/svg"
   xmlns:sodipodi="http://sodipodi.sourceforge.net/DTD/sodipodi-0.dtd"
   xmlns:inkscape="http://www.inkscape.org/namespaces/inkscape"
   sodipodi:docname="Generic 57mm 3x3.svg"
   inkscape:version="1.0beta2 (2b71d25, 2019-12-03)"
   id="svg5503"
   version="1.1"
   viewBox="0 0 49.975006 49.975005"
   height="1.9675198in"
   width="1.9675199in">
  <defs
     id="defs5497">
    <inkscape:perspective
       id="perspective6068"
       inkscape:persp3d-origin="105.00001 : -148.025 : 1"
       inkscape:vp_z="210 : -98.525001 : 1"
       inkscape:vp_y="0 : 1000 : 0"
       inkscape:vp_x="0 : -98.525001 : 1"
       sodipodi:type="inkscape:persp3d" />
  </defs>
  <sodipodi:namedview
     inkscape:bbox-nodes="true"
     inkscape:snap-bbox="true"
     inkscape:window-maximized="0"
     inkscape:window-y="23"
     inkscape:window-x="0"
     inkscape:window-height="775"
     inkscape:window-width="1440"
     fit-margin-bottom="0"
     fit-margin-right="0"
     fit-margin-left="0"
     fit-margin-top="0"
     showgrid="false"
     inkscape:document-rotation="0"
     inkscape:current-layer="layer1"
     inkscape:document-units="mm"
     inkscape:cy="83.774189"
     inkscape:cx="9.8374869"
     inkscape:zoom="1.979899"
     inkscape:pageshadow="2"
     inkscape:pageopacity="0.0"
     borderopacity="1.0"
     bordercolor="#666666"
     pagecolor="#ffffff"
     id="base"
     units="in" />
  <metadata
     id="metadata5500">
    <rdf:RDF>
      <cc:Work
         rdf:about="">
        <dc:format>image/svg+xml</dc:format>
        <dc:type
           rdf:resource="http://purl.org/dc/dcmitype/StillImage" />
        <dc:title></dc:title>
      </cc:Work>
    </rdf:RDF>
  </metadata>
  <g
     transform="translate(-16.894794,-31.813581)"
     id="layer1"
     inkscape:groupmode="layer"
     inkscape:label="Layer 1">
    <path
       transform="matrix(0.26458333,0,0,0.26458333,16.894794,31.813581)"
       d="M 7.0703125 0 C 3.1529418 1.4210855e-14 0 3.1529418 0 7.0703125 L 0 51.888672 C 0 55.806043 3.1529418 58.960938 7.0703125 58.960938 L 51.888672 58.960938 C 55.806043 58.960938 58.960938 55.806043 58.960938 51.888672 L 58.960938 7.0703125 C 58.960938 3.1529418 55.806043 0 51.888672 0 L 7.0703125 0 z M 72.03125 0 C 68.113879 1.4210855e-14 64.960938 3.1529418 64.960938 7.0703125 L 64.960938 51.888672 C 64.960938 55.806043 68.113879 58.960938 72.03125 58.960938 L 116.84961 58.960938 C 120.76698 58.960938 123.92188 55.806043 123.92188 51.888672 L 123.92188 7.0703125 C 123.92188 3.1529418 120.76698 0 116.84961 0 L 72.03125 0 z M 136.99219 0 C 133.07482 1.4210855e-14 129.92188 3.1529418 129.92188 7.0703125 L 129.92188 51.888672 C 129.92188 55.806043 133.07482 58.960938 136.99219 58.960938 L 181.81055 58.960938 C 185.72792 58.960938 188.88281 55.806043 188.88281 51.888672 L 188.88281 7.0703125 C 188.88281 3.1529418 185.72792 0 181.81055 0 L 136.99219 0 z M 7.0703125 64.960938 C 3.1529418 64.960938 0 68.113879 0 72.03125 L 0 116.84961 C 0 120.76698 3.1529418 123.92188 7.0703125 123.92188 L 51.888672 123.92188 C 55.806043 123.92187 58.960938 120.76698 58.960938 116.84961 L 58.960938 72.03125 C 58.960938 68.113879 55.806043 64.960938 51.888672 64.960938 L 7.0703125 64.960938 z M 72.03125 64.960938 C 68.113879 64.960938 64.960938 68.113879 64.960938 72.03125 L 64.960938 116.84961 C 64.960938 120.76698 68.113879 123.92188 72.03125 123.92188 L 116.84961 123.92188 C 120.76698 123.92187 123.92188 120.76698 123.92188 116.84961 L 123.92188 72.03125 C 123.92188 68.113879 120.76698 64.960938 116.84961 64.960938 L 72.03125 64.960938 z M 136.99219 64.960938 C 133.07482 64.960938 129.92188 68.113879 129.92188 72.03125 L 129.92188 116.84961 C 129.92188 120.76698 133.07482 123.92188 136.99219 123.92188 L 181.81055 123.92188 C 185.72792 123.92187 188.88281 120.76698 188.88281 116.84961 L 188.88281 72.03125 C 188.88281 68.113879 185.72792 64.960938 181.81055 64.960938 L 136.99219 64.960938 z M 7.0703125 129.92188 C 3.1529418 129.92188 0 133.07482 0 136.99219 L 0 181.81055 C 0 185.72792 3.1529418 188.88281 7.0703125 188.88281 L 51.888672 188.88281 C 55.806043 188.88281 58.960938 185.72792 58.960938 181.81055 L 58.960938 136.99219 C 58.960938 133.07482 55.806043 129.92188 51.888672 129.92188 L 7.0703125 129.92188 z M 72.03125 129.92188 C 68.113879 129.92188 64.960938 133.07482 64.960938 136.99219 L 64.960938 181.81055 C 64.960938 185.72792 68.113879 188.88281 72.03125 188.88281 L 116.84961 188.88281 C 120.76698 188.88281 123.92188 185.72792 123.92188 181.81055 L 123.92188 136.99219 C 123.92188 133.07482 120.76698 129.92188 116.84961 129.92188 L 72.03125 129.92188 z M 136.99219 129.92188 C 133.07482 129.92188 129.92188 133.07482 129.92188 136.99219 L 129.92188 181.81055 C 129.92188 185.72792 133.07482 188.88281 136.99219 188.88281 L 181.81055 188.88281 C 185.72792 188.88281 188.88281 185.72792 188.88281 181.81055 L 188.88281 136.99219 C 188.88281 133.07482 185.72792 129.92188 181.81055 129.92188 L 136.99219 129.92188 z "
       style="fill:#000000;stroke-width:3.77953;stroke-dashoffset:43.2;paint-order:stroke fill markers"
       id="rect1768" />
  </g>
</svg>
