<?xml version="1.0" encoding="UTF-8" standalone="no"?>
<svg
   xmlns:dc="http://purl.org/dc/elements/1.1/"
   xmlns:cc="http://creativecommons.org/ns#"
   xmlns:rdf="http://www.w3.org/1999/02/22-rdf-syntax-ns#"
   xmlns:svg="http://www.w3.org/2000/svg"
   xmlns="http://www.w3.org/2000/svg"
   xmlns:sodipodi="http://sodipodi.sourceforge.net/DTD/sodipodi-0.dtd"
   xmlns:inkscape="http://www.inkscape.org/namespaces/inkscape"
   width="1.8966537in"
   height="1.8966537in"
   viewBox="0 0 48.175004 48.175004"
   version="1.1"
   id="svg5503"
   inkscape:version="1.0beta2 (2b71d25, 2019-12-03)"
   sodipodi:docname="MFJS 3x3.svg">
  <defs
     id="defs5497">
    <inkscape:perspective
       sodipodi:type="inkscape:persp3d"
       inkscape:vp_x="0 : -100.325 : 1"
       inkscape:vp_y="0 : 999.99999 : 0"
       inkscape:vp_z="210.00001 : -100.325 : 1"
       inkscape:persp3d-origin="105.00001 : -149.825 : 1"
       id="perspective6068" />
  </defs>
  <sodipodi:namedview
     units="in"
     id="base"
     pagecolor="#ffffff"
     bordercolor="#666666"
     borderopacity="1.0"
     inkscape:pageopacity="0.0"
     inkscape:pageshadow="2"
     inkscape:zoom="1.979899"
     inkscape:cx="-44.963283"
     inkscape:cy="27.710729"
     inkscape:document-units="mm"
     inkscape:current-layer="layer1"
     inkscape:document-rotation="0"
     showgrid="false"
     fit-margin-top="0"
     fit-margin-left="0"
     fit-margin-right="0"
     fit-margin-bottom="0"
     inkscape:window-width="1440"
     inkscape:window-height="775"
     inkscape:window-x="0"
     inkscape:window-y="23"
     inkscape:window-maximized="0"
     inkscape:snap-bbox="true"
     inkscape:bbox-nodes="true" />
  <metadata
     id="metadata5500">
    <rdf:RDF>
      <cc:Work
         rdf:about="">
        <dc:format>image/svg+xml</dc:format>
        <dc:type
           rdf:resource="http://purl.org/dc/dcmitype/StillImage" />
        <dc:title />
      </cc:Work>
    </rdf:RDF>
  </metadata>
  <g
     inkscape:label="Layer 1"
     inkscape:groupmode="layer"
     id="layer1"
     transform="translate(-16.894794,-32.214485)">
    <path
       id="rect6066"
       style="fill:#000000;fill-opacity:1;stroke:none;stroke-width:1.51698;stroke-dashoffset:43.2;paint-order:stroke fill markers"
       d="M 11.453125 0 C 5.1084019 0 0 5.1084056 0 11.453125 L 0 45.240234 C 0 51.584958 5.1084019 56.693359 11.453125 56.693359 L 45.240234 56.693359 C 51.584958 56.693359 56.693359 51.584958 56.693359 45.240234 L 56.693359 11.453125 C 56.693359 5.1084056 51.584958 0 45.240234 0 L 11.453125 0 z M 74.146484 0 C 67.801761 0 62.693359 5.1084056 62.693359 11.453125 L 62.693359 45.240234 C 62.693359 51.584958 67.801761 56.693359 74.146484 56.693359 L 107.93359 56.693359 C 114.27832 56.693359 119.38672 51.584958 119.38672 45.240234 L 119.38672 11.453125 C 119.38672 5.1084056 114.27832 0 107.93359 0 L 74.146484 0 z M 136.83984 0 C 130.49512 0 125.38672 5.1084056 125.38672 11.453125 L 125.38672 45.240234 C 125.38672 51.584958 130.49512 56.693359 136.83984 56.693359 L 170.625 56.693359 C 176.96972 56.693359 182.07812 51.584958 182.07812 45.240234 L 182.07812 11.453125 C 182.07812 5.1084056 176.96972 0 170.625 0 L 136.83984 0 z M 11.453125 62.693359 C 5.1084019 62.693359 0 67.801765 0 74.146484 L 0 107.93359 C 0 114.27832 5.1084019 119.38672 11.453125 119.38672 L 45.240234 119.38672 C 51.584958 119.38672 56.693359 114.27832 56.693359 107.93359 L 56.693359 74.146484 C 56.693359 67.801765 51.584958 62.693359 45.240234 62.693359 L 11.453125 62.693359 z M 74.146484 62.693359 C 67.801761 62.693359 62.693359 67.801765 62.693359 74.146484 L 62.693359 107.93359 C 62.693359 114.27832 67.801761 119.38672 74.146484 119.38672 L 107.93359 119.38672 C 114.27832 119.38672 119.38672 114.27832 119.38672 107.93359 L 119.38672 74.146484 C 119.38672 67.801765 114.27832 62.693359 107.93359 62.693359 L 74.146484 62.693359 z M 136.83984 62.693359 C 130.49512 62.693359 125.38672 67.801765 125.38672 74.146484 L 125.38672 107.93359 C 125.38672 114.27832 130.49512 119.38672 136.83984 119.38672 L 170.625 119.38672 C 176.96972 119.38672 182.07812 114.27832 182.07812 107.93359 L 182.07812 74.146484 C 182.07812 67.801765 176.96972 62.693359 170.625 62.693359 L 136.83984 62.693359 z M 11.453125 125.38672 C 5.1084019 125.38672 0 130.49512 0 136.83984 L 0 170.625 C 0 176.96972 5.1084019 182.07812 11.453125 182.07812 L 45.240234 182.07812 C 51.584958 182.07812 56.693359 176.96972 56.693359 170.625 L 56.693359 136.83984 C 56.693359 130.49512 51.584958 125.38672 45.240234 125.38672 L 11.453125 125.38672 z M 74.146484 125.38672 C 67.801761 125.38672 62.693359 130.49512 62.693359 136.83984 L 62.693359 170.625 C 62.693359 176.96972 67.801761 182.07812 74.146484 182.07812 L 107.93359 182.07812 C 114.27832 182.07812 119.38672 176.96972 119.38672 170.625 L 119.38672 136.83984 C 119.38672 130.49512 114.27832 125.38672 107.93359 125.38672 L 74.146484 125.38672 z M 136.83984 125.38672 C 130.49512 125.38672 125.38672 130.49512 125.38672 136.83984 L 125.38672 170.625 C 125.38672 176.96972 130.49512 182.07812 136.83984 182.07812 L 170.625 182.07812 C 176.96972 182.07812 182.07812 176.96972 182.07812 170.625 L 182.07812 136.83984 C 182.07812 130.49512 176.96972 125.38672 170.625 125.38672 L 136.83984 125.38672 z "
       transform="matrix(0.26458333,0,0,0.26458333,16.894794,32.214485)" />
  </g>
</svg>
