<?xml version="1.0" encoding="UTF-8" standalone="no"?>
<svg
   xmlns:dc="http://purl.org/dc/elements/1.1/"
   xmlns:cc="http://creativecommons.org/ns#"
   xmlns:rdf="http://www.w3.org/1999/02/22-rdf-syntax-ns#"
   xmlns:svg="http://www.w3.org/2000/svg"
   xmlns="http://www.w3.org/2000/svg"
   xmlns:sodipodi="http://sodipodi.sourceforge.net/DTD/sodipodi-0.dtd"
   xmlns:inkscape="http://www.inkscape.org/namespaces/inkscape"
   width="52.091679mm"
   height="52.091667mm"
   viewBox="0 0 52.091678 52.091667"
   version="1.1"
   id="svg8"
   inkscape:version="1.0beta2 (2b71d25, 2019-12-03)"
   sodipodi:docname="MFJS 6x6.svg">
  <defs
     id="defs2" />
  <sodipodi:namedview
     id="base"
     pagecolor="#ffffff"
     bordercolor="#666666"
     borderopacity="1.0"
     inkscape:pageopacity="0.0"
     inkscape:pageshadow="2"
     inkscape:zoom="2.2551136"
     inkscape:cx="89.686477"
     inkscape:cy="111.30996"
     inkscape:document-units="mm"
     inkscape:current-layer="layer1"
     inkscape:document-rotation="0"
     showgrid="false"
     inkscape:snap-bbox="true"
     fit-margin-top="0"
     fit-margin-left="0"
     fit-margin-right="0"
     fit-margin-bottom="0"
     inkscape:window-width="1440"
     inkscape:window-height="775"
     inkscape:window-x="0"
     inkscape:window-y="23"
     inkscape:window-maximized="0"
     showguides="false" />
  <metadata
     id="metadata5">
    <rdf:RDF>
      <cc:Work
         rdf:about="">
        <dc:format>image/svg+xml</dc:format>
        <dc:type
           rdf:resource="http://purl.org/dc/dcmitype/StillImage" />
        <dc:title></dc:title>
      </cc:Work>
    </rdf:RDF>
  </metadata>
  <g
     inkscape:label="Layer 1"
     inkscape:groupmode="layer"
     id="layer1"
     transform="translate(-23.111965,-23.046638)">
    <path
       transform="matrix(0.26458333,0,0,0.26458333,23.111965,23.046638)"
       d="M 5.6933594 0 C 2.5393209 0 0 2.5393172 0 5.6933594 L 0 32.101562 C 0 35.255605 2.5393209 37.794922 5.6933594 37.794922 L 32.101562 37.794922 C 35.255601 37.794922 37.794922 35.255605 37.794922 32.101562 L 37.794922 5.6933594 C 37.794922 2.5393172 35.255601 0 32.101562 0 L 5.6933594 0 z M 47.488281 0 C 44.334239 0 41.794922 2.5393172 41.794922 5.6933594 L 41.794922 32.101562 C 41.794922 35.255605 44.334239 37.794922 47.488281 37.794922 L 61.425781 37.794922 C 64.579823 37.794922 67.117188 35.255605 67.117188 32.101562 L 67.117188 5.6933594 C 67.117188 2.5393172 64.579823 0 61.425781 0 L 47.488281 0 z M 76.810547 0 C 73.656505 0 71.117188 2.5393172 71.117188 5.6933594 L 71.117188 32.101562 C 71.117188 35.255605 73.656505 37.794922 76.810547 37.794922 L 90.748047 37.794922 C 93.902089 37.794922 96.441406 35.255605 96.441406 32.101562 L 96.441406 5.6933594 C 96.441406 2.5393172 93.902089 0 90.748047 0 L 76.810547 0 z M 106.13477 0 C 102.98073 0 100.44141 2.5393172 100.44141 5.6933594 L 100.44141 32.101562 C 100.44141 35.255605 102.98073 37.794922 106.13477 37.794922 L 120.07031 37.794922 C 123.22435 37.794922 125.76367 35.255605 125.76367 32.101562 L 125.76367 5.6933594 C 125.76367 2.5393172 123.22435 0 120.07031 0 L 106.13477 0 z M 135.45703 0 C 132.30299 0 129.76367 2.5393172 129.76367 5.6933594 L 129.76367 32.101562 C 129.76367 35.255605 132.30299 37.794922 135.45703 37.794922 L 149.39258 37.794922 C 152.54662 37.794922 155.08594 35.255605 155.08594 32.101562 L 155.08594 5.6933594 C 155.08594 2.5393172 152.54662 0 149.39258 0 L 135.45703 0 z M 164.7793 0 C 161.62526 0 159.08594 2.5393172 159.08594 5.6933594 L 159.08594 32.101562 C 159.08594 35.255605 161.62526 37.794922 164.7793 37.794922 L 191.18945 37.794922 C 194.34349 37.794922 196.88281 35.255605 196.88281 32.101562 L 196.88281 5.6933594 C 196.88281 2.5393172 194.34349 0 191.18945 0 L 164.7793 0 z M 3.8144531 41.794922 C 1.7012437 41.794922 0 43.496169 0 45.609375 L 0 63.302734 C 0 65.41594 1.7012437 67.117188 3.8144531 67.117188 L 33.980469 67.117188 C 36.093674 67.117188 37.794922 65.41594 37.794922 63.302734 L 37.794922 45.609375 C 37.794922 43.496169 36.093674 41.794922 33.980469 41.794922 L 3.8144531 41.794922 z M 45.609375 41.794922 C 43.496169 41.794922 41.794922 43.496169 41.794922 45.609375 L 41.794922 63.302734 C 41.794922 65.41594 43.496169 67.117188 45.609375 67.117188 L 63.302734 67.117188 C 65.41594 67.117188 67.117188 65.41594 67.117188 63.302734 L 67.117188 45.609375 C 67.117188 43.496169 65.41594 41.794922 63.302734 41.794922 L 45.609375 41.794922 z M 74.931641 41.794922 C 72.818435 41.794922 71.117188 43.496169 71.117188 45.609375 L 71.117188 63.302734 C 71.117188 65.41594 72.818435 67.117188 74.931641 67.117188 L 92.626953 67.117188 C 94.740159 67.117188 96.441406 65.41594 96.441406 63.302734 L 96.441406 45.609375 C 96.441406 43.496169 94.740159 41.794922 92.626953 41.794922 L 74.931641 41.794922 z M 104.25586 41.794922 C 102.14265 41.794922 100.44141 43.496169 100.44141 45.609375 L 100.44141 63.302734 C 100.44141 65.41594 102.14265 67.117188 104.25586 67.117188 L 121.94922 67.117188 C 124.06242 67.117188 125.76367 65.41594 125.76367 63.302734 L 125.76367 45.609375 C 125.76367 43.496169 124.06242 41.794922 121.94922 41.794922 L 104.25586 41.794922 z M 133.57812 41.794922 C 131.46492 41.794922 129.76367 43.496169 129.76367 45.609375 L 129.76367 63.302734 C 129.76367 65.41594 131.46492 67.117188 133.57812 67.117188 L 151.27148 67.117188 C 153.38469 67.117188 155.08594 65.41594 155.08594 63.302734 L 155.08594 45.609375 C 155.08594 43.496169 153.38469 41.794922 151.27148 41.794922 L 133.57812 41.794922 z M 162.90039 41.794922 C 160.78718 41.794922 159.08594 43.496169 159.08594 45.609375 L 159.08594 63.302734 C 159.08594 65.41594 160.78718 67.117188 162.90039 67.117188 L 193.06836 67.117188 C 195.18157 67.117188 196.88281 65.41594 196.88281 63.302734 L 196.88281 45.609375 C 196.88281 43.496169 195.18157 41.794922 193.06836 41.794922 L 162.90039 41.794922 z M 3.8144531 71.117188 C 1.7012437 71.117188 0 72.818431 0 74.931641 L 0 92.626953 C 0 94.740159 1.7012437 96.441406 3.8144531 96.441406 L 33.980469 96.441406 C 36.093674 96.441406 37.794922 94.740159 37.794922 92.626953 L 37.794922 74.931641 C 37.794922 72.818431 36.093674 71.117188 33.980469 71.117188 L 3.8144531 71.117188 z M 45.609375 71.117188 C 43.496169 71.117188 41.794922 72.818431 41.794922 74.931641 L 41.794922 92.626953 C 41.794922 94.740159 43.496169 96.441406 45.609375 96.441406 L 63.302734 96.441406 C 65.41594 96.441406 67.117188 94.740159 67.117188 92.626953 L 67.117188 74.931641 C 67.117188 72.818431 65.41594 71.117188 63.302734 71.117188 L 45.609375 71.117188 z M 74.931641 71.117188 C 72.818435 71.117188 71.117188 72.818431 71.117188 74.931641 L 71.117188 92.626953 C 71.117188 94.740159 72.818435 96.441406 74.931641 96.441406 L 92.626953 96.441406 C 94.740159 96.441406 96.441406 94.740159 96.441406 92.626953 L 96.441406 74.931641 C 96.441406 72.818431 94.740159 71.117188 92.626953 71.117188 L 74.931641 71.117188 z M 104.25586 71.117188 C 102.14265 71.117188 100.44141 72.818431 100.44141 74.931641 L 100.44141 92.626953 C 100.44141 94.740159 102.14265 96.441406 104.25586 96.441406 L 121.94922 96.441406 C 124.06242 96.441406 125.76367 94.740159 125.76367 92.626953 L 125.76367 74.931641 C 125.76367 72.818431 124.06242 71.117188 121.94922 71.117188 L 104.25586 71.117188 z M 133.57812 71.117188 C 131.46492 71.117188 129.76367 72.818431 129.76367 74.931641 L 129.76367 92.626953 C 129.76367 94.740159 131.46492 96.441406 133.57812 96.441406 L 151.27148 96.441406 C 153.38469 96.441406 155.08594 94.740159 155.08594 92.626953 L 155.08594 74.931641 C 155.08594 72.818431 153.38469 71.117188 151.27148 71.117188 L 133.57812 71.117188 z M 162.90039 71.117188 C 160.78718 71.117188 159.08594 72.818431 159.08594 74.931641 L 159.08594 92.626953 C 159.08594 94.740159 160.78718 96.441406 162.90039 96.441406 L 193.06836 96.441406 C 195.18157 96.441406 196.88281 94.740159 196.88281 92.626953 L 196.88281 74.931641 C 196.88281 72.818431 195.18157 71.117188 193.06836 71.117188 L 162.90039 71.117188 z M 3.8144531 100.44141 C 1.7012437 100.44141 0 102.14265 0 104.25586 L 0 121.94922 C 0 124.06243 1.7012437 125.76367 3.8144531 125.76367 L 33.980469 125.76367 C 36.093674 125.76367 37.794922 124.06243 37.794922 121.94922 L 37.794922 104.25586 C 37.794922 102.14265 36.093674 100.44141 33.980469 100.44141 L 3.8144531 100.44141 z M 45.609375 100.44141 C 43.496169 100.44141 41.794922 102.14265 41.794922 104.25586 L 41.794922 121.94922 C 41.794922 124.06243 43.496169 125.76367 45.609375 125.76367 L 63.302734 125.76367 C 65.41594 125.76367 67.117188 124.06243 67.117188 121.94922 L 67.117188 104.25586 C 67.117188 102.14265 65.41594 100.44141 63.302734 100.44141 L 45.609375 100.44141 z M 74.931641 100.44141 C 72.818435 100.44141 71.117188 102.14265 71.117188 104.25586 L 71.117188 121.94922 C 71.117188 124.06243 72.818435 125.76367 74.931641 125.76367 L 92.626953 125.76367 C 94.740159 125.76367 96.441406 124.06243 96.441406 121.94922 L 96.441406 104.25586 C 96.441406 102.14265 94.740159 100.44141 92.626953 100.44141 L 74.931641 100.44141 z M 104.25586 100.44141 C 102.14265 100.44141 100.44141 102.14265 100.44141 104.25586 L 100.44141 121.94922 C 100.44141 124.06243 102.14265 125.76367 104.25586 125.76367 L 121.94922 125.76367 C 124.06242 125.76367 125.76367 124.06243 125.76367 121.94922 L 125.76367 104.25586 C 125.76367 102.14265 124.06242 100.44141 121.94922 100.44141 L 104.25586 100.44141 z M 133.57812 100.44141 C 131.46492 100.44141 129.76367 102.14265 129.76367 104.25586 L 129.76367 121.94922 C 129.76367 124.06243 131.46492 125.76367 133.57812 125.76367 L 151.27148 125.76367 C 153.38469 125.76367 155.08594 124.06243 155.08594 121.94922 L 155.08594 104.25586 C 155.08594 102.14265 153.38469 100.44141 151.27148 100.44141 L 133.57812 100.44141 z M 162.90039 100.44141 C 160.78718 100.44141 159.08594 102.14265 159.08594 104.25586 L 159.08594 121.94922 C 159.08594 124.06243 160.78718 125.76367 162.90039 125.76367 L 193.06836 125.76367 C 195.18157 125.76367 196.88281 124.06243 196.88281 121.94922 L 196.88281 104.25586 C 196.88281 102.14265 195.18157 100.44141 193.06836 100.44141 L 162.90039 100.44141 z M 3.8144531 129.76367 C 1.7012437 129.76367 0 131.46492 0 133.57812 L 0 151.27148 C 0 153.38469 1.7012437 155.08594 3.8144531 155.08594 L 33.980469 155.08594 C 36.093674 155.08594 37.794922 153.38469 37.794922 151.27148 L 37.794922 133.57812 C 37.794922 131.46492 36.093674 129.76367 33.980469 129.76367 L 3.8144531 129.76367 z M 45.609375 129.76367 C 43.496169 129.76367 41.794922 131.46492 41.794922 133.57812 L 41.794922 151.27148 C 41.794922 153.38469 43.496169 155.08594 45.609375 155.08594 L 63.302734 155.08594 C 65.41594 155.08594 67.117188 153.38469 67.117188 151.27148 L 67.117188 133.57812 C 67.117188 131.46492 65.41594 129.76367 63.302734 129.76367 L 45.609375 129.76367 z M 74.931641 129.76367 C 72.818435 129.76367 71.117188 131.46492 71.117188 133.57812 L 71.117188 151.27148 C 71.117188 153.38469 72.818435 155.08594 74.931641 155.08594 L 92.626953 155.08594 C 94.740159 155.08594 96.441406 153.38469 96.441406 151.27148 L 96.441406 133.57812 C 96.441406 131.46492 94.740159 129.76367 92.626953 129.76367 L 74.931641 129.76367 z M 104.25586 129.76367 C 102.14265 129.76367 100.44141 131.46492 100.44141 133.57812 L 100.44141 151.27148 C 100.44141 153.38469 102.14265 155.08594 104.25586 155.08594 L 121.94922 155.08594 C 124.06242 155.08594 125.76367 153.38469 125.76367 151.27148 L 125.76367 133.57812 C 125.76367 131.46492 124.06242 129.76367 121.94922 129.76367 L 104.25586 129.76367 z M 133.57812 129.76367 C 131.46492 129.76367 129.76367 131.46492 129.76367 133.57812 L 129.76367 151.27148 C 129.76367 153.38469 131.46492 155.08594 133.57812 155.08594 L 151.27148 155.08594 C 153.38469 155.08594 155.08594 153.38469 155.08594 151.27148 L 155.08594 133.57812 C 155.08594 131.46492 153.38469 129.76367 151.27148 129.76367 L 133.57812 129.76367 z M 162.90039 129.76367 C 160.78718 129.76367 159.08594 131.46492 159.08594 133.57812 L 159.08594 151.27148 C 159.08594 153.38469 160.78718 155.08594 162.90039 155.08594 L 193.06836 155.08594 C 195.18157 155.08594 196.88281 153.38469 196.88281 151.27148 L 196.88281 133.57812 C 196.88281 131.46492 195.18157 129.76367 193.06836 129.76367 L 162.90039 129.76367 z M 5.6933594 159.08594 C 2.5393209 159.08594 0 161.62525 0 164.7793 L 0 191.18945 C 0 194.3435 2.5393209 196.88281 5.6933594 196.88281 L 32.101562 196.88281 C 35.255601 196.88281 37.794922 194.3435 37.794922 191.18945 L 37.794922 164.7793 C 37.794922 161.62525 35.255601 159.08594 32.101562 159.08594 L 5.6933594 159.08594 z M 47.488281 159.08594 C 44.334239 159.08594 41.794922 161.62525 41.794922 164.7793 L 41.794922 191.18945 C 41.794922 194.3435 44.334239 196.88281 47.488281 196.88281 L 61.425781 196.88281 C 64.579823 196.88281 67.117188 194.3435 67.117188 191.18945 L 67.117188 164.7793 C 67.117188 161.62525 64.579823 159.08594 61.425781 159.08594 L 47.488281 159.08594 z M 76.810547 159.08594 C 73.656505 159.08594 71.117188 161.62525 71.117188 164.7793 L 71.117188 191.18945 C 71.117188 194.3435 73.656505 196.88281 76.810547 196.88281 L 90.748047 196.88281 C 93.902089 196.88281 96.441406 194.3435 96.441406 191.18945 L 96.441406 164.7793 C 96.441406 161.62525 93.902089 159.08594 90.748047 159.08594 L 76.810547 159.08594 z M 106.13477 159.08594 C 102.98073 159.08594 100.44141 161.62525 100.44141 164.7793 L 100.44141 191.18945 C 100.44141 194.3435 102.98073 196.88281 106.13477 196.88281 L 120.07031 196.88281 C 123.22435 196.88281 125.76367 194.3435 125.76367 191.18945 L 125.76367 164.7793 C 125.76367 161.62525 123.22435 159.08594 120.07031 159.08594 L 106.13477 159.08594 z M 135.45703 159.08594 C 132.30299 159.08594 129.76367 161.62525 129.76367 164.7793 L 129.76367 191.18945 C 129.76367 194.3435 132.30299 196.88281 135.45703 196.88281 L 149.39258 196.88281 C 152.54662 196.88281 155.08594 194.3435 155.08594 191.18945 L 155.08594 164.7793 C 155.08594 161.62525 152.54662 159.08594 149.39258 159.08594 L 135.45703 159.08594 z M 164.7793 159.08594 C 161.62526 159.08594 159.08594 161.62525 159.08594 164.7793 L 159.08594 191.18945 C 159.08594 194.3435 161.62526 196.88281 164.7793 196.88281 L 191.18945 196.88281 C 194.34349 196.88281 196.88281 194.3435 196.88281 191.18945 L 196.88281 164.7793 C 196.88281 161.62525 194.34349 159.08594 191.18945 159.08594 L 164.7793 159.08594 z "
       style="opacity:0.98;fill:#000000;fill-opacity:1;stroke:none;stroke-width:5.30317;stroke-dashoffset:43.2;paint-order:stroke fill markers"
       id="rect931" />
  </g>
</svg>
