<?xml version="1.0" encoding="UTF-8" standalone="no"?>
<svg
   xmlns:dc="http://purl.org/dc/elements/1.1/"
   xmlns:cc="http://creativecommons.org/ns#"
   xmlns:rdf="http://www.w3.org/1999/02/22-rdf-syntax-ns#"
   xmlns:svg="http://www.w3.org/2000/svg"
   xmlns="http://www.w3.org/2000/svg"
   xmlns:sodipodi="http://sodipodi.sourceforge.net/DTD/sodipodi-0.dtd"
   xmlns:inkscape="http://www.inkscape.org/namespaces/inkscape"
   width="49.733341mm"
   height="49.733337mm"
   viewBox="0 0 49.733341 49.733337"
   version="1.1"
   id="svg8"
   inkscape:version="1.0beta2 (2b71d25, 2019-12-03)"
   sodipodi:docname="MFJS 5x5.svg">
  <defs
     id="defs2" />
  <sodipodi:namedview
     id="base"
     pagecolor="#ffffff"
     bordercolor="#666666"
     borderopacity="1.0"
     inkscape:pageopacity="0.0"
     inkscape:pageshadow="2"
     inkscape:zoom="2.2551136"
     inkscape:cx="5.6283072"
     inkscape:cy="110.60962"
     inkscape:document-units="mm"
     inkscape:current-layer="layer1"
     inkscape:document-rotation="0"
     showgrid="false"
     inkscape:snap-bbox="true"
     fit-margin-top="0"
     fit-margin-left="0"
     fit-margin-right="0"
     fit-margin-bottom="0"
     inkscape:window-width="1383"
     inkscape:window-height="775"
     inkscape:window-x="57"
     inkscape:window-y="23"
     inkscape:window-maximized="0" />
  <metadata
     id="metadata5">
    <rdf:RDF>
      <cc:Work
         rdf:about="">
        <dc:format>image/svg+xml</dc:format>
        <dc:type
           rdf:resource="http://purl.org/dc/dcmitype/StillImage" />
        <dc:title />
      </cc:Work>
    </rdf:RDF>
  </metadata>
  <g
     inkscape:label="Layer 1"
     inkscape:groupmode="layer"
     id="layer1"
     transform="translate(-23.111965,-23.046638)">
    <path
       transform="matrix(0.26458333,0,0,0.26458333,23.111965,23.046638)"
       d="M 7.6894531 0 C 3.4299293 0 0 3.4299256 0 7.6894531 L 0 30.107422 C 0 34.366949 3.4299293 37.794922 7.6894531 37.794922 L 30.107422 37.794922 C 34.366946 37.794922 37.794922 34.366949 37.794922 30.107422 L 37.794922 7.6894531 C 37.794922 3.4299256 34.366946 0 30.107422 0 L 7.6894531 0 z M 49.484375 0 C 45.224847 0 41.794922 3.4299256 41.794922 7.6894531 L 41.794922 30.107422 C 41.794922 34.366949 45.224847 37.794922 49.484375 37.794922 L 66.232422 37.794922 C 70.491949 37.794922 73.921875 34.366949 73.921875 30.107422 L 73.921875 7.6894531 C 73.921875 3.4299256 70.491949 0 66.232422 0 L 49.484375 0 z M 85.609375 0 C 81.349851 0 77.921875 3.4299256 77.921875 7.6894531 L 77.921875 30.107422 C 77.921875 34.366949 81.349851 37.794922 85.609375 37.794922 L 102.35938 37.794922 C 106.6189 37.794922 110.04688 34.366949 110.04688 30.107422 L 110.04688 7.6894531 C 110.04687 3.4299256 106.6189 0 102.35938 0 L 85.609375 0 z M 121.73633 0 C 117.4768 0 114.04688 3.4299256 114.04688 7.6894531 L 114.04688 30.107422 C 114.04687 34.366949 117.4768 37.794922 121.73633 37.794922 L 138.48438 37.794922 C 142.7439 37.794922 146.17383 34.366949 146.17383 30.107422 L 146.17383 7.6894531 C 146.17383 3.4299256 142.7439 0 138.48438 0 L 121.73633 0 z M 157.86133 0 C 153.6018 0 150.17383 3.4299256 150.17383 7.6894531 L 150.17383 30.107422 C 150.17383 34.366949 153.6018 37.794922 157.86133 37.794922 L 180.2793 37.794922 C 184.53882 37.794922 187.96875 34.366949 187.96875 30.107422 L 187.96875 7.6894531 C 187.96875 3.4299256 184.53882 0 180.2793 0 L 157.86133 0 z M 7.6894531 41.794922 C 3.4299293 41.794922 0 45.224851 0 49.484375 L 0 66.232422 C 0 70.491946 3.4299293 73.921875 7.6894531 73.921875 L 30.107422 73.921875 C 34.366946 73.921875 37.794922 70.491946 37.794922 66.232422 L 37.794922 49.484375 C 37.794922 45.224851 34.366946 41.794922 30.107422 41.794922 L 7.6894531 41.794922 z M 48.775391 41.794922 C 44.908261 41.794922 41.794922 44.908265 41.794922 48.775391 L 41.794922 66.941406 C 41.794922 70.808536 44.908261 73.921875 48.775391 73.921875 L 66.941406 73.921875 C 70.808536 73.921875 73.921875 70.808536 73.921875 66.941406 L 73.921875 48.775391 C 73.921875 44.908265 70.808536 41.794922 66.941406 41.794922 L 48.775391 41.794922 z M 84.902344 41.794922 C 81.035214 41.794922 77.921875 44.908265 77.921875 48.775391 L 77.921875 66.941406 C 77.921875 70.808536 81.035214 73.921875 84.902344 73.921875 L 103.06641 73.921875 C 106.93354 73.921875 110.04688 70.808536 110.04688 66.941406 L 110.04688 48.775391 C 110.04687 44.908265 106.93354 41.794922 103.06641 41.794922 L 84.902344 41.794922 z M 121.02734 41.794922 C 117.16021 41.794922 114.04688 44.908265 114.04688 48.775391 L 114.04688 66.941406 C 114.04687 70.808536 117.16021 73.921875 121.02734 73.921875 L 139.19336 73.921875 C 143.06049 73.921875 146.17383 70.808536 146.17383 66.941406 L 146.17383 48.775391 C 146.17383 44.908265 143.06049 41.794922 139.19336 41.794922 L 121.02734 41.794922 z M 157.86133 41.794922 C 153.6018 41.794922 150.17383 45.224851 150.17383 49.484375 L 150.17383 66.232422 C 150.17383 70.491946 153.6018 73.921875 157.86133 73.921875 L 180.2793 73.921875 C 184.53882 73.921875 187.96875 70.491946 187.96875 66.232422 L 187.96875 49.484375 C 187.96875 45.224851 184.53882 41.794922 180.2793 41.794922 L 157.86133 41.794922 z M 7.6894531 77.921875 C 3.4299293 77.921875 0 81.349847 0 85.609375 L 0 102.35938 C 0 106.6189 3.4299293 110.04688 7.6894531 110.04688 L 30.107422 110.04688 C 34.366946 110.04688 37.794922 106.6189 37.794922 102.35938 L 37.794922 85.609375 C 37.794922 81.349847 34.366946 77.921875 30.107422 77.921875 L 7.6894531 77.921875 z M 48.775391 77.921875 C 44.908261 77.921875 41.794922 81.035214 41.794922 84.902344 L 41.794922 103.06641 C 41.794922 106.93354 44.908261 110.04688 48.775391 110.04688 L 66.941406 110.04688 C 70.808536 110.04688 73.921875 106.93354 73.921875 103.06641 L 73.921875 84.902344 C 73.921875 81.035214 70.808536 77.921875 66.941406 77.921875 L 48.775391 77.921875 z M 84.902344 77.921875 C 81.035214 77.921875 77.921875 81.035214 77.921875 84.902344 L 77.921875 103.06641 C 77.921875 106.93354 81.035214 110.04688 84.902344 110.04688 L 103.06641 110.04688 C 106.93354 110.04688 110.04688 106.93354 110.04688 103.06641 L 110.04688 84.902344 C 110.04687 81.035214 106.93354 77.921875 103.06641 77.921875 L 84.902344 77.921875 z M 121.02734 77.921875 C 117.16021 77.921875 114.04688 81.035214 114.04688 84.902344 L 114.04688 103.06641 C 114.04687 106.93354 117.16021 110.04688 121.02734 110.04688 L 139.19336 110.04688 C 143.06049 110.04688 146.17383 106.93354 146.17383 103.06641 L 146.17383 84.902344 C 146.17383 81.035214 143.06049 77.921875 139.19336 77.921875 L 121.02734 77.921875 z M 157.86133 77.921875 C 153.6018 77.921875 150.17383 81.349847 150.17383 85.609375 L 150.17383 102.35938 C 150.17383 106.6189 153.6018 110.04688 157.86133 110.04688 L 180.2793 110.04688 C 184.53882 110.04687 187.96875 106.6189 187.96875 102.35938 L 187.96875 85.609375 C 187.96875 81.349847 184.53882 77.921875 180.2793 77.921875 L 157.86133 77.921875 z M 7.6894531 114.04688 C 3.4299293 114.04688 0 117.4768 0 121.73633 L 0 138.48438 C 0 142.7439 3.4299293 146.17383 7.6894531 146.17383 L 30.107422 146.17383 C 34.366946 146.17383 37.794922 142.7439 37.794922 138.48438 L 37.794922 121.73633 C 37.794922 117.4768 34.366946 114.04688 30.107422 114.04688 L 7.6894531 114.04688 z M 48.775391 114.04688 C 44.908261 114.04688 41.794922 117.16021 41.794922 121.02734 L 41.794922 139.19336 C 41.794922 143.06049 44.908261 146.17383 48.775391 146.17383 L 66.941406 146.17383 C 70.808536 146.17383 73.921875 143.06049 73.921875 139.19336 L 73.921875 121.02734 C 73.921875 117.16021 70.808536 114.04688 66.941406 114.04688 L 48.775391 114.04688 z M 84.902344 114.04688 C 81.035214 114.04688 77.921875 117.16021 77.921875 121.02734 L 77.921875 139.19336 C 77.921875 143.06049 81.035214 146.17383 84.902344 146.17383 L 103.06641 146.17383 C 106.93354 146.17383 110.04688 143.06049 110.04688 139.19336 L 110.04688 121.02734 C 110.04687 117.16021 106.93354 114.04688 103.06641 114.04688 L 84.902344 114.04688 z M 121.02734 114.04688 C 117.16021 114.04688 114.04688 117.16021 114.04688 121.02734 L 114.04688 139.19336 C 114.04687 143.06049 117.16021 146.17383 121.02734 146.17383 L 139.19336 146.17383 C 143.06049 146.17383 146.17383 143.06049 146.17383 139.19336 L 146.17383 121.02734 C 146.17383 117.16021 143.06049 114.04688 139.19336 114.04688 L 121.02734 114.04688 z M 157.86133 114.04688 C 153.6018 114.04687 150.17383 117.4768 150.17383 121.73633 L 150.17383 138.48438 C 150.17383 142.7439 153.6018 146.17383 157.86133 146.17383 L 180.2793 146.17383 C 184.53882 146.17383 187.96875 142.7439 187.96875 138.48438 L 187.96875 121.73633 C 187.96875 117.4768 184.53882 114.04688 180.2793 114.04688 L 157.86133 114.04688 z M 7.6894531 150.17383 C 3.4299293 150.17383 0 153.6018 0 157.86133 L 0 180.2793 C 0 184.53882 3.4299293 187.96875 7.6894531 187.96875 L 30.107422 187.96875 C 34.366946 187.96875 37.794922 184.53882 37.794922 180.2793 L 37.794922 157.86133 C 37.794922 153.6018 34.366946 150.17383 30.107422 150.17383 L 7.6894531 150.17383 z M 49.484375 150.17383 C 45.224847 150.17383 41.794922 153.6018 41.794922 157.86133 L 41.794922 180.2793 C 41.794922 184.53882 45.224847 187.96875 49.484375 187.96875 L 66.232422 187.96875 C 70.491949 187.96875 73.921875 184.53882 73.921875 180.2793 L 73.921875 157.86133 C 73.921875 153.6018 70.491949 150.17383 66.232422 150.17383 L 49.484375 150.17383 z M 85.609375 150.17383 C 81.349851 150.17383 77.921875 153.6018 77.921875 157.86133 L 77.921875 180.2793 C 77.921875 184.53882 81.349851 187.96875 85.609375 187.96875 L 102.35938 187.96875 C 106.6189 187.96875 110.04688 184.53882 110.04688 180.2793 L 110.04688 157.86133 C 110.04687 153.6018 106.6189 150.17383 102.35938 150.17383 L 85.609375 150.17383 z M 121.73633 150.17383 C 117.4768 150.17383 114.04688 153.6018 114.04688 157.86133 L 114.04688 180.2793 C 114.04687 184.53882 117.4768 187.96875 121.73633 187.96875 L 138.48438 187.96875 C 142.7439 187.96875 146.17383 184.53882 146.17383 180.2793 L 146.17383 157.86133 C 146.17383 153.6018 142.7439 150.17383 138.48438 150.17383 L 121.73633 150.17383 z M 157.86133 150.17383 C 153.6018 150.17383 150.17383 153.6018 150.17383 157.86133 L 150.17383 180.2793 C 150.17383 184.53882 153.6018 187.96875 157.86133 187.96875 L 180.2793 187.96875 C 184.53882 187.96875 187.96875 184.53882 187.96875 180.2793 L 187.96875 157.86133 C 187.96875 153.6018 184.53882 150.17383 180.2793 150.17383 L 157.86133 150.17383 z "
       style="opacity:1;fill:#000000;fill-opacity:1;stroke:none;stroke-width:5.30313;stroke-dashoffset:43.2;paint-order:stroke fill markers;stroke-opacity:1"
       id="rect931" />
  </g>
</svg>
