<?xml version="1.0" encoding="UTF-8" standalone="no"?>
<svg
   xmlns:dc="http://purl.org/dc/elements/1.1/"
   xmlns:cc="http://creativecommons.org/ns#"
   xmlns:rdf="http://www.w3.org/1999/02/22-rdf-syntax-ns#"
   xmlns:svg="http://www.w3.org/2000/svg"
   xmlns="http://www.w3.org/2000/svg"
   xmlns:sodipodi="http://sodipodi.sourceforge.net/DTD/sodipodi-0.dtd"
   xmlns:inkscape="http://www.inkscape.org/namespaces/inkscape"
   sodipodi:docname="QJ Pyraminx Crystal.svg"
   inkscape:version="1.0beta2 (2b71d25, 2019-12-03)"
   id="svg8"
   version="1.1"
   viewBox="0 0 49.616779 47.455055"
   height="47.455055mm"
   width="49.616779mm">
  <defs
     id="defs2">
    <inkscape:path-effect
       hide_knots="false"
       only_selected="false"
       apply_with_radius="true"
       apply_no_radius="true"
       use_knot_distance="true"
       flexible="false"
       chamfer_steps="1"
       radius="10"
       mode="F"
       method="auto"
       unit="px"
       satellites_param="F,0,0,1,0,2.6458333,0,1 @ F,0,0,1,0,2.6458333,0,1 @ F,0,0,1,0,2.6458333,0,1 | F,0,0,1,0,2.6458333,0,1 @ F,0,0,1,0,2.6458333,0,1 @ F,0,0,1,0,2.6458333,0,1 @ F,0,0,1,0,2.6458333,0,1"
       lpeversion="1"
       is_visible="true"
       id="path-effect1017"
       effect="fillet_chamfer" />
    <inkscape:path-effect
       effect="fillet_chamfer"
       id="path-effect1013"
       is_visible="true"
       lpeversion="1"
       satellites_param="F,0,0,1,0,2.6458333,0,1 @ F,0,0,1,0,2.6458333,0,1 @ F,0,0,1,0,2.6458333,0,1 | F,0,0,1,0,2.6458333,0,1 @ F,0,0,1,0,2.6458333,0,1 @ F,0,0,1,0,2.6458333,0,1 @ F,0,0,1,0,2.6458333,0,1"
       unit="px"
       method="auto"
       mode="F"
       radius="10"
       chamfer_steps="1"
       flexible="false"
       use_knot_distance="true"
       apply_no_radius="true"
       apply_with_radius="true"
       only_selected="false"
       hide_knots="false" />
    <inkscape:path-effect
       hide_knots="false"
       only_selected="false"
       apply_with_radius="true"
       apply_no_radius="true"
       use_knot_distance="true"
       flexible="false"
       chamfer_steps="1"
       radius="10"
       mode="F"
       method="auto"
       unit="px"
       satellites_param="F,0,0,1,0,2.6458333,0,1 @ F,0,0,1,0,2.6458333,0,1 @ F,0,0,1,0,2.6458333,0,1 | F,0,0,1,0,2.6458333,0,1 @ F,0,0,1,0,2.6458333,0,1 @ F,0,0,1,0,2.6458333,0,1 @ F,0,0,1,0,2.6458333,0,1"
       lpeversion="1"
       is_visible="true"
       id="path-effect1009"
       effect="fillet_chamfer" />
    <inkscape:path-effect
       effect="fillet_chamfer"
       id="path-effect1005"
       is_visible="true"
       lpeversion="1"
       satellites_param="F,0,0,1,0,2.6458333,0,1 @ F,0,0,1,0,2.6458333,0,1 @ F,0,0,1,0,2.6458333,0,1 | F,0,0,1,0,2.6458333,0,1 @ F,0,0,1,0,2.6458333,0,1 @ F,0,0,1,0,2.6458333,0,1 @ F,0,0,1,0,2.6458333,0,1"
       unit="px"
       method="auto"
       mode="F"
       radius="10"
       chamfer_steps="1"
       flexible="false"
       use_knot_distance="true"
       apply_no_radius="true"
       apply_with_radius="true"
       only_selected="false"
       hide_knots="false" />
    <inkscape:path-effect
       hide_knots="false"
       only_selected="false"
       apply_with_radius="true"
       apply_no_radius="true"
       use_knot_distance="true"
       flexible="false"
       chamfer_steps="1"
       radius="10"
       mode="F"
       method="auto"
       unit="px"
       satellites_param="F,0,0,1,0,2.6458333,0,1 @ F,0,0,1,0,2.6458333,0,1 @ F,0,0,1,0,2.6458333,0,1 | F,0,0,1,0,2.6458333,0,1 @ F,0,0,1,0,2.6458333,0,1 @ F,0,0,1,0,2.6458333,0,1 @ F,0,0,1,0,2.6458333,0,1"
       lpeversion="1"
       is_visible="true"
       id="path-effect1001"
       effect="fillet_chamfer" />
  </defs>
  <sodipodi:namedview
     inkscape:snap-global="false"
     fit-margin-bottom="0"
     fit-margin-right="0"
     fit-margin-left="0"
     fit-margin-top="0"
     inkscape:window-maximized="0"
     inkscape:window-y="23"
     inkscape:window-x="107"
     inkscape:window-height="773"
     inkscape:window-width="1333"
     inkscape:snap-smooth-nodes="false"
     inkscape:snap-intersection-paths="true"
     inkscape:object-paths="false"
     inkscape:snap-bbox="true"
     showgrid="false"
     inkscape:document-rotation="0"
     inkscape:current-layer="layer1"
     inkscape:document-units="mm"
     inkscape:cy="69.425889"
     inkscape:cx="81.549919"
     inkscape:zoom="1.979899"
     inkscape:pageshadow="2"
     inkscape:pageopacity="0.0"
     borderopacity="1.0"
     bordercolor="#666666"
     pagecolor="#ffffff"
     id="base" />
  <metadata
     id="metadata5">
    <rdf:RDF>
      <cc:Work
         rdf:about="">
        <dc:format>image/svg+xml</dc:format>
        <dc:type
           rdf:resource="http://purl.org/dc/dcmitype/StillImage" />
        <dc:title></dc:title>
      </cc:Work>
    </rdf:RDF>
  </metadata>
  <g
     transform="translate(-64.360969,-88.428194)"
     id="layer1"
     inkscape:groupmode="layer"
     inkscape:label="Layer 1">
    <path
       inkscape:connector-curvature="0"
       transform="matrix(0.26458333,0,0,0.26458333,64.135562,88.299003)"
       d="m 94.138672,0.48828125 c -0.785479,4.4657e-4 -1.571635,0.21404607 -2.166016,0.63867185 -3.256972,2.3267813 -9.882888,7.1117004 -17.792968,12.8378909 -1.179577,0.853907 -1.747832,2.666118 -1.269532,4.046875 l 20.605469,59.486328 a 0.91658515,0.91658515 0 0 0 1.732422,0 L 115.75977,18.294922 c 0.47835,-1.380739 -0.0937,-3.193877 -1.27735,-4.050781 C 106.39799,8.3913059 99.610438,3.4859468 96.302734,1.1230469 95.709303,0.69912154 94.92415,0.48783468 94.138672,0.48828125 Z M 60.867188,24.933594 c -0.434118,-0.02199 -0.900208,0.119628 -1.34375,0.441406 -8.095487,5.873041 -15.511555,11.260885 -23.63086,17.167969 -1.18162,0.859671 -1.192451,2.267794 -0.02344,3.144531 L 78.5,77.658203 a 0.81532711,0.81532711 0 0 0 1.259766,-0.916015 L 62.521484,26.326172 c -0.29548,-0.864163 -0.930767,-1.355926 -1.654296,-1.392578 z m 67.759762,0.09766 c -0.72345,0.03665 -1.35893,0.526422 -1.65429,1.390625 L 109.73828,76.845703 A 0.81532711,0.81532711 0 0 0 111,77.761719 l 42.62305,-31.976563 c 1.16889,-0.876895 1.15814,-2.284799 -0.0234,-3.144531 -8.08724,-5.884395 -15.50193,-11.273394 -23.62891,-17.169922 -0.44352,-0.3218 -0.90968,-0.461441 -1.34375,-0.439453 z m 38.43555,27.652344 c -0.76742,0.0078 -1.53255,0.231091 -2.11523,0.671875 l -50.20704,37.980469 a 0.91658515,0.91658515 0 0 0 0.53516,1.648437 l 62.64258,1.210937 c 1.46098,0.02827 3.00978,-1.076301 3.45898,-2.466796 3.06815,-9.497379 5.63426,-17.467761 6.85938,-21.34375 0.43959,-1.390775 -0.16481,-3.249041 -1.33985,-4.117188 -3.21936,-2.37855 -9.8187,-7.199681 -17.70898,-12.953125 -0.58831,-0.428986 -1.35758,-0.638629 -2.125,-0.630859 z M 22.556641,53.167969 c -0.768752,-0.0068 -1.538544,0.204315 -2.128907,0.634765 C 12.36313,59.682863 5.6014193,64.623426 2.3320312,67.039062 1.1589165,67.905836 0.55575507,69.76519 0.99609375,71.158203 2.2025346,74.974783 4.7074031,82.754451 7.7089844,92.046875 c 0.4476052,1.385716 1.9960502,2.487198 3.4570316,2.458984 l 62.941406,-1.216797 a 0.91658515,0.91658515 0 0 0 0.535156,-1.646484 L 24.675781,53.839844 c -0.58267,-0.440807 -1.350389,-0.665051 -2.11914,-0.671875 z M 120.37305,106.5625 a 0.81532711,0.81532711 0 0 0 -0.48047,1.48242 l 43.58008,30.65625 c 1.19518,0.84071 2.53184,0.39528 2.98437,-0.99414 3.0973,-9.5098 5.93079,-18.226 9.02735,-27.77734 0.45064,-1.39003 -0.369,-2.53643 -1.83008,-2.5586 z m -51.986331,0.0273 -53.275391,0.81446 c -1.461082,0.0224 -2.280655,1.16854 -1.830078,2.55859 3.083951,9.51414 5.914471,18.23199 9.023438,27.7793 0.452454,1.38944 1.789303,1.83305 2.984374,0.99219 l 43.580079,-30.66211 a 0.81532711,0.81532711 0 0 0 -0.482422,-1.48243 z m 13.132812,9.30664 a 0.91658515,0.91658515 0 0 0 -0.542969,0.16407 l -51.392578,35.83984 c -1.198574,0.83587 -1.801557,2.64033 -1.347656,4.0293 3.100234,9.48695 5.708983,17.44298 6.996094,21.29883 0.461838,1.38354 2.043,2.53128 3.503906,2.54296 4.002594,0.032 12.176245,0.0554 21.941406,0.0723 1.456211,0.003 2.981615,-1.12915 3.40625,-2.52734 l 18.292969,-60.23829 a 0.91658515,0.91658515 0 0 0 -0.857422,-1.18164 z m 25.929689,0.26172 a 0.91658515,0.91658515 0 0 0 -0.8711,1.1836 l 18.20508,59.95117 c 0.42459,1.39821 1.95281,2.52981 3.41407,2.52734 9.98065,-0.0169 18.35505,-0.0377 22.41992,-0.0703 1.45854,-0.0117 3.0394,-1.16108 3.50195,-2.54688 1.2673,-3.7968 3.81404,-11.56368 6.84766,-20.8457 0.45238,-1.38416 -0.15302,-3.18361 -1.35157,-4.01953 l -51.63671,-36.01367 a 0.91658515,0.91658515 0 0 0 -0.5293,-0.16602 z m -13.015626,9.6543 a 0.81532711,0.81532711 0 0 0 -0.753906,0.57422 l -15.6875,50.92187 c -0.43023,1.39649 0.405934,2.53023 1.867187,2.53125 10.001473,0.007 19.168232,0.008 29.208985,0.002 1.46125,-9.5e-4 2.29565,-1.13483 1.86523,-2.53125 L 95.238281,126.38672 a 0.81532711,0.81532711 0 0 0 -0.804687,-0.57422 z"
       style="fill:#000000;fill-opacity:1;stroke:none;stroke-width:15.1181;stroke-linejoin:round;stroke-miterlimit:4;stroke-dasharray:none;stroke-dashoffset:43.2"
       id="path994" />
  </g>
</svg>
