<?xml version="1.0" encoding="UTF-8" standalone="no"?>
<svg
   xmlns:dc="http://purl.org/dc/elements/1.1/"
   xmlns:cc="http://creativecommons.org/ns#"
   xmlns:rdf="http://www.w3.org/1999/02/22-rdf-syntax-ns#"
   xmlns:svg="http://www.w3.org/2000/svg"
   xmlns="http://www.w3.org/2000/svg"
   xmlns:sodipodi="http://sodipodi.sourceforge.net/DTD/sodipodi-0.dtd"
   xmlns:inkscape="http://www.inkscape.org/namespaces/inkscape"
   width="81.474564mm"
   height="66.148514mm"
   viewBox="0 0 81.474564 66.148514"
   version="1.1"
   id="svg2440"
   inkscape:version="1.0beta2 (2b71d25, 2019-12-03)"
   sodipodi:docname="ShengShou Master Pyraminx.svg">
  <defs
     id="defs2434">
    <inkscape:path-effect
       effect="fillet_chamfer"
       id="path-effect3045"
       is_visible="true"
       lpeversion="1"
       satellites_param="F,1,0,1,0,0.14,0,1 @ F,1,0,1,0,0.14,0,1 @ F,1,0,1,0,0.14,0,1 | F,1,0,1,0,0.14,0,1 @ F,1,0,1,0,0.14,0,1 @ F,1,0,1,0,0.14,0,1 | F,1,0,1,0,0.14,0,1 @ F,1,0,1,0,0.14,0,1 @ F,1,0,1,0,0.14,0,1 | F,1,0,1,0,0.14,0,1 @ F,1,0,1,0,0.14,0,1 @ F,1,0,1,0,0.14,0,1 | F,1,0,1,0,0.14,0,1 @ F,1,0,1,0,0.14,0,1 @ F,1,0,1,0,0.14,0,1 | F,1,0,1,0,0.14,0,1 @ F,1,0,1,0,0.14,0,1 @ F,1,0,1,0,0.14,0,1 | F,1,0,1,0,0.14,0,1 @ F,1,0,1,0,0.14,0,1 @ F,1,0,1,0,0.14,0,1 | F,1,0,1,0,0.14,0,1 @ F,1,0,1,0,0.14,0,1 @ F,1,0,1,0,0.14,0,1 | F,1,0,1,0,0.14,0,1 @ F,1,0,1,0,0.14,0,1 @ F,1,0,1,0,0.14,0,1"
       unit="px"
       method="auto"
       mode="F"
       radius="14"
       chamfer_steps="1"
       flexible="true"
       use_knot_distance="true"
       apply_no_radius="true"
       apply_with_radius="true"
       only_selected="false"
       hide_knots="false" />
  </defs>
  <sodipodi:namedview
     fit-margin-bottom="0"
     fit-margin-right="0"
     fit-margin-left="0"
     fit-margin-top="0"
     inkscape:snap-bbox="true"
     id="base"
     pagecolor="#ffffff"
     bordercolor="#666666"
     borderopacity="1.0"
     inkscape:pageopacity="0.0"
     inkscape:pageshadow="2"
     inkscape:zoom="0.98994949"
     inkscape:cx="174.95574"
     inkscape:cy="201.67972"
     inkscape:document-units="mm"
     inkscape:current-layer="layer1"
     inkscape:document-rotation="0"
     showgrid="false"
     inkscape:window-width="1011"
     inkscape:window-height="775"
     inkscape:window-x="429"
     inkscape:window-y="23"
     inkscape:window-maximized="0" />
  <metadata
     id="metadata2437">
    <rdf:RDF>
      <cc:Work
         rdf:about="">
        <dc:format>image/svg+xml</dc:format>
        <dc:type
           rdf:resource="http://purl.org/dc/dcmitype/StillImage" />
        <dc:title></dc:title>
      </cc:Work>
    </rdf:RDF>
  </metadata>
  <g
     transform="translate(-27.123181,-74.514217)"
     inkscape:label="Layer 1"
     inkscape:groupmode="layer"
     id="layer1">
    <path
       inkscape:connector-curvature="0"
       transform="scale(0.26458333)"
       d="m 256.54297,281.62891 a 5.543915,5.543915 0 0 0 -4.86524,2.77148 l -24.6914,42.76758 a 5.5439792,5.5439792 0 0 0 4.80273,8.31641 h 49.38282 a 5.5438477,5.5438477 0 0 0 4.80078,-8.31641 l -24.69141,-42.76758 a 5.543915,5.543915 0 0 0 -4.73828,-2.77148 z m -24.75391,59.80468 a 5.5439119,5.5439119 0 0 0 -4.80273,8.31641 l 24.6914,42.76562 a 5.54398,5.54398 0 0 0 9.60352,0 L 285.97266,349.75 a 5.5438484,5.5438484 0 0 0 -4.80078,-8.31641 z m -16.49023,5.54297 a 5.543915,5.543915 0 0 0 -4.86328,2.77344 l -24.69141,42.76562 a 5.5439785,5.5439785 0 0 0 4.80078,8.31641 h 49.38281 a 5.5438469,5.5438469 0 0 0 4.80274,-8.31641 l -24.69336,-42.76757 a 5.543915,5.543915 0 0 0 -4.73828,-2.77149 z m 82.48828,0 a 5.543915,5.543915 0 0 0 -4.86523,2.77344 l -24.69141,42.76562 a 5.5439785,5.5439785 0 0 0 4.80078,8.31641 h 49.38477 a 5.5438469,5.5438469 0 0 0 4.80078,-8.31641 l -24.69336,-42.76757 a 5.543915,5.543915 0 0 0 -4.73633,-2.77149 z m -107.24219,59.80469 a 5.5439131,5.5439131 0 0 0 -4.80078,8.31641 l 24.69141,42.76562 a 5.54398,5.54398 0 0 0 9.60156,0.002 l 24.69336,-42.76757 a 5.5438488,5.5438488 0 0 0 -4.80274,-8.31641 z m 82.48633,0 a 5.5439131,5.5439131 0 0 0 -4.80078,8.31641 l 24.69141,42.76562 a 5.54398,5.54398 0 0 0 9.60351,0.002 l 24.69141,-42.76757 a 5.5438488,5.5438488 0 0 0 -4.80078,-8.31641 z m -99.17383,5.54492 a 5.543915,5.543915 0 0 0 -4.66601,2.77149 L 144.5,457.86328 a 5.5439788,5.5439788 0 0 0 4.80078,8.31641 h 49.38477 a 5.5438477,5.5438477 0 0 0 4.80078,-8.31446 l -24.69336,-42.76757 a 5.543915,5.543915 0 0 0 -4.93555,-2.77149 z m 82.48828,0 a 5.543915,5.543915 0 0 0 -4.66797,2.77149 l -24.6914,42.76562 a 5.5439788,5.5439788 0 0 0 4.80273,8.31641 h 49.38282 a 5.5438477,5.5438477 0 0 0 4.80078,-8.31446 l -24.69141,-42.76757 a 5.543915,5.543915 0 0 0 -4.93555,-2.77149 z m 82.48633,0 a 5.543915,5.543915 0 0 0 -4.66601,2.77149 l -24.69141,42.76562 a 5.5439788,5.5439788 0 0 0 4.80078,8.31641 h 49.38477 a 5.5438477,5.5438477 0 0 0 4.80078,-8.31446 l -24.69336,-42.76757 a 5.543915,5.543915 0 0 0 -4.93555,-2.77149 z M 149.30078,472.23828 A 5.5439788,5.5439788 0 0 0 144.5,480.55469 l 24.69141,42.76758 a 5.543915,5.543915 0 0 0 9.60156,0 l 24.69336,-42.76758 a 5.5438477,5.5438477 0 0 0 -4.80078,-8.31641 z m 82.48828,0 a 5.5439788,5.5439788 0 0 0 -4.80273,8.31641 l 24.6914,42.76758 a 5.543915,5.543915 0 0 0 9.60352,0 l 24.69141,-42.76758 a 5.5438477,5.5438477 0 0 0 -4.80078,-8.31641 z m 82.48633,0 a 5.5439788,5.5439788 0 0 0 -4.80078,8.31641 l 24.69141,42.76758 a 5.543915,5.543915 0 0 0 9.60156,0 l 24.69336,-42.76758 a 5.5438477,5.5438477 0 0 0 -4.80078,-8.31641 z m -181.58984,5.54492 a 5.54398,5.54398 0 0 0 -4.73828,2.77149 l -24.69141,42.76758 a 5.5439131,5.5439131 0 0 0 4.80273,8.3164 h 49.38282 a 5.5438488,5.5438488 0 0 0 4.80078,-8.3164 l -24.69141,-42.76758 a 5.54398,5.54398 0 0 0 -4.86523,-2.77149 z m 82.48633,0 a 5.54398,5.54398 0 0 0 -4.73633,2.77149 l -24.69141,42.76758 a 5.5439131,5.5439131 0 0 0 4.80078,8.3164 h 49.38281 a 5.5438488,5.5438488 0 0 0 4.80274,-8.3164 l -24.69336,-42.76758 a 5.54398,5.54398 0 0 0 -4.86523,-2.77149 z m 82.48828,0 a 5.54398,5.54398 0 0 0 -4.73828,2.77149 l -24.69141,42.76758 a 5.5439131,5.5439131 0 0 0 4.80078,8.3164 h 49.38477 a 5.5438488,5.5438488 0 0 0 4.80078,-8.3164 l -24.69141,-42.76758 a 5.54398,5.54398 0 0 0 -4.86523,-2.77149 z m 82.48632,0 a 5.54398,5.54398 0 0 0 -4.73632,2.77149 l -24.69141,42.76758 a 5.5439131,5.5439131 0 0 0 4.80078,8.3164 h 49.38281 a 5.5438488,5.5438488 0 0 0 4.80274,-8.3164 l -24.69336,-42.76758 a 5.54398,5.54398 0 0 0 -4.86524,-2.77149 z"
       style="fill:#000000;stroke-width:0.486009;stroke-dashoffset:43.2;paint-order:stroke fill markers"
       id="path3667" />
  </g>
</svg>
