<?xml version="1.0" encoding="UTF-8" standalone="no"?>
<svg
   xmlns:dc="http://purl.org/dc/elements/1.1/"
   xmlns:cc="http://creativecommons.org/ns#"
   xmlns:rdf="http://www.w3.org/1999/02/22-rdf-syntax-ns#"
   xmlns:svg="http://www.w3.org/2000/svg"
   xmlns="http://www.w3.org/2000/svg"
   xmlns:sodipodi="http://sodipodi.sourceforge.net/DTD/sodipodi-0.dtd"
   xmlns:inkscape="http://www.inkscape.org/namespaces/inkscape"
   sodipodi:docname="ShengShou Megaminx.svg"
   inkscape:version="1.0beta2 (2b71d25, 2019-12-03)"
   id="svg8"
   version="1.1"
   viewBox="0 0 45.593758 43.475277"
   height="43.475277mm"
   width="45.593758mm">
  <defs
     id="defs2">
    <inkscape:path-effect
       hide_knots="false"
       only_selected="true"
       apply_with_radius="true"
       apply_no_radius="true"
       use_knot_distance="true"
       flexible="false"
       chamfer_steps="1"
       radius="12"
       mode="F"
       method="auto"
       unit="px"
       satellites_param="F,0,1,1,0,3.175,0,1 @ F,0,1,1,0,3.175,0,1 @ F,0,0,1,0,2.9104167,0,1 @ F,0,0,1,0,2.9104167,0,1 @ F,0,1,1,0,3.175,0,1 | F,0,1,1,0,3.175,0,1 @ F,0,1,1,0,3.175,0,1 @ F,0,0,1,0,2.9104167,0,1 @ F,0,0,1,0,2.9104167,0,1 @ F,0,0,1,0,2.9104167,0,1 @ F,0,0,1,0,2.9104167,0,1 | F,0,1,1,0,3.175,0,1 @ F,0,0,1,0,2.9104167,0,1 @ F,0,0,1,0,2.9104167,0,1 @ F,0,0,1,0,2.9104167,0,1 @ F,0,0,1,0,2.9104167,0,1 @ F,0,1,1,0,3.175,0,1 | F,0,1,1,0,3.175,0,1 @ F,0,1,1,0,3.175,0,1 @ F,0,1,1,0,3.175,0,1 @ F,0,0,1,0,2.9104167,0,1 @ F,0,0,1,0,2.9104167,0,1 | F,0,1,1,0,3.175,0,1 @ F,0,0,1,0,2.9104167,0,1 @ F,0,0,1,0,2.9104167,0,1 @ F,0,1,1,0,3.175,0,1 @ F,0,1,1,0,3.175,0,1 | F,0,0,1,0,2.9104167,0,1 @ F,0,0,1,0,2.9104167,0,1 @ F,0,0,1,0,2.9104167,0,1 @ F,0,0,1,0,2.9104167,0,1 @ F,0,0,1,0,2.9104167,0,1 @ F,0,0,1,0,2.9104167,0,1 @ F,0,0,1,0,2.9104167,0,1 @ F,0,0,1,0,2.9104167,0,1 @ F,0,0,1,0,2.9104167,0,1 @ F,0,0,1,0,2.9104167,0,1 | F,0,0,1,0,2.9104167,0,1 @ F,0,1,1,0,3.175,0,1 @ F,0,1,1,0,3.175,0,1 @ F,0,0,1,0,2.9104167,0,1 @ F,0,0,1,0,2.9104167,0,1 @ F,0,0,1,0,2.9104167,0,1 | F,0,0,1,0,2.9104167,0,1 @ F,0,0,1,0,2.9104167,0,1 @ F,0,0,1,0,2.9104167,0,1 @ F,0,1,1,0,3.175,0,1 @ F,0,1,1,0,3.175,0,1 @ F,0,0,1,0,2.9104167,0,1 | F,0,0,1,0,2.9104167,0,1 @ F,0,1,1,0,3.175,0,1 @ F,0,1,1,0,3.175,0,1 @ F,0,1,1,0,3.175,0,1 @ F,0,0,1,0,2.9104167,0,1 | F,0,0,1,0,2.9104167,0,1 @ F,0,1,1,0,3.175,0,1 @ F,0,1,1,0,3.175,0,1 @ F,0,1,1,0,3.175,0,1 @ F,0,0,1,0,2.9104167,0,1 | F,0,0,1,0,2.9104167,0,1 @ F,0,1,1,0,3.175,0,1 @ F,0,1,1,0,3.175,0,1 @ F,0,0,1,0,2.9104167,0,1 @ F,0,0,1,0,2.9104167,0,1 @ F,0,0,1,0,2.9104167,0,1"
       lpeversion="1"
       is_visible="true"
       id="path-effect1026"
       effect="fillet_chamfer" />
    <inkscape:path-effect
       hide_knots="false"
       only_selected="true"
       apply_with_radius="true"
       apply_no_radius="true"
       use_knot_distance="true"
       flexible="false"
       chamfer_steps="1"
       radius="20"
       mode="F"
       method="auto"
       unit="px"
       satellites_param="F,0,0,1,0,0,0,1 @ F,0,0,1,0,0,0,1 @ F,0,0,1,0,5.2916667,0,1 @ F,0,0,1,0,0,0,1 | F,0,0,1,0,0,0,1 @ F,0,0,1,0,0,0,1 @ F,0,0,1,0,5.2916667,0,1 @ F,0,0,1,0,5.2916667,0,1 | F,0,0,1,0,0,0,1 @ F,0,0,1,0,5.2916667,0,1 @ F,0,0,1,0,5.2916667,0,1 @ F,0,0,1,0,0,0,1 | F,0,0,1,0,0,0,1 @ F,0,0,1,0,0,0,1 @ F,0,0,1,0,0,0,1 @ F,0,0,1,0,5.2916667,0,1 | F,0,0,1,0,0,0,1 @ F,0,1,1,0,5.2916667,0,1 @ F,0,0,1,0,0,0,1 @ F,0,0,1,0,0,0,1 | F,0,0,1,0,5.2916667,0,1 @ F,0,0,1,0,5.2916667,0,1 @ F,0,0,1,0,5.2916667,0,1 @ F,0,0,1,0,5.2916667,0,1 @ F,0,0,1,0,5.2916667,0,1 | F,0,0,1,0,5.2916667,0,1 @ F,0,0,1,0,0,0,1 @ F,0,0,1,0,0,0,1 @ F,0,0,1,0,5.2916667,0,1 | F,0,0,1,0,5.2916667,0,1 @ F,0,0,1,0,5.2916667,0,1 @ F,0,0,1,0,0,0,1 @ F,0,0,1,0,0,0,1 | F,0,0,1,0,5.2916667,0,1 @ F,0,0,1,0,0,0,1 @ F,0,0,1,0,0,0,1 @ F,0,0,1,0,0,0,1 | F,0,0,1,0,5.2916667,0,1 @ F,0,0,1,0,0,0,1 @ F,0,0,1,0,0,0,1 @ F,0,0,1,0,0,0,1 | F,0,0,1,0,5.2916667,0,1 @ F,0,0,1,0,0,0,1 @ F,0,0,1,0,0,0,1 @ F,0,0,1,0,5.2916667,0,1"
       lpeversion="1"
       is_visible="true"
       id="path-effect1024"
       effect="fillet_chamfer" />
    <inkscape:path-effect
       hide_knots="false"
       only_selected="false"
       apply_with_radius="true"
       apply_no_radius="true"
       use_knot_distance="true"
       flexible="false"
       chamfer_steps="1"
       radius="11"
       mode="F"
       method="auto"
       unit="px"
       satellites_param="F,0,0,1,0,2.9104167,0,1 @ F,0,0,1,0,2.9104167,0,1 @ F,0,0,1,0,2.9104167,0,1 @ F,0,0,1,0,2.9104167,0,1 | F,0,0,1,0,2.9104167,0,1 @ F,0,0,1,0,2.9104167,0,1 @ F,0,0,1,0,2.9104167,0,1 @ F,0,0,1,0,2.9104167,0,1 | F,0,0,1,0,2.9104167,0,1 @ F,0,0,1,0,2.9104167,0,1 @ F,0,0,1,0,2.9104167,0,1 @ F,0,0,1,0,2.9104167,0,1 | F,0,0,1,0,2.9104167,0,1 @ F,0,0,1,0,2.9104167,0,1 @ F,0,0,1,0,2.9104167,0,1 @ F,0,0,1,0,2.9104167,0,1 | F,0,0,1,0,2.9104167,0,1 @ F,0,0,1,0,2.9104167,0,1 @ F,0,0,1,0,2.9104167,0,1 @ F,0,0,1,0,2.9104167,0,1 | F,0,0,1,0,2.9104167,0,1 @ F,0,0,1,0,2.9104167,0,1 @ F,0,0,1,0,2.9104167,0,1 @ F,0,0,1,0,2.9104167,0,1 @ F,0,0,1,0,2.9104167,0,1 | F,0,0,1,0,2.9104167,0,1 @ F,0,0,1,0,2.9104167,0,1 @ F,0,0,1,0,2.9104167,0,1 @ F,0,0,1,0,2.9104167,0,1 | F,0,0,1,0,2.9104167,0,1 @ F,0,0,1,0,2.9104167,0,1 @ F,0,0,1,0,2.9104167,0,1 @ F,0,0,1,0,2.9104167,0,1 | F,0,0,1,0,2.9104167,0,1 @ F,0,0,1,0,2.9104167,0,1 @ F,0,0,1,0,2.9104167,0,1 @ F,0,0,1,0,2.9104167,0,1 | F,0,0,1,0,2.9104167,0,1 @ F,0,0,1,0,2.9104167,0,1 @ F,0,0,1,0,2.9104167,0,1 @ F,0,0,1,0,2.9104167,0,1 | F,0,0,1,0,2.9104167,0,1 @ F,0,0,1,0,2.9104167,0,1 @ F,0,0,1,0,2.9104167,0,1 @ F,0,0,1,0,2.9104167,0,1"
       lpeversion="1"
       is_visible="true"
       id="path-effect1022"
       effect="fillet_chamfer" />
  </defs>
  <sodipodi:namedview
     fit-margin-bottom="0"
     fit-margin-right="0"
     fit-margin-left="0"
     fit-margin-top="0"
     inkscape:window-maximized="0"
     inkscape:window-y="23"
     inkscape:window-x="295"
     inkscape:window-height="773"
     inkscape:window-width="1145"
     inkscape:snap-global="false"
     inkscape:object-paths="true"
     inkscape:snap-bbox="false"
     showgrid="false"
     inkscape:document-rotation="0"
     inkscape:current-layer="layer1"
     inkscape:document-units="mm"
     inkscape:cy="112.54336"
     inkscape:cx="105.0021"
     inkscape:zoom="2.203631"
     inkscape:pageshadow="2"
     inkscape:pageopacity="0.0"
     borderopacity="1.0"
     bordercolor="#666666"
     pagecolor="#ffffff"
     id="base" />
  <metadata
     id="metadata5">
    <rdf:RDF>
      <cc:Work
         rdf:about="">
        <dc:format>image/svg+xml</dc:format>
        <dc:type
           rdf:resource="http://purl.org/dc/dcmitype/StillImage" />
        <dc:title></dc:title>
      </cc:Work>
    </rdf:RDF>
  </metadata>
  <g
     transform="translate(-82.203172,-126.8988)"
     id="layer1"
     inkscape:groupmode="layer"
     inkscape:label="Layer 1">
    <path
       inkscape:connector-curvature="0"
       transform="scale(0.26458333)"
       d="m 394.28098,480.45216 -25.98188,18.87693 c -1.41862,1.03069 -1.43227,2.72024 -0.0305,3.77372 8.57155,6.44186 16.63028,12.49774 21.99148,16.51066 1.28682,0.9632 3.41727,2.57235 4.97939,2.89244 1.05195,0.21554 2.16853,0.21556 3.22049,3e-5 1.56213,-0.32006 3.69265,-1.92912 4.97951,-2.89227 5.36163,-4.01292 13.42105,-10.06889 21.99309,-16.5109 1.40179,-1.05346 1.38811,-2.74296 -0.0305,-3.7736 l -25.98373,-18.87709 a 4.3701512,4.3701512 179.99915 0 0 -5.13731,8e-5 z m -37.49396,27.24048 -7.07599,5.14206 c -1.41852,1.03082 -2.1081,3.21136 -1.53999,4.87028 3.05869,8.93157 6.26683,18.28405 8.85106,25.83615 0.5204,1.52081 1.31395,4.20636 2.65305,5.03706 0.47572,0.29511 1.00752,0.46363 1.56631,0.4963 1.57309,0.092 3.76756,-1.64809 5.06794,-2.5929 l 17.34995,-12.60576 c 1.30038,-0.94481 3.63338,-2.49421 4.032,-4.01874 0.14161,-0.54158 0.14568,-1.09946 0.012,-1.64313 -0.37625,-1.53025 -2.68515,-3.11482 -3.97074,-4.07967 -6.38432,-4.79152 -14.28862,-10.73261 -21.83816,-16.40176 -1.40218,-1.05294 -3.68891,-1.07071 -5.10743,-0.0399 z m 75.01966,0.0398 c -7.55001,5.66925 -15.45506,11.61046 -21.83992,16.40203 -1.28562,0.96481 -3.5946,2.5493 -3.97085,4.07955 -0.13366,0.54361 -0.12959,1.10143 0.012,1.64295 0.39863,1.52452 2.73169,3.07385 4.03211,4.01862 l 17.3516,12.60616 c 1.30042,0.94477 3.49494,2.68478 5.06803,2.59276 0.55882,-0.0327 1.09064,-0.20122 1.56639,-0.49636 1.33908,-0.83073 2.13263,-3.51626 2.65304,-5.03706 2.58424,-7.5521 5.79237,-16.90459 8.85105,-25.83615 0.56811,-1.65892 -0.12147,-3.83946 -1.53999,-4.87028 l -7.07599,-5.14206 c -1.41852,-1.03082 -3.70527,-1.01307 -5.10747,0.0398 z m -93.22497,13.18836 -26.09115,18.9552 a 4.3698281,4.3698281 108.00046 0 0 -1.58751,4.88574 l 9.92437,30.54285 c 0.54189,1.66767 2.14453,2.20274 3.57961,1.1951 8.81741,-6.19113 17.11158,-12.01548 22.60654,-15.88976 1.31369,-0.92623 3.50238,-2.45522 4.28948,-3.84199 0.53005,-0.93388 0.87509,-1.99583 0.99516,-3.06292 0.17831,-1.58459 -0.69362,-4.10805 -1.21197,-5.62956 -2.15956,-6.33902 -5.4284,-15.87485 -8.90606,-26.01746 -0.56873,-1.65871 -2.17983,-2.16785 -3.59847,-1.1372 z m 112.93928,1.13721 c -3.47769,10.1427 -6.74658,19.67856 -8.90615,26.01756 -0.51835,1.5215 -1.39029,4.04498 -1.21188,5.62955 0.12014,1.06702 0.46524,2.12891 0.99533,3.06273 0.7872,1.38674 2.9759,2.9157 4.28958,3.84194 5.4949,3.8743 13.78885,9.69872 22.60628,15.8899 1.43507,1.00764 3.03771,0.47257 3.5796,-1.1951 l 9.92438,-30.54285 a 4.3698262,4.3698262 71.999543 0 0 -1.58751,-4.88574 l -26.09116,-18.9552 c -1.41864,-1.03065 -3.02974,-0.5215 -3.59847,1.13721 z m -61.30698,18.09117 -19.69169,14.30702 c -1.30039,0.9448 -3.48546,2.47283 -4.30995,3.84015 -0.57571,0.95476 -0.92533,2.03072 -1.0208,3.14152 -0.13672,1.59083 0.73282,4.11144 1.22947,5.64016 l 7.5212,23.1505 c 0.49665,1.52872 1.27458,4.07907 2.32019,5.28574 0.73007,0.84253 1.64528,1.5075 2.67217,1.94153 1.47072,0.62162 4.13666,0.57346 5.74404,0.57346 h 24.34194 c 1.60738,0 4.27329,0.0482 5.744,-0.57341 1.02693,-0.43402 1.94219,-1.09898 2.67232,-1.94152 1.04567,-1.20665 1.82371,-3.75698 2.32044,-5.28568 l 7.52243,-23.15074 c 0.49673,-1.5287 1.36638,-4.04924 1.22969,-5.64005 -0.0954,-1.11075 -0.44503,-2.18666 -1.0207,-3.14137 -0.82449,-1.36735 -3.00963,-2.89534 -4.31004,-3.8401 l -19.69338,-14.3074 c -1.30041,-0.94476 -3.42891,-2.55066 -4.9841,-2.91223 -1.08592,-0.25246 -2.21724,-0.25245 -3.30316,4e-5 -1.55521,0.3616 -3.68368,1.96758 -4.98407,2.91238 z m -41.02494,28.14958 c -6.49782,4.56845 -14.59718,10.25398 -22.34726,15.69984 -1.43472,1.00815 -2.15835,3.17748 -1.61641,4.84514 l 2.766,8.51166 c 0.54194,1.66766 2.40258,2.99729 4.15587,2.96958 9.47033,-0.14968 19.36411,-0.31085 27.30588,-0.43418 1.60718,-0.025 4.4065,0.0503 5.61039,-0.96655 0.42769,-0.36123 0.7523,-0.8149 0.95607,-1.33623 0.57366,-1.46765 -0.40305,-4.09246 -0.89973,-5.62118 l -6.68898,-20.58806 c -0.49668,-1.52872 -1.24922,-4.22637 -2.57594,-5.07659 -0.47127,-0.302 -1.00053,-0.47824 -1.55885,-0.51911 -1.57162,-0.11505 -3.79213,1.59119 -5.10704,2.51568 z m 86.08082,3.0799 -6.69017,20.5883 c -0.49675,1.5287 -1.47361,4.15348 -0.89999,5.62114 0.20374,0.5213 0.52832,0.97495 0.95597,1.33616 1.20386,1.01684 4.00319,0.94161 5.61038,0.96657 7.94211,0.12335 17.83677,0.28451 27.30783,0.43417 1.75329,0.0277 3.61393,-1.30194 4.15587,-2.9696 l 2.76599,-8.51166 c 0.54194,-1.66766 -0.18169,-3.83699 -1.61641,-4.84514 -7.75008,-5.44586 -15.84944,-11.13139 -22.34726,-15.69985 -1.31492,-0.92448 -3.53542,-2.6307 -5.10705,-2.51569 -0.55837,0.0409 -1.08768,0.21711 -1.55899,0.51913 -1.32674,0.85018 -2.07942,3.54777 -2.57617,5.07647 z m -73.29327,35.28369 c -6.72304,0.0954 -16.85715,0.2586 -27.63016,0.43276 -1.75327,0.0283 -2.7353,1.40325 -2.19343,3.07093 l 9.99082,30.74791 a 4.3700424,4.3700424 35.999814 0 0 4.15615,3.0196 h 32.2457 c 1.7535,0 2.75766,-1.35885 2.24284,-3.03508 -3.17255,-10.32974 -6.15838,-20.05013 -8.1497,-26.48922 -0.4749,-1.53562 -1.25263,-4.08969 -2.32826,-5.26685 -0.72434,-0.79272 -1.62768,-1.44907 -2.60543,-1.89304 -1.45191,-0.65929 -4.12132,-0.60982 -5.72853,-0.58701 z m 59.08512,7.74686 c -1.99174,6.43908 -4.97811,16.15948 -8.15099,26.48929 -0.51486,1.67621 0.48927,3.03505 2.24277,3.03505 h 32.24765 a 4.3700435,4.3700435 144.00019 0 0 4.15615,-3.0196 l 9.99083,-30.74791 c 0.54187,-1.66768 -0.44016,-3.04258 -2.19344,-3.07092 -10.77307,-0.17415 -20.90724,-0.33729 -27.63029,-0.4327 -1.60721,-0.0228 -4.27661,-0.0723 -5.72853,0.58699 -0.97778,0.44397 -1.88118,1.10032 -2.60559,1.89305 -1.07567,1.17713 -1.85357,3.73115 -2.32856,5.26675 z m -40.88262,0.38553 c 2.33012,7.56816 5.23635,17.03285 8.02609,26.10413 0.51544,1.67604 2.35496,3.03468 4.10846,3.03468 h 9.07188 c 1.7535,0 3.59305,-1.35863 4.10852,-3.03466 2.78985,-9.07123 5.69579,-18.53598 8.0259,-26.1042 0.47298,-1.53621 1.40973,-4.17524 0.81473,-5.63443 -0.21134,-0.51831 -0.54243,-0.96716 -0.9752,-1.32201 -1.21851,-0.99914 -4.0167,-0.88126 -5.62408,-0.88126 H 385.9638 c -1.60738,0 -4.40557,-0.11787 -5.6241,0.88125 -0.43279,0.35486 -0.76391,0.80374 -0.97527,1.32207 -0.595,1.45918 0.34172,4.09821 0.81469,5.63443 z"
       style="fill:#000000;stroke-width:1.23065;stroke-dashoffset:43.2;paint-order:stroke fill markers"
       id="path980" />
  </g>
</svg>
