<?xml version="1.0" encoding="UTF-8" standalone="no"?>
<svg
   xmlns:dc="http://purl.org/dc/elements/1.1/"
   xmlns:cc="http://creativecommons.org/ns#"
   xmlns:rdf="http://www.w3.org/1999/02/22-rdf-syntax-ns#"
   xmlns:svg="http://www.w3.org/2000/svg"
   xmlns="http://www.w3.org/2000/svg"
   xmlns:sodipodi="http://sodipodi.sourceforge.net/DTD/sodipodi-0.dtd"
   xmlns:inkscape="http://www.inkscape.org/namespaces/inkscape"
   sodipodi:docname="ShengShou 6x6.svg"
   inkscape:version="1.0beta2 (2b71d25, 2019-12-03)"
   id="svg8"
   version="1.1"
   viewBox="0 0 63.137512 63.137516"
   height="63.137516mm"
   width="63.137512mm">
  <defs
     id="defs2" />
  <sodipodi:namedview
     inkscape:window-maximized="0"
     inkscape:window-y="23"
     inkscape:window-x="0"
     inkscape:window-height="775"
     inkscape:window-width="1440"
     fit-margin-bottom="0"
     fit-margin-right="0"
     fit-margin-left="0"
     fit-margin-top="0"
     inkscape:snap-bbox="true"
     showgrid="false"
     inkscape:document-rotation="0"
     inkscape:current-layer="layer1"
     inkscape:document-units="mm"
     inkscape:cy="150.97649"
     inkscape:cx="-47.72887"
     inkscape:zoom="1.1275568"
     inkscape:pageshadow="2"
     inkscape:pageopacity="0.0"
     borderopacity="1.0"
     bordercolor="#666666"
     pagecolor="#ffffff"
     id="base" />
  <metadata
     id="metadata5">
    <rdf:RDF>
      <cc:Work
         rdf:about="">
        <dc:format>image/svg+xml</dc:format>
        <dc:type
           rdf:resource="http://purl.org/dc/dcmitype/StillImage" />
        <dc:title></dc:title>
      </cc:Work>
    </rdf:RDF>
  </metadata>
  <g
     transform="translate(-23.111965,-23.046638)"
     id="layer1"
     inkscape:groupmode="layer"
     inkscape:label="Layer 1">
    <path
       transform="matrix(0.26458333,0,0,0.26458333,23.111965,23.046638)"
       d="M 5.2382812 0 C 2.3365641 0 0 2.3365641 0 5.2382812 L 0 29.533203 C 0 32.43492 2.3365641 34.771484 5.2382812 34.771484 L 29.533203 34.771484 C 32.43492 34.771484 34.771484 32.43492 34.771484 29.533203 L 34.771484 5.2382812 C 34.771484 2.3365641 32.43492 0 29.533203 0 L 5.2382812 0 z M 46.009766 0 C 43.108048 0 40.771484 2.3365641 40.771484 5.2382812 L 40.771484 29.533203 C 40.771484 32.43492 43.108048 34.771484 46.009766 34.771484 L 70.304688 34.771484 C 73.206405 34.771484 75.542969 32.43492 75.542969 29.533203 L 75.542969 5.2382812 C 75.542969 2.3365641 73.206405 0 70.304688 0 L 46.009766 0 z M 86.78125 0 C 83.879533 0 81.542969 2.3365641 81.542969 5.2382812 L 81.542969 29.533203 C 81.542969 32.43492 83.879533 34.771484 86.78125 34.771484 L 111.07812 34.771484 C 113.97984 34.771484 116.31445 32.43492 116.31445 29.533203 L 116.31445 5.2382812 C 116.31445 2.3365641 113.97984 0 111.07812 0 L 86.78125 0 z M 127.55273 0 C 124.65102 0 122.31445 2.3365641 122.31445 5.2382812 L 122.31445 29.533203 C 122.31445 32.43492 124.65102 34.771484 127.55273 34.771484 L 151.84961 34.771484 C 154.75133 34.771484 157.08594 32.43492 157.08594 29.533203 L 157.08594 5.2382812 C 157.08594 2.3365641 154.75133 0 151.84961 0 L 127.55273 0 z M 168.32422 0 C 165.42251 0 163.08594 2.3365641 163.08594 5.2382812 L 163.08594 29.533203 C 163.08594 32.43492 165.42251 34.771484 168.32422 34.771484 L 192.62109 34.771484 C 195.52281 34.771484 197.85742 32.43492 197.85742 29.533203 L 197.85742 5.2382812 C 197.85742 2.3365641 195.52281 0 192.62109 0 L 168.32422 0 z M 209.0957 0 C 206.19399 0 203.85742 2.3365641 203.85742 5.2382812 L 203.85742 29.533203 C 203.85742 32.43492 206.19399 34.771484 209.0957 34.771484 L 233.39258 34.771484 C 236.29429 34.771484 238.63086 32.43492 238.63086 29.533203 L 238.63086 5.2382812 C 238.63086 2.3365641 236.29429 0 233.39258 0 L 209.0957 0 z M 5.2382812 40.771484 C 2.3365641 40.771484 0 43.108048 0 46.009766 L 0 70.304688 C 0 73.206405 2.3365641 75.542969 5.2382812 75.542969 L 29.533203 75.542969 C 32.43492 75.542969 34.771484 73.206405 34.771484 70.304688 L 34.771484 46.009766 C 34.771484 43.108048 32.43492 40.771484 29.533203 40.771484 L 5.2382812 40.771484 z M 46.009766 40.771484 C 43.108048 40.771484 40.771484 43.108048 40.771484 46.009766 L 40.771484 70.304688 C 40.771484 73.206405 43.108048 75.542969 46.009766 75.542969 L 70.304688 75.542969 C 73.206405 75.542969 75.542969 73.206405 75.542969 70.304688 L 75.542969 46.009766 C 75.542969 43.108048 73.206405 40.771484 70.304688 40.771484 L 46.009766 40.771484 z M 86.78125 40.771484 C 83.879533 40.771484 81.542969 43.108048 81.542969 46.009766 L 81.542969 70.304688 C 81.542969 73.206405 83.879533 75.542969 86.78125 75.542969 L 111.07812 75.542969 C 113.97984 75.542969 116.31445 73.206405 116.31445 70.304688 L 116.31445 46.009766 C 116.31445 43.108048 113.97984 40.771484 111.07812 40.771484 L 86.78125 40.771484 z M 127.55273 40.771484 C 124.65102 40.771484 122.31445 43.108048 122.31445 46.009766 L 122.31445 70.304688 C 122.31445 73.206405 124.65102 75.542969 127.55273 75.542969 L 151.84961 75.542969 C 154.75133 75.542969 157.08594 73.206405 157.08594 70.304688 L 157.08594 46.009766 C 157.08594 43.108048 154.75133 40.771484 151.84961 40.771484 L 127.55273 40.771484 z M 168.32422 40.771484 C 165.42251 40.771484 163.08594 43.108048 163.08594 46.009766 L 163.08594 70.304688 C 163.08594 73.206405 165.42251 75.542969 168.32422 75.542969 L 192.62109 75.542969 C 195.52281 75.542969 197.85742 73.206405 197.85742 70.304688 L 197.85742 46.009766 C 197.85742 43.108048 195.52281 40.771484 192.62109 40.771484 L 168.32422 40.771484 z M 209.0957 40.771484 C 206.19399 40.771484 203.85742 43.108048 203.85742 46.009766 L 203.85742 70.304688 C 203.85742 73.206405 206.19399 75.542969 209.0957 75.542969 L 233.39258 75.542969 C 236.29429 75.542969 238.63086 73.206405 238.63086 70.304688 L 238.63086 46.009766 C 238.63086 43.108048 236.29429 40.771484 233.39258 40.771484 L 209.0957 40.771484 z M 5.2382812 81.542969 C 2.3365641 81.542969 0 83.879533 0 86.78125 L 0 111.07812 C 0 113.97984 2.3365641 116.31445 5.2382812 116.31445 L 29.533203 116.31445 C 32.43492 116.31445 34.771484 113.97984 34.771484 111.07812 L 34.771484 86.78125 C 34.771484 83.879533 32.43492 81.542969 29.533203 81.542969 L 5.2382812 81.542969 z M 46.009766 81.542969 C 43.108048 81.542969 40.771484 83.879533 40.771484 86.78125 L 40.771484 111.07812 C 40.771484 113.97984 43.108048 116.31445 46.009766 116.31445 L 70.304688 116.31445 C 73.206405 116.31445 75.542969 113.97984 75.542969 111.07812 L 75.542969 86.78125 C 75.542969 83.879533 73.206405 81.542969 70.304688 81.542969 L 46.009766 81.542969 z M 86.78125 81.542969 C 83.879533 81.542969 81.542969 83.879533 81.542969 86.78125 L 81.542969 111.07812 C 81.542969 113.97984 83.879533 116.31445 86.78125 116.31445 L 111.07812 116.31445 C 113.97984 116.31445 116.31445 113.97984 116.31445 111.07812 L 116.31445 86.78125 C 116.31445 83.879533 113.97984 81.542969 111.07812 81.542969 L 86.78125 81.542969 z M 127.55273 81.542969 C 124.65102 81.542969 122.31445 83.879533 122.31445 86.78125 L 122.31445 111.07812 C 122.31445 113.97984 124.65102 116.31445 127.55273 116.31445 L 151.84961 116.31445 C 154.75133 116.31445 157.08594 113.97984 157.08594 111.07812 L 157.08594 86.78125 C 157.08594 83.879533 154.75133 81.542969 151.84961 81.542969 L 127.55273 81.542969 z M 168.32422 81.542969 C 165.42251 81.542969 163.08594 83.879533 163.08594 86.78125 L 163.08594 111.07812 C 163.08594 113.97984 165.42251 116.31445 168.32422 116.31445 L 192.62109 116.31445 C 195.52281 116.31445 197.85742 113.97984 197.85742 111.07812 L 197.85742 86.78125 C 197.85742 83.879533 195.52281 81.542969 192.62109 81.542969 L 168.32422 81.542969 z M 209.0957 81.542969 C 206.19399 81.542969 203.85742 83.879533 203.85742 86.78125 L 203.85742 111.07812 C 203.85742 113.97984 206.19399 116.31445 209.0957 116.31445 L 233.39258 116.31445 C 236.29429 116.31445 238.63086 113.97984 238.63086 111.07812 L 238.63086 86.78125 C 238.63086 83.879533 236.29429 81.542969 233.39258 81.542969 L 209.0957 81.542969 z M 5.2382812 122.31445 C 2.3365641 122.31445 0 124.65102 0 127.55273 L 0 151.84961 C 0 154.75133 2.3365641 157.08594 5.2382812 157.08594 L 29.533203 157.08594 C 32.43492 157.08594 34.771484 154.75133 34.771484 151.84961 L 34.771484 127.55273 C 34.771484 124.65102 32.43492 122.31445 29.533203 122.31445 L 5.2382812 122.31445 z M 46.009766 122.31445 C 43.108048 122.31445 40.771484 124.65102 40.771484 127.55273 L 40.771484 151.84961 C 40.771484 154.75133 43.108048 157.08594 46.009766 157.08594 L 70.304688 157.08594 C 73.206405 157.08594 75.542969 154.75133 75.542969 151.84961 L 75.542969 127.55273 C 75.542969 124.65102 73.206405 122.31445 70.304688 122.31445 L 46.009766 122.31445 z M 86.78125 122.31445 C 83.879533 122.31445 81.542969 124.65102 81.542969 127.55273 L 81.542969 151.84961 C 81.542969 154.75133 83.879533 157.08594 86.78125 157.08594 L 111.07812 157.08594 C 113.97984 157.08594 116.31445 154.75133 116.31445 151.84961 L 116.31445 127.55273 C 116.31445 124.65102 113.97984 122.31445 111.07812 122.31445 L 86.78125 122.31445 z M 127.55273 122.31445 C 124.65102 122.31445 122.31445 124.65102 122.31445 127.55273 L 122.31445 151.84961 C 122.31445 154.75133 124.65102 157.08594 127.55273 157.08594 L 151.84961 157.08594 C 154.75133 157.08594 157.08594 154.75133 157.08594 151.84961 L 157.08594 127.55273 C 157.08594 124.65102 154.75133 122.31445 151.84961 122.31445 L 127.55273 122.31445 z M 168.32422 122.31445 C 165.42251 122.31445 163.08594 124.65102 163.08594 127.55273 L 163.08594 151.84961 C 163.08594 154.75133 165.42251 157.08594 168.32422 157.08594 L 192.62109 157.08594 C 195.52281 157.08594 197.85742 154.75133 197.85742 151.84961 L 197.85742 127.55273 C 197.85742 124.65102 195.52281 122.31445 192.62109 122.31445 L 168.32422 122.31445 z M 209.0957 122.31445 C 206.19399 122.31445 203.85742 124.65102 203.85742 127.55273 L 203.85742 151.84961 C 203.85742 154.75133 206.19399 157.08594 209.0957 157.08594 L 233.39258 157.08594 C 236.29429 157.08594 238.63086 154.75133 238.63086 151.84961 L 238.63086 127.55273 C 238.63086 124.65102 236.29429 122.31445 233.39258 122.31445 L 209.0957 122.31445 z M 5.2382812 163.08594 C 2.3365641 163.08594 0 165.4225 0 168.32422 L 0 192.62109 C 0 195.52281 2.3365641 197.85742 5.2382812 197.85742 L 29.533203 197.85742 C 32.43492 197.85742 34.771484 195.52281 34.771484 192.62109 L 34.771484 168.32422 C 34.771484 165.4225 32.43492 163.08594 29.533203 163.08594 L 5.2382812 163.08594 z M 46.009766 163.08594 C 43.108048 163.08594 40.771484 165.4225 40.771484 168.32422 L 40.771484 192.62109 C 40.771484 195.52281 43.108048 197.85742 46.009766 197.85742 L 70.304688 197.85742 C 73.206405 197.85742 75.542969 195.52281 75.542969 192.62109 L 75.542969 168.32422 C 75.542969 165.4225 73.206405 163.08594 70.304688 163.08594 L 46.009766 163.08594 z M 86.78125 163.08594 C 83.879533 163.08594 81.542969 165.4225 81.542969 168.32422 L 81.542969 192.62109 C 81.542969 195.52281 83.879533 197.85742 86.78125 197.85742 L 111.07812 197.85742 C 113.97984 197.85742 116.31445 195.52281 116.31445 192.62109 L 116.31445 168.32422 C 116.31445 165.4225 113.97984 163.08594 111.07812 163.08594 L 86.78125 163.08594 z M 127.55273 163.08594 C 124.65102 163.08594 122.31445 165.4225 122.31445 168.32422 L 122.31445 192.62109 C 122.31445 195.52281 124.65102 197.85742 127.55273 197.85742 L 151.84961 197.85742 C 154.75133 197.85742 157.08594 195.52281 157.08594 192.62109 L 157.08594 168.32422 C 157.08594 165.4225 154.75133 163.08594 151.84961 163.08594 L 127.55273 163.08594 z M 168.32422 163.08594 C 165.42251 163.08594 163.08594 165.4225 163.08594 168.32422 L 163.08594 192.62109 C 163.08594 195.52281 165.42251 197.85742 168.32422 197.85742 L 192.62109 197.85742 C 195.52281 197.85742 197.85742 195.52281 197.85742 192.62109 L 197.85742 168.32422 C 197.85742 165.4225 195.52281 163.08594 192.62109 163.08594 L 168.32422 163.08594 z M 209.0957 163.08594 C 206.19399 163.08594 203.85742 165.4225 203.85742 168.32422 L 203.85742 192.62109 C 203.85742 195.52281 206.19399 197.85742 209.0957 197.85742 L 233.39258 197.85742 C 236.29429 197.85742 238.63086 195.52281 238.63086 192.62109 L 238.63086 168.32422 C 238.63086 165.4225 236.29429 163.08594 233.39258 163.08594 L 209.0957 163.08594 z M 5.2382812 203.85742 C 2.3365641 203.85742 0 206.19399 0 209.0957 L 0 233.39258 C 0 236.2943 2.3365641 238.63086 5.2382812 238.63086 L 29.533203 238.63086 C 32.43492 238.63086 34.771484 236.2943 34.771484 233.39258 L 34.771484 209.0957 C 34.771484 206.19399 32.43492 203.85742 29.533203 203.85742 L 5.2382812 203.85742 z M 46.009766 203.85742 C 43.108048 203.85742 40.771484 206.19399 40.771484 209.0957 L 40.771484 233.39258 C 40.771484 236.2943 43.108048 238.63086 46.009766 238.63086 L 70.304688 238.63086 C 73.206405 238.63086 75.542969 236.2943 75.542969 233.39258 L 75.542969 209.0957 C 75.542969 206.19399 73.206405 203.85742 70.304688 203.85742 L 46.009766 203.85742 z M 86.78125 203.85742 C 83.879533 203.85742 81.542969 206.19399 81.542969 209.0957 L 81.542969 233.39258 C 81.542969 236.2943 83.879533 238.63086 86.78125 238.63086 L 111.07812 238.63086 C 113.97984 238.63086 116.31445 236.2943 116.31445 233.39258 L 116.31445 209.0957 C 116.31445 206.19399 113.97984 203.85742 111.07812 203.85742 L 86.78125 203.85742 z M 127.55273 203.85742 C 124.65102 203.85742 122.31445 206.19399 122.31445 209.0957 L 122.31445 233.39258 C 122.31445 236.2943 124.65102 238.63086 127.55273 238.63086 L 151.84961 238.63086 C 154.75133 238.63086 157.08594 236.2943 157.08594 233.39258 L 157.08594 209.0957 C 157.08594 206.19399 154.75133 203.85742 151.84961 203.85742 L 127.55273 203.85742 z M 168.32422 203.85742 C 165.42251 203.85742 163.08594 206.19399 163.08594 209.0957 L 163.08594 233.39258 C 163.08594 236.2943 165.42251 238.63086 168.32422 238.63086 L 192.62109 238.63086 C 195.52281 238.63086 197.85742 236.2943 197.85742 233.39258 L 197.85742 209.0957 C 197.85742 206.19399 195.52281 203.85742 192.62109 203.85742 L 168.32422 203.85742 z M 209.0957 203.85742 C 206.19399 203.85742 203.85742 206.19399 203.85742 209.0957 L 203.85742 233.39258 C 203.85742 236.2943 206.19399 238.63086 209.0957 238.63086 L 233.39258 238.63086 C 236.29429 238.63086 238.63086 236.2943 238.63086 233.39258 L 238.63086 209.0957 C 238.63086 206.19399 236.29429 203.85742 233.39258 203.85742 L 209.0957 203.85742 z "
       style="opacity:0.98;fill:#000000;fill-opacity:1;stroke:none;stroke-width:4.87888;stroke-dashoffset:43.2;paint-order:stroke fill markers"
       id="rect931" />
  </g>
</svg>
