<?xml version="1.0" encoding="UTF-8" standalone="no"?>
<svg
   xmlns:dc="http://purl.org/dc/elements/1.1/"
   xmlns:cc="http://creativecommons.org/ns#"
   xmlns:rdf="http://www.w3.org/1999/02/22-rdf-syntax-ns#"
   xmlns:svg="http://www.w3.org/2000/svg"
   xmlns="http://www.w3.org/2000/svg"
   xmlns:sodipodi="http://sodipodi.sourceforge.net/DTD/sodipodi-0.dtd"
   xmlns:inkscape="http://www.inkscape.org/namespaces/inkscape"
   sodipodi:docname="ShengShou Gigaminx.svg"
   inkscape:version="1.0beta2 (2b71d25, 2019-12-03)"
   id="svg8"
   version="1.1"
   viewBox="0 0 63.165653 60.074371"
   height="60.074371mm"
   width="63.165653mm">
  <defs
     id="defs2">
    <inkscape:path-effect
       hide_knots="false"
       only_selected="false"
       apply_with_radius="true"
       apply_no_radius="true"
       use_knot_distance="true"
       flexible="false"
       chamfer_steps="1"
       radius="9"
       mode="F"
       method="auto"
       unit="px"
       satellites_param="F,0,0,1,0,2.38125,0,1 @ F,0,0,1,0,2.38125,0,1 @ F,0,0,1,0,2.38125,0,1 @ F,0,0,1,0,2.38125,0,1 | F,0,0,1,0,2.38125,0,1 @ F,0,0,1,0,2.38125,0,1 @ F,0,0,1,0,2.38125,0,1 @ F,0,0,1,0,2.38125,0,1 @ F,0,0,1,0,2.38125,0,1 | F,0,0,1,0,2.38125,0,1 @ F,0,0,1,0,2.38125,0,1 @ F,0,0,1,0,2.38125,0,1 @ F,0,0,1,0,2.38125,0,1 | F,0,0,1,0,2.38125,0,1 @ F,0,0,1,0,2.38125,0,1 @ F,0,0,1,0,2.38125,0,1 @ F,0,0,1,0,2.38125,0,1 | F,0,0,1,0,2.38125,0,1 @ F,0,0,1,0,2.38125,0,1 @ F,0,0,1,0,2.38125,0,1 @ F,0,0,1,0,2.38125,0,1 | F,0,0,1,0,2.38125,0,1 @ F,0,0,1,0,2.38125,0,1 @ F,0,0,1,0,2.38125,0,1 @ F,0,0,1,0,2.38125,0,1 | F,0,0,1,0,2.38125,0,1 @ F,0,0,1,0,2.38125,0,1 @ F,0,0,1,0,2.38125,0,1 @ F,0,0,1,0,2.38125,0,1 | F,0,0,1,0,2.38125,0,1 @ F,0,0,1,0,2.38125,0,1 @ F,0,0,1,0,2.38125,0,1 @ F,0,0,1,0,2.38125,0,1 @ F,0,0,1,0,2.38125,0,1 | F,0,0,1,0,2.38125,0,1 @ F,0,0,1,0,2.38125,0,1 @ F,0,0,1,0,2.38125,0,1 @ F,0,0,1,0,2.38125,0,1 | F,0,0,1,0,2.38125,0,1 @ F,0,0,1,0,2.38125,0,1 @ F,0,0,1,0,2.38125,0,1 @ F,0,0,1,0,2.38125,0,1 | F,0,0,1,0,2.38125,0,1 @ F,0,0,1,0,2.38125,0,1 @ F,0,0,1,0,2.38125,0,1 @ F,0,0,1,0,2.38125,0,1 | F,0,0,1,0,2.38125,0,1 @ F,0,0,1,0,2.38125,0,1 @ F,0,0,1,0,2.38125,0,1 @ F,0,0,1,0,2.38125,0,1 | F,0,0,1,0,2.38125,0,1 @ F,0,0,1,0,2.38125,0,1 @ F,0,0,1,0,2.38125,0,1 @ F,0,0,1,0,2.38125,0,1 | F,0,0,1,0,2.38125,0,1 @ F,0,0,1,0,2.38125,0,1 @ F,0,0,1,0,2.38125,0,1 @ F,0,0,1,0,2.38125,0,1 | F,0,0,1,0,2.38125,0,1 @ F,0,0,1,0,2.38125,0,1 @ F,0,0,1,0,2.38125,0,1 @ F,0,0,1,0,2.38125,0,1 @ F,0,0,1,0,2.38125,0,1 | F,0,0,1,0,2.38125,0,1 @ F,0,0,1,0,2.38125,0,1 @ F,0,0,1,0,2.38125,0,1 @ F,0,0,1,0,2.38125,0,1 | F,0,0,1,0,2.38125,0,1 @ F,0,0,1,0,2.38125,0,1 @ F,0,0,1,0,2.38125,0,1 @ F,0,0,1,0,2.38125,0,1 | F,0,0,1,0,2.38125,0,1 @ F,0,0,1,0,2.38125,0,1 @ F,0,0,1,0,2.38125,0,1 @ F,0,0,1,0,2.38125,0,1 | F,0,0,1,0,2.38125,0,1 @ F,0,0,1,0,2.38125,0,1 @ F,0,0,1,0,2.38125,0,1 @ F,0,0,1,0,2.38125,0,1 @ F,0,0,1,0,2.38125,0,1 | F,0,0,1,0,2.38125,0,1 @ F,0,0,1,0,2.38125,0,1 @ F,0,0,1,0,2.38125,0,1 @ F,0,0,1,0,2.38125,0,1 | F,0,0,1,0,2.38125,0,1 @ F,0,0,1,0,2.38125,0,1 @ F,0,0,1,0,2.38125,0,1 @ F,0,0,1,0,2.38125,0,1 | F,0,0,1,0,2.38125,0,1 @ F,0,0,1,0,2.38125,0,1 @ F,0,0,1,0,2.38125,0,1 @ F,0,0,1,0,2.38125,0,1 | F,0,0,1,0,2.38125,0,1 @ F,0,0,1,0,2.38125,0,1 @ F,0,0,1,0,2.38125,0,1 @ F,0,0,1,0,2.38125,0,1 | F,0,0,1,0,2.38125,0,1 @ F,0,0,1,0,2.38125,0,1 @ F,0,0,1,0,2.38125,0,1 @ F,0,0,1,0,2.38125,0,1 | F,0,0,1,0,2.38125,0,1 @ F,0,0,1,0,2.38125,0,1 @ F,0,0,1,0,2.38125,0,1 @ F,0,0,1,0,2.38125,0,1 | F,0,0,1,0,2.38125,0,1 @ F,0,0,1,0,2.38125,0,1 @ F,0,0,1,0,2.38125,0,1 @ F,0,0,1,0,2.38125,0,1 | F,0,0,1,0,2.38125,0,1 @ F,0,0,1,0,2.38125,0,1 @ F,0,0,1,0,2.38125,0,1 @ F,0,0,1,0,2.38125,0,1 | F,0,0,1,0,2.38125,0,1 @ F,0,0,1,0,2.38125,0,1 @ F,0,0,1,0,2.38125,0,1 @ F,0,0,1,0,2.38125,0,1 | F,0,0,1,0,2.38125,0,1 @ F,0,0,1,0,2.38125,0,1 @ F,0,0,1,0,2.38125,0,1 @ F,0,0,1,0,2.38125,0,1 | F,0,0,1,0,2.38125,0,1 @ F,0,0,1,0,2.38125,0,1 @ F,0,0,1,0,2.38125,0,1 @ F,0,0,1,0,2.38125,0,1 | F,0,0,1,0,2.38125,0,1 @ F,0,0,1,0,2.38125,0,1 @ F,0,0,1,0,2.38125,0,1 @ F,0,0,1,0,2.38125,0,1"
       lpeversion="1"
       is_visible="true"
       id="path-effect2085"
       effect="fillet_chamfer" />
  </defs>
  <sodipodi:namedview
     showguides="false"
     fit-margin-bottom="0"
     fit-margin-right="0"
     fit-margin-left="0"
     fit-margin-top="0"
     inkscape:window-maximized="0"
     inkscape:window-y="23"
     inkscape:window-x="0"
     inkscape:window-height="773"
     inkscape:window-width="1440"
     showgrid="false"
     inkscape:document-rotation="0"
     inkscape:current-layer="layer1"
     inkscape:document-units="mm"
     inkscape:cy="185.72651"
     inkscape:cx="96.895859"
     inkscape:zoom="1.4"
     inkscape:pageshadow="2"
     inkscape:pageopacity="0.0"
     borderopacity="1.0"
     bordercolor="#666666"
     pagecolor="#ffffff"
     id="base" />
  <metadata
     id="metadata5">
    <rdf:RDF>
      <cc:Work
         rdf:about="">
        <dc:format>image/svg+xml</dc:format>
        <dc:type
           rdf:resource="http://purl.org/dc/dcmitype/StillImage" />
        <dc:title></dc:title>
      </cc:Work>
    </rdf:RDF>
  </metadata>
  <g
     transform="translate(-54.425616,-72.896324)"
     id="layer1"
     inkscape:groupmode="layer"
     inkscape:label="Layer 1">
    <path
       transform="matrix(0.26458333,0,0,0.26458333,54.425616,72.896324)"
       d="M 119.29688 0.77539062 A 3.2774137 3.2774137 0 0 0 117.44336 1.4003906 L 97.501953 15.886719 A 1.7301301 1.7301301 0 0 0 97.501953 18.6875 L 117.44336 33.173828 A 3.2774135 3.2774135 0 0 0 121.29492 33.173828 L 141.23633 18.6875 A 1.7301299 1.7301299 0 0 0 141.23633 15.886719 L 121.29492 1.4003906 A 3.2774137 3.2774137 0 0 0 119.29688 0.77539062 z M 90.361328 21.798828 A 3.2774135 3.2774135 0 0 0 88.507812 22.423828 L 68.566406 36.910156 A 1.73013 1.73013 0 0 0 68.566406 39.710938 L 88.507812 54.197266 A 3.2773927 3.2773927 0 0 0 92.359375 54.197266 L 108.30859 42.611328 A 132339.05 132339.05 0 0 1 112.16016 39.810547 L 112.30078 39.710938 A 1.7300757 1.7300757 0 0 0 112.30078 36.910156 L 92.359375 22.423828 A 3.2774135 3.2774135 0 0 0 90.361328 21.798828 z M 148.23438 21.800781 A 3.2777841 3.2777841 0 0 0 146.38086 22.425781 L 126.4375 36.910156 A 1.7299613 1.7299613 0 0 0 126.4375 39.710938 L 146.37891 54.197266 A 3.2774138 3.2774138 0 0 0 150.23047 54.197266 L 170.17188 39.710938 A 1.730103 1.730103 0 0 0 170.17188 36.910156 L 150.23242 22.425781 A 3.2777841 3.2777841 0 0 0 148.23438 21.800781 z M 177.26562 42.769531 A 3.0865764 3.0865764 0 0 0 175.31445 43.445312 L 155.37305 57.931641 A 1.730156 1.730156 0 0 0 155.37305 60.732422 L 169.85156 71.25 A 1.7300083 1.7300083 0 0 0 172.51367 70.384766 L 180.12891 46.945312 A 3.2782005 3.2782005 0 0 0 178.93945 43.279297 A 3.0865764 3.0865764 0 0 0 177.26562 42.769531 z M 61.425781 42.822266 A 3.2773593 3.2773593 0 0 0 59.572266 43.447266 A 3.0900272 3.0900272 0 0 0 58.605469 46.949219 L 66.222656 70.390625 A 1.7300889 1.7300889 0 0 0 68.884766 71.253906 L 83.365234 60.734375 A 1.7301899 1.7301899 0 0 0 83.365234 57.933594 L 63.423828 43.447266 A 3.2773593 3.2773593 0 0 0 61.425781 42.822266 z M 119.29688 42.822266 A 3.2774135 3.2774135 0 0 0 117.44336 43.447266 L 97.503906 57.933594 A 1.7301035 1.7301035 0 0 0 97.503906 60.734375 L 117.44531 75.21875 A 3.2777836 3.2777836 0 0 0 121.29688 75.21875 L 141.23828 60.734375 A 1.7299613 1.7299613 0 0 0 141.23828 57.933594 L 121.29492 43.447266 A 3.2774135 3.2774135 0 0 0 119.29688 42.822266 z M 186.89844 49.486328 A 1.730034 1.730034 0 0 0 185.27148 50.681641 L 177.65625 74.121094 A 3.2775954 3.2775954 0 0 0 178.8457 77.787109 L 198.78711 92.273438 A 1.730034 1.730034 0 0 0 201.44922 91.408203 L 209.06445 67.96875 A 3.2775954 3.2775954 0 0 0 207.875 64.302734 L 187.93359 49.816406 A 1.730034 1.730034 0 0 0 186.89844 49.486328 z M 51.78125 49.488281 A 1.730034 1.730034 0 0 0 50.802734 49.818359 L 30.861328 64.304688 A 3.2777441 3.2777441 0 0 0 29.671875 67.970703 L 35.212891 85.029297 A 25175.67 25175.67 0 0 0 36.685547 89.558594 L 37.287109 91.412109 A 1.7302996 1.7302996 0 0 0 39.949219 92.275391 L 59.890625 77.789062 A 3.2775956 3.2775956 0 0 0 61.080078 74.123047 L 53.464844 50.683594 A 1.730034 1.730034 0 0 0 51.78125 49.488281 z M 148.23242 63.84375 A 3.2773408 3.2773408 0 0 0 146.37891 64.46875 L 126.4375 78.955078 A 1.7300695 1.7300695 0 0 0 126.4375 81.755859 L 158.80078 105.26562 A 1.7301317 1.7301317 0 0 0 161.46289 104.40039 L 169.07812 80.962891 A 3.2775978 3.2775978 0 0 0 167.88867 77.296875 L 150.23047 64.46875 A 3.2773408 3.2773408 0 0 0 148.23242 63.84375 z M 90.361328 63.845703 A 3.2776749 3.2776749 0 0 0 88.507812 64.470703 L 70.847656 77.298828 A 3.2774483 3.2774483 0 0 0 69.658203 80.964844 L 77.273438 104.40234 A 1.7301144 1.7301144 0 0 0 79.935547 105.26758 L 112.30078 81.755859 A 1.7299893 1.7299893 0 0 0 112.30078 78.955078 L 92.359375 64.470703 A 3.2776749 3.2776749 0 0 0 90.361328 63.845703 z M 215.83594 70.509766 A 1.7300778 1.7300778 0 0 0 214.20898 71.705078 L 206.5918 95.144531 A 3.2771928 3.2771928 0 0 0 207.78125 98.810547 L 227.72266 113.29492 A 1.7301692 1.7301692 0 0 0 230.38477 112.42969 L 238 88.992188 A 3.2776589 3.2776589 0 0 0 236.81055 85.326172 L 216.87109 70.839844 A 1.7300778 1.7300778 0 0 0 215.83594 70.509766 z M 22.84375 70.511719 A 1.7300778 1.7300778 0 0 0 21.865234 70.841797 L 1.9257812 85.328125 A 3.2776595 3.2776595 0 0 0 0.73632812 88.994141 L 8.3515625 112.43164 A 1.7301687 1.7301687 0 0 0 11.013672 113.29688 L 30.955078 98.8125 A 3.2771932 3.2771932 0 0 0 32.144531 95.146484 L 24.527344 71.707031 A 1.7300778 1.7300778 0 0 0 22.84375 70.511719 z M 175.8457 83.501953 A 1.7300341 1.7300341 0 0 0 174.21875 84.697266 L 166.60352 108.13672 A 3.2775954 3.2775954 0 0 0 167.79297 111.80273 L 187.73438 126.28906 A 1.730034 1.730034 0 0 0 190.39648 125.42383 L 198.01172 101.98438 A 3.2775953 3.2775953 0 0 0 196.82227 98.318359 L 176.88086 83.832031 A 1.7300341 1.7300341 0 0 0 175.8457 83.501953 z M 62.833984 83.505859 A 1.7300713 1.7300713 0 0 0 61.855469 83.835938 L 41.914062 98.322266 A 3.2777425 3.2777425 0 0 0 40.724609 101.98828 L 48.337891 125.42578 A 1.7300273 1.7300273 0 0 0 51 126.29102 L 70.943359 111.80469 A 3.2773904 3.2773904 0 0 0 72.132812 108.13867 L 64.517578 84.701172 A 1.7300713 1.7300713 0 0 0 62.833984 83.505859 z M 119.29688 84.867188 A 3.2773978 3.2773978 0 0 0 117.44336 85.492188 L 81.900391 111.31445 A 3.2775175 3.2775175 0 0 0 80.710938 114.98047 L 94.285156 156.75586 A 3.2775724 3.2775724 0 0 0 97.402344 159.02148 L 141.33398 159.02148 A 3.2775301 3.2775301 0 0 0 144.45117 156.75586 L 158.02539 114.97852 A 3.2775293 3.2775293 0 0 0 156.83594 111.3125 L 121.29492 85.492188 A 3.2773978 3.2773978 0 0 0 119.29688 84.867188 z M 33.896484 104.52734 A 1.729963 1.729963 0 0 0 32.917969 104.85742 L 12.978516 119.34375 A 3.2776593 3.2776593 0 0 0 11.789062 123.00977 L 19.404297 146.44727 A 1.7300979 1.7300979 0 0 0 22.066406 147.3125 L 42.005859 132.82812 A 3.277545 3.277545 0 0 0 43.195312 129.16211 L 35.580078 105.72266 A 1.729963 1.729963 0 0 0 33.896484 104.52734 z M 204.7832 104.52734 A 1.7300976 1.7300976 0 0 0 203.15625 105.72266 L 195.54102 129.16016 A 3.2774749 3.2774749 0 0 0 196.73047 132.82617 L 216.66992 147.31055 A 1.7300976 1.7300976 0 0 0 219.33203 146.44531 L 226.94727 123.00781 A 3.2774749 3.2774749 0 0 0 225.75781 119.3418 L 205.81836 104.85742 A 1.7300976 1.7300976 0 0 0 204.7832 104.52734 z M 164.79297 117.51758 A 1.7301047 1.7301047 0 0 0 163.16602 118.71484 L 150.80664 156.75586 A 1.7301001 1.7301001 0 0 0 152.45117 159.02148 L 177.09961 159.02148 A 3.2775407 3.2775407 0 0 0 180.2168 156.75586 L 182.11719 150.90625 A 86895.01 86895.01 0 0 1 183.58984 146.375 L 186.96094 136.00195 A 3.2772022 3.2772022 0 0 0 185.77148 132.33594 L 165.82812 117.84961 A 1.7301047 1.7301047 0 0 0 164.79297 117.51758 z M 73.884766 117.51953 A 1.7300334 1.7300334 0 0 0 72.90625 117.84961 L 52.964844 132.33594 A 3.2774152 3.2774152 0 0 0 51.775391 136.00195 L 58.519531 156.75586 A 3.2776517 3.2776517 0 0 0 61.636719 159.02148 L 86.283203 159.02148 A 1.7301001 1.7301001 0 0 0 87.927734 156.75586 L 75.568359 118.71484 A 1.7300334 1.7300334 0 0 0 73.884766 117.51953 z M 44.949219 138.54297 A 1.7300783 1.7300783 0 0 0 43.970703 138.87305 L 24.029297 153.35938 A 3.2775198 3.2775198 0 0 0 22.839844 157.02539 A 3.087058 3.087058 0 0 0 25.869141 159.02148 L 50.517578 159.02148 A 1.7300551 1.7300551 0 0 0 52.162109 156.75586 L 46.632812 139.73828 A 1.7300783 1.7300783 0 0 0 44.949219 138.54297 z M 193.73047 138.54297 A 1.7300072 1.7300072 0 0 0 192.10352 139.73828 L 186.57422 156.75586 A 1.7300554 1.7300554 0 0 0 188.21875 159.02148 L 212.86523 159.02148 A 3.2775508 3.2775508 0 0 0 215.98242 156.75586 A 3.0871561 3.0871561 0 0 0 214.70508 153.35938 L 194.76562 138.87305 A 1.7300072 1.7300072 0 0 0 193.73047 138.54297 z M 27.833984 165.06641 A 1.7300994 1.7300994 0 0 0 26.189453 167.33203 L 33.804688 190.77148 A 3.2774715 3.2774715 0 0 0 36.921875 193.03711 L 61.568359 193.03711 A 1.7300994 1.7300994 0 0 0 63.212891 190.77148 L 55.597656 167.33203 A 3.2774715 3.2774715 0 0 0 52.480469 165.06641 L 27.833984 165.06641 z M 63.599609 165.06641 A 1.7299845 1.7299845 0 0 0 61.955078 167.33203 L 69.572266 190.77148 A 3.2776892 3.2776892 0 0 0 72.689453 193.03711 L 97.335938 193.03711 A 1.7300994 1.7300994 0 0 0 98.980469 190.77148 L 91.365234 167.33203 A 3.2774715 3.2774715 0 0 0 88.248047 165.06641 L 63.599609 165.06641 z M 99.367188 165.06641 A 1.7300994 1.7300994 0 0 0 97.722656 167.33203 L 105.33789 190.77148 A 3.2774716 3.2774716 0 0 0 108.45508 193.03711 L 130.2832 193.03711 A 3.2774714 3.2774714 0 0 0 133.40039 190.77148 L 141.01562 167.33203 A 1.7300995 1.7300995 0 0 0 139.37109 165.06641 L 99.367188 165.06641 z M 150.48633 165.06641 A 3.2772541 3.2772541 0 0 0 147.36914 167.33203 L 139.75586 190.77148 A 1.7302142 1.7302142 0 0 0 141.40039 193.03711 L 166.04688 193.03711 A 3.2774714 3.2774714 0 0 0 169.16406 190.77148 L 176.7793 167.33203 A 1.7300995 1.7300995 0 0 0 175.13477 165.06641 L 150.48633 165.06641 z M 186.25586 165.06641 A 3.2776887 3.2776887 0 0 0 183.13867 167.33203 L 175.52148 190.77148 A 1.7299848 1.7299848 0 0 0 177.16602 193.03711 L 201.8125 193.03711 A 3.2774714 3.2774714 0 0 0 204.92969 190.77148 L 212.54492 167.33203 A 1.7300995 1.7300995 0 0 0 210.90039 165.06641 L 186.25586 165.06641 z M 38.884766 199.08203 A 1.7300994 1.7300994 0 0 0 37.240234 201.34766 L 44.855469 224.78711 A 3.2774715 3.2774715 0 0 0 47.972656 227.05273 L 72.621094 227.05273 A 1.7300994 1.7300994 0 0 0 74.265625 224.78711 L 66.650391 201.34766 A 3.2774715 3.2774715 0 0 0 63.533203 199.08203 L 38.884766 199.08203 z M 74.652344 199.08203 A 1.7300994 1.7300994 0 0 0 73.007812 201.34766 L 80.623047 224.78711 A 3.2774715 3.2774715 0 0 0 83.740234 227.05273 L 108.38867 227.05273 A 1.7300995 1.7300995 0 0 0 110.0332 224.78711 L 102.41797 201.34766 A 3.2774714 3.2774714 0 0 0 99.300781 199.08203 L 74.652344 199.08203 z M 110.41992 199.08203 A 1.7300995 1.7300995 0 0 0 108.77539 201.34766 L 116.39062 224.78711 A 3.2774714 3.2774714 0 0 0 119.50781 227.05273 A 3.0892054 3.0892054 0 0 0 122.34766 224.78711 L 129.96289 201.34766 A 1.7300995 1.7300995 0 0 0 128.31836 199.08203 L 110.41992 199.08203 z M 139.43555 199.08203 A 3.2774714 3.2774714 0 0 0 136.31836 201.34766 L 128.70312 224.78711 A 1.7300995 1.7300995 0 0 0 130.34766 227.05273 L 154.99609 227.05273 A 3.2774714 3.2774714 0 0 0 158.11328 224.78711 L 165.72852 201.34766 A 1.7300995 1.7300995 0 0 0 164.08398 199.08203 L 139.43555 199.08203 z M 175.20312 199.08203 A 3.2774714 3.2774714 0 0 0 172.08594 201.34766 L 164.4707 224.78711 A 1.7300995 1.7300995 0 0 0 166.11523 227.05273 L 190.76172 227.05273 A 3.2774714 3.2774714 0 0 0 193.87891 224.78711 L 201.49414 201.34766 A 1.7300995 1.7300995 0 0 0 199.84961 199.08203 L 175.20312 199.08203 z "
       style="fill:#000000;fill-opacity:1;stroke-width:1.10821;stroke-dashoffset:43.2;paint-order:stroke fill markers"
       id="path2147" />
  </g>
</svg>
