<?xml version="1.0" encoding="UTF-8" standalone="no"?>
<svg
   xmlns:dc="http://purl.org/dc/elements/1.1/"
   xmlns:cc="http://creativecommons.org/ns#"
   xmlns:rdf="http://www.w3.org/1999/02/22-rdf-syntax-ns#"
   xmlns:svg="http://www.w3.org/2000/svg"
   xmlns="http://www.w3.org/2000/svg"
   xmlns:sodipodi="http://sodipodi.sourceforge.net/DTD/sodipodi-0.dtd"
   xmlns:inkscape="http://www.inkscape.org/namespaces/inkscape"
   sodipodi:docname="ShengShou 5x5.svg"
   inkscape:version="1.0beta2 (2b71d25, 2019-12-03)"
   id="svg8"
   version="1.1"
   viewBox="0 0 56.96666 56.96666"
   height="56.96666mm"
   width="56.96666mm">
  <defs
     id="defs2" />
  <sodipodi:namedview
     inkscape:window-maximized="0"
     inkscape:window-y="23"
     inkscape:window-x="0"
     inkscape:window-height="775"
     inkscape:window-width="1440"
     fit-margin-bottom="0"
     fit-margin-right="0"
     fit-margin-left="0"
     fit-margin-top="0"
     inkscape:snap-bbox="true"
     showgrid="false"
     inkscape:document-rotation="0"
     inkscape:current-layer="layer1"
     inkscape:document-units="mm"
     inkscape:cy="150.97649"
     inkscape:cx="57.912139"
     inkscape:zoom="1.1275568"
     inkscape:pageshadow="2"
     inkscape:pageopacity="0.0"
     borderopacity="1.0"
     bordercolor="#666666"
     pagecolor="#ffffff"
     id="base" />
  <metadata
     id="metadata5">
    <rdf:RDF>
      <cc:Work
         rdf:about="">
        <dc:format>image/svg+xml</dc:format>
        <dc:type
           rdf:resource="http://purl.org/dc/dcmitype/StillImage" />
        <dc:title></dc:title>
      </cc:Work>
    </rdf:RDF>
  </metadata>
  <g
     transform="translate(-23.111965,-23.046639)"
     id="layer1"
     inkscape:groupmode="layer"
     inkscape:label="Layer 1">
    <path
       transform="matrix(0.26458333,0,0,0.26458333,23.111965,23.046639)"
       d="M 5.6933594 0 C 2.5393172 0 0 2.5393209 0 5.6933594 L 0 32.101562 C 0 35.255601 2.5393172 37.794922 5.6933594 37.794922 L 32.101562 37.794922 C 35.255605 37.794922 37.794922 35.255601 37.794922 32.101562 L 37.794922 5.6933594 C 37.794922 2.5393209 35.255605 0 32.101562 0 L 5.6933594 0 z M 50.070312 0 C 46.916274 0 44.378906 2.5393209 44.378906 5.6933594 L 44.378906 32.101562 C 44.378906 35.255601 46.916274 37.794922 50.070312 37.794922 L 76.480469 37.794922 C 79.634507 37.794922 82.173828 35.255601 82.173828 32.101562 L 82.173828 5.6933594 C 82.173828 2.5393209 79.634507 0 76.480469 0 L 50.070312 0 z M 94.449219 0 C 91.29518 0 88.755859 2.5393209 88.755859 5.6933594 L 88.755859 32.101562 C 88.755859 35.255601 91.29518 37.794922 94.449219 37.794922 L 120.85742 37.794922 C 124.01146 37.794922 126.55078 35.255601 126.55078 32.101562 L 126.55078 5.6933594 C 126.55078 2.5393209 124.01146 0 120.85742 0 L 94.449219 0 z M 138.82617 0 C 135.67213 0 133.13477 2.5393209 133.13477 5.6933594 L 133.13477 32.101562 C 133.13477 35.255601 135.67213 37.794922 138.82617 37.794922 L 165.23633 37.794922 C 168.39037 37.794922 170.92969 35.255601 170.92969 32.101562 L 170.92969 5.6933594 C 170.92969 2.5393209 168.39037 0 165.23633 0 L 138.82617 0 z M 183.20508 0 C 180.05104 0 177.51172 2.5393209 177.51172 5.6933594 L 177.51172 32.101562 C 177.51172 35.255601 180.05104 37.794922 183.20508 37.794922 L 209.61328 37.794922 C 212.76732 37.794922 215.30664 35.255601 215.30664 32.101562 L 215.30664 5.6933594 C 215.30664 2.5393209 212.76732 0 209.61328 0 L 183.20508 0 z M 5.6933594 44.378906 C 2.5393172 44.378906 0 46.916274 0 50.070312 L 0 76.480469 C 0 79.634507 2.5393172 82.173828 5.6933594 82.173828 L 32.101562 82.173828 C 35.255605 82.173828 37.794922 79.634507 37.794922 76.480469 L 37.794922 50.070312 C 37.794922 46.916274 35.255605 44.378906 32.101562 44.378906 L 5.6933594 44.378906 z M 50.070312 44.378906 C 46.916274 44.378906 44.378906 46.916274 44.378906 50.070312 L 44.378906 76.480469 C 44.378906 79.634507 46.916274 82.173828 50.070312 82.173828 L 76.480469 82.173828 C 79.634507 82.173828 82.173828 79.634507 82.173828 76.480469 L 82.173828 50.070312 C 82.173828 46.916274 79.634507 44.378906 76.480469 44.378906 L 50.070312 44.378906 z M 94.449219 44.378906 C 91.29518 44.378906 88.755859 46.916274 88.755859 50.070312 L 88.755859 76.480469 C 88.755859 79.634507 91.29518 82.173828 94.449219 82.173828 L 120.85742 82.173828 C 124.01146 82.173828 126.55078 79.634507 126.55078 76.480469 L 126.55078 50.070312 C 126.55078 46.916274 124.01146 44.378906 120.85742 44.378906 L 94.449219 44.378906 z M 138.82617 44.378906 C 135.67213 44.378906 133.13477 46.916274 133.13477 50.070312 L 133.13477 76.480469 C 133.13477 79.634507 135.67213 82.173828 138.82617 82.173828 L 165.23633 82.173828 C 168.39037 82.173828 170.92969 79.634507 170.92969 76.480469 L 170.92969 50.070312 C 170.92969 46.916274 168.39037 44.378906 165.23633 44.378906 L 138.82617 44.378906 z M 183.20508 44.378906 C 180.05104 44.378906 177.51172 46.916274 177.51172 50.070312 L 177.51172 76.480469 C 177.51172 79.634507 180.05104 82.173828 183.20508 82.173828 L 209.61328 82.173828 C 212.76732 82.173828 215.30664 79.634507 215.30664 76.480469 L 215.30664 50.070312 C 215.30664 46.916274 212.76732 44.378906 209.61328 44.378906 L 183.20508 44.378906 z M 5.6933594 88.755859 C 2.5393172 88.755859 0 91.29518 0 94.449219 L 0 120.85742 C 0 124.01146 2.5393172 126.55078 5.6933594 126.55078 L 32.101562 126.55078 C 35.255605 126.55078 37.794922 124.01146 37.794922 120.85742 L 37.794922 94.449219 C 37.794922 91.29518 35.255605 88.755859 32.101562 88.755859 L 5.6933594 88.755859 z M 50.070312 88.755859 C 46.916274 88.755859 44.378906 91.29518 44.378906 94.449219 L 44.378906 120.85742 C 44.378906 124.01146 46.916274 126.55078 50.070312 126.55078 L 76.480469 126.55078 C 79.634507 126.55078 82.173828 124.01146 82.173828 120.85742 L 82.173828 94.449219 C 82.173828 91.29518 79.634507 88.755859 76.480469 88.755859 L 50.070312 88.755859 z M 94.449219 88.755859 C 91.29518 88.755859 88.755859 91.29518 88.755859 94.449219 L 88.755859 120.85742 C 88.755859 124.01146 91.29518 126.55078 94.449219 126.55078 L 120.85742 126.55078 C 124.01146 126.55078 126.55078 124.01146 126.55078 120.85742 L 126.55078 94.449219 C 126.55078 91.29518 124.01146 88.755859 120.85742 88.755859 L 94.449219 88.755859 z M 138.82617 88.755859 C 135.67213 88.755859 133.13477 91.29518 133.13477 94.449219 L 133.13477 120.85742 C 133.13477 124.01146 135.67213 126.55078 138.82617 126.55078 L 165.23633 126.55078 C 168.39037 126.55078 170.92969 124.01146 170.92969 120.85742 L 170.92969 94.449219 C 170.92969 91.29518 168.39037 88.755859 165.23633 88.755859 L 138.82617 88.755859 z M 183.20508 88.755859 C 180.05104 88.755859 177.51172 91.29518 177.51172 94.449219 L 177.51172 120.85742 C 177.51172 124.01146 180.05104 126.55078 183.20508 126.55078 L 209.61328 126.55078 C 212.76732 126.55078 215.30664 124.01146 215.30664 120.85742 L 215.30664 94.449219 C 215.30664 91.29518 212.76732 88.755859 209.61328 88.755859 L 183.20508 88.755859 z M 5.6933594 133.13477 C 2.5393172 133.13477 0 135.67213 0 138.82617 L 0 165.23633 C 0 168.39037 2.5393172 170.92969 5.6933594 170.92969 L 32.101562 170.92969 C 35.255605 170.92969 37.794922 168.39037 37.794922 165.23633 L 37.794922 138.82617 C 37.794922 135.67213 35.255605 133.13477 32.101562 133.13477 L 5.6933594 133.13477 z M 50.070312 133.13477 C 46.916274 133.13477 44.378906 135.67213 44.378906 138.82617 L 44.378906 165.23633 C 44.378906 168.39037 46.916274 170.92969 50.070312 170.92969 L 76.480469 170.92969 C 79.634507 170.92969 82.173828 168.39037 82.173828 165.23633 L 82.173828 138.82617 C 82.173828 135.67213 79.634507 133.13477 76.480469 133.13477 L 50.070312 133.13477 z M 94.449219 133.13477 C 91.29518 133.13477 88.755859 135.67213 88.755859 138.82617 L 88.755859 165.23633 C 88.755859 168.39037 91.29518 170.92969 94.449219 170.92969 L 120.85742 170.92969 C 124.01146 170.92969 126.55078 168.39037 126.55078 165.23633 L 126.55078 138.82617 C 126.55078 135.67213 124.01146 133.13477 120.85742 133.13477 L 94.449219 133.13477 z M 138.82617 133.13477 C 135.67213 133.13477 133.13477 135.67213 133.13477 138.82617 L 133.13477 165.23633 C 133.13477 168.39037 135.67213 170.92969 138.82617 170.92969 L 165.23633 170.92969 C 168.39037 170.92969 170.92969 168.39037 170.92969 165.23633 L 170.92969 138.82617 C 170.92969 135.67213 168.39037 133.13477 165.23633 133.13477 L 138.82617 133.13477 z M 183.20508 133.13477 C 180.05104 133.13477 177.51172 135.67213 177.51172 138.82617 L 177.51172 165.23633 C 177.51172 168.39037 180.05104 170.92969 183.20508 170.92969 L 209.61328 170.92969 C 212.76732 170.92969 215.30664 168.39037 215.30664 165.23633 L 215.30664 138.82617 C 215.30664 135.67213 212.76732 133.13477 209.61328 133.13477 L 183.20508 133.13477 z M 5.6933594 177.51172 C 2.5393172 177.51172 0 180.05104 0 183.20508 L 0 209.61328 C 0 212.76732 2.5393172 215.30664 5.6933594 215.30664 L 32.101562 215.30664 C 35.255605 215.30664 37.794922 212.76732 37.794922 209.61328 L 37.794922 183.20508 C 37.794922 180.05104 35.255605 177.51172 32.101562 177.51172 L 5.6933594 177.51172 z M 50.070312 177.51172 C 46.916274 177.51172 44.378906 180.05104 44.378906 183.20508 L 44.378906 209.61328 C 44.378906 212.76732 46.916274 215.30664 50.070312 215.30664 L 76.480469 215.30664 C 79.634507 215.30664 82.173828 212.76732 82.173828 209.61328 L 82.173828 183.20508 C 82.173828 180.05104 79.634507 177.51172 76.480469 177.51172 L 50.070312 177.51172 z M 94.449219 177.51172 C 91.29518 177.51172 88.755859 180.05104 88.755859 183.20508 L 88.755859 209.61328 C 88.755859 212.76732 91.29518 215.30664 94.449219 215.30664 L 120.85742 215.30664 C 124.01146 215.30664 126.55078 212.76732 126.55078 209.61328 L 126.55078 183.20508 C 126.55078 180.05104 124.01146 177.51172 120.85742 177.51172 L 94.449219 177.51172 z M 138.82617 177.51172 C 135.67213 177.51172 133.13477 180.05104 133.13477 183.20508 L 133.13477 209.61328 C 133.13477 212.76732 135.67213 215.30664 138.82617 215.30664 L 165.23633 215.30664 C 168.39037 215.30664 170.92969 212.76732 170.92969 209.61328 L 170.92969 183.20508 C 170.92969 180.05104 168.39037 177.51172 165.23633 177.51172 L 138.82617 177.51172 z M 183.20508 177.51172 C 180.05104 177.51172 177.51172 180.05104 177.51172 183.20508 L 177.51172 209.61328 C 177.51172 212.76732 180.05104 215.30664 183.20508 215.30664 L 209.61328 215.30664 C 212.76732 215.30664 215.30664 212.76732 215.30664 209.61328 L 215.30664 183.20508 C 215.30664 180.05104 212.76732 177.51172 209.61328 177.51172 L 183.20508 177.51172 z "
       style="opacity:0.98;fill:#000000;fill-opacity:1;stroke:none;stroke-width:5.30313;stroke-dashoffset:43.2;paint-order:stroke fill markers"
       id="rect931" />
  </g>
</svg>
