<?xml version="1.0" encoding="UTF-8" standalone="no"?>
<svg
   xmlns:dc="http://purl.org/dc/elements/1.1/"
   xmlns:cc="http://creativecommons.org/ns#"
   xmlns:rdf="http://www.w3.org/1999/02/22-rdf-syntax-ns#"
   xmlns:svg="http://www.w3.org/2000/svg"
   xmlns="http://www.w3.org/2000/svg"
   xmlns:sodipodi="http://sodipodi.sourceforge.net/DTD/sodipodi-0.dtd"
   xmlns:inkscape="http://www.inkscape.org/namespaces/inkscape"
   sodipodi:docname="ShengShou Kilominx.svg"
   inkscape:version="1.0beta2 (2b71d25, 2019-12-03)"
   id="svg8"
   version="1.1"
   viewBox="0 0 45.473408 43.394802"
   height="43.394802mm"
   width="45.473408mm">
  <defs
     id="defs2">
    <inkscape:path-effect
       hide_knots="false"
       only_selected="false"
       apply_with_radius="true"
       apply_no_radius="true"
       use_knot_distance="true"
       flexible="true"
       chamfer_steps="1"
       radius="8"
       mode="F"
       method="auto"
       unit="px"
       satellites_param="F,1,0,1,0,0.08,0,1 @ F,1,0,1,0,0.08,0,1 @ F,1,0,1,0,0.08,0,1 @ F,1,0,1,0,0.08,0,1 @ F,1,0,1,0,0.08,0,1 @ F,1,0,1,0,0.08,0,1 | F,1,0,1,0,0.08,0,1 @ F,1,0,1,0,0.08,0,1 @ F,1,0,1,0,0.08,0,1 @ F,1,0,1,0,0.08,0,1 @ F,1,0,1,0,0.08,0,1 @ F,1,0,1,0,0.08,0,1 @ F,1,0,1,0,0.08,0,1 @ F,1,0,1,0,0.08,0,1 @ F,1,0,1,0,0.08,0,1 @ F,1,0,1,0,0.08,0,1 @ F,1,0,1,0,0.08,0,1 | F,1,0,1,0,0.08,0,1 @ F,1,0,1,0,0.08,0,1 @ F,1,0,1,0,0.08,0,1 @ F,1,0,1,0,0.08,0,1 | F,1,0,1,0,0.08,0,1 @ F,1,0,1,0,0.08,0,1 @ F,1,0,1,0,0.08,0,1 @ F,1,0,1,0,0.08,0,1 | F,1,0,1,0,0.08,0,1 @ F,1,0,1,0,0.08,0,1 @ F,1,0,1,0,0.08,0,1 @ F,1,0,1,0,0.08,0,1"
       lpeversion="1"
       is_visible="true"
       id="path-effect1017"
       effect="fillet_chamfer" />
    <inkscape:path-effect
       hide_knots="false"
       only_selected="false"
       apply_with_radius="true"
       apply_no_radius="true"
       use_knot_distance="true"
       flexible="false"
       chamfer_steps="1"
       radius="15"
       mode="F"
       method="auto"
       unit="px"
       satellites_param="F,0,0,1,0,0,0,1 @ F,0,0,1,0,0,0,1 @ F,0,0,1,0,0,0,1 @ F,0,0,1,0,0,0,1 @ F,0,0,1,0,0,0,1 @ F,0,0,1,0,0,0,1 @ F,0,0,1,0,0,0,1 @ F,0,0,1,0,0,0,1 @ F,0,0,1,0,0,0,1 @ F,0,0,1,0,0,0,1 @ F,0,0,1,0,0,0,1 @ F,0,0,1,0,0,0,1 @ F,0,0,1,0,0,0,1 @ F,0,0,1,0,0,0,1 @ F,0,0,1,0,0,0,1 @ F,0,0,1,0,0,0,1 | F,0,0,1,0,0,0,1 @ F,0,0,1,0,0,0,1 @ F,0,0,1,0,0,0,1 @ F,0,0,1,0,0,0,1 | F,0,0,1,0,0,0,1 @ F,0,0,1,0,0,0,1 @ F,0,0,1,0,0,0,1 @ F,0,0,1,0,0,0,1 | F,0,0,1,0,0,0,1 @ F,0,0,1,0,0,0,1 @ F,0,0,1,0,0,0,1 @ F,0,0,1,0,0,0,1"
       lpeversion="1"
       is_visible="true"
       id="path-effect994"
       effect="fillet_chamfer" />
  </defs>
  <sodipodi:namedview
     fit-margin-bottom="0"
     fit-margin-right="0"
     fit-margin-left="0"
     fit-margin-top="0"
     inkscape:window-maximized="1"
     inkscape:window-y="23"
     inkscape:window-x="0"
     inkscape:window-height="775"
     inkscape:window-width="1440"
     showgrid="false"
     inkscape:document-rotation="0"
     inkscape:current-layer="layer1"
     inkscape:document-units="mm"
     inkscape:cy="145.35731"
     inkscape:cx="-77.070851"
     inkscape:zoom="1.4142136"
     inkscape:pageshadow="2"
     inkscape:pageopacity="0.0"
     borderopacity="1.0"
     bordercolor="#666666"
     pagecolor="#ffffff"
     id="base" />
  <metadata
     id="metadata5">
    <rdf:RDF>
      <cc:Work
         rdf:about="">
        <dc:format>image/svg+xml</dc:format>
        <dc:type
           rdf:resource="http://purl.org/dc/dcmitype/StillImage" />
        <dc:title></dc:title>
      </cc:Work>
    </rdf:RDF>
  </metadata>
  <g
     transform="translate(-81.194419,-126.71264)"
     id="layer1"
     inkscape:groupmode="layer"
     inkscape:label="Layer 1">
    <path
       inkscape:connector-curvature="0"
       transform="scale(0.26458333)"
       d="m 392.76953,478.91406 a 5.6715621,5.6715621 0 0 0 -3.29297,1.08399 l -34.4414,25.02343 c -2.15162,1.56325 -2.61358,4.56352 -0.98243,6.66407 10.33433,13.30809 22.07869,25.45894 35.02735,36.24023 2.0437,1.70162 5.42114,1.70162 7.46484,0 13.12573,-10.92892 25.01274,-23.26678 35.44922,-36.78906 1.39053,-1.8017 0.99752,-4.36732 -0.84375,-5.70508 l -35.00781,-25.43359 a 5.6715621,5.6715621 0 0 0 -3.37305,-1.08399 z m -46.2793,33.18555 c -0.78799,0.0233 -1.57905,0.27765 -2.26953,0.7793 l -35.00586,25.43359 a 5.6715621,5.6715621 0 0 0 -2.06054,6.3418 l 13.15429,40.48828 c 0.82185,2.52937 3.53337,3.89443 6.03516,2.99219 15.85025,-5.71609 31.03605,-13.12995 45.29102,-22.11329 2.24987,-1.41785 3.29346,-4.63014 2.30664,-7.0996 -6.33795,-15.86057 -14.39778,-30.97771 -24.03321,-45.08204 -0.80238,-1.17451 -2.10464,-1.7791 -3.41797,-1.74023 z m 92.82227,0.27734 c -1.53432,-0.0451 -3.05474,0.66186 -3.98828,2.03711 -9.4633,13.94098 -17.39033,28.8652 -23.64258,44.51172 -0.9868,2.46951 0.0568,5.67981 2.30664,7.09766 14.45008,9.10609 29.85589,16.60062 45.94141,22.34765 2.14322,0.76574 4.46272,-0.40187 5.16601,-2.5664 l 13.3711,-41.15235 a 5.6715621,5.6715621 0 0 0 -2.06055,-6.34179 l -34.44141,-25.02344 c -0.80685,-0.58622 -1.73175,-0.88307 -2.65234,-0.91016 z m -61.89844,71.43946 c -17.04279,1.12656 -33.91122,4.12041 -50.30273,8.92578 -2.18398,0.64025 -3.37323,2.94874 -2.66992,5.11328 l 13.37109,41.15039 a 5.6715621,5.6715621 0 0 0 5.39453,3.91992 h 42.57031 c 2.65958,0 4.79786,-2.15631 4.71289,-4.81445 -0.53831,-16.84082 -2.89852,-33.57494 -7.03711,-49.90821 -0.65321,-2.5779 -3.38547,-4.56212 -6.03906,-4.38671 z m 30.78906,0.004 c -2.65356,-0.17537 -5.38393,1.80878 -6.0371,4.38672 -4.19509,16.55679 -6.56156,33.52541 -7.05664,50.59961 -0.0658,2.2749 1.76119,4.11914 4.0371,4.11914 h 43.26954 a 5.6715621,5.6715621 0 0 0 5.39453,-3.91992 l 13.15625,-40.48633 c 0.82186,-2.52941 -0.56877,-5.22815 -3.12305,-5.96875 -16.18295,-4.69213 -32.82785,-7.61925 -49.64063,-8.73047 z"
       style="fill:#000000;fill-opacity:1;stroke-width:1.91892;stroke-dashoffset:43.2;paint-order:stroke fill markers"
       id="path1061" />
  </g>
</svg>
