<?xml version="1.0" encoding="UTF-8" standalone="no"?>
<svg
   xmlns:dc="http://purl.org/dc/elements/1.1/"
   xmlns:cc="http://creativecommons.org/ns#"
   xmlns:rdf="http://www.w3.org/1999/02/22-rdf-syntax-ns#"
   xmlns:svg="http://www.w3.org/2000/svg"
   xmlns="http://www.w3.org/2000/svg"
   xmlns:sodipodi="http://sodipodi.sourceforge.net/DTD/sodipodi-0.dtd"
   xmlns:inkscape="http://www.inkscape.org/namespaces/inkscape"
   sodipodi:docname="ShengShou Pyraminx.svg"
   inkscape:version="1.0beta2 (2b71d25, 2019-12-03)"
   id="svg2440"
   version="1.1"
   viewBox="0 0 69.782524 60.772003"
   height="60.772003mm"
   width="69.782524mm">
  <defs
     id="defs2434">
    <inkscape:path-effect
       hide_knots="false"
       only_selected="false"
       apply_with_radius="true"
       apply_no_radius="true"
       use_knot_distance="true"
       flexible="true"
       chamfer_steps="1"
       radius="9"
       mode="F"
       method="auto"
       unit="px"
       satellites_param="F,1,0,1,0,0.09,0,1 @ F,1,0,1,0,0.09,0,1 @ F,1,0,1,0,0.09,0,1 | F,1,0,1,0,0.09,0,1 @ F,1,0,1,0,0.09,0,1 @ F,1,0,1,0,0.09,0,1 | F,1,0,1,0,0.09,0,1 @ F,1,0,1,0,0.09,0,1 @ F,1,0,1,0,0.09,0,1 | F,1,0,1,0,0.09,0,1 @ F,1,0,1,0,0.09,0,1 @ F,1,0,1,0,0.09,0,1 | F,1,0,1,0,0.09,0,1 @ F,1,0,1,0,0.09,0,1 @ F,1,0,1,0,0.09,0,1 | F,1,0,1,0,0.09,0,1 @ F,1,0,1,0,0.09,0,1 @ F,1,0,1,0,0.09,0,1 | F,1,0,1,0,0.09,0,1 @ F,1,0,1,0,0.09,0,1 @ F,1,0,1,0,0.09,0,1 | F,1,0,1,0,0.09,0,1 @ F,1,0,1,0,0.09,0,1 @ F,1,0,1,0,0.09,0,1 | F,1,0,1,0,0.09,0,1 @ F,1,0,1,0,0.09,0,1 @ F,1,0,1,0,0.09,0,1"
       lpeversion="1"
       is_visible="true"
       id="path-effect3045"
       effect="fillet_chamfer" />
  </defs>
  <sodipodi:namedview
     fit-margin-bottom="0"
     fit-margin-right="0"
     fit-margin-left="0"
     fit-margin-top="0"
     inkscape:window-maximized="0"
     inkscape:window-y="23"
     inkscape:window-x="429"
     inkscape:window-height="775"
     inkscape:window-width="1011"
     showgrid="false"
     inkscape:document-rotation="0"
     inkscape:current-layer="layer1"
     inkscape:document-units="mm"
     inkscape:cy="160.34101"
     inkscape:cx="141.25659"
     inkscape:zoom="1.4"
     inkscape:pageshadow="2"
     inkscape:pageopacity="0.0"
     borderopacity="1.0"
     bordercolor="#666666"
     pagecolor="#ffffff"
     id="base" />
  <metadata
     id="metadata2437">
    <rdf:RDF>
      <cc:Work
         rdf:about="">
        <dc:format>image/svg+xml</dc:format>
        <dc:type
           rdf:resource="http://purl.org/dc/dcmitype/StillImage" />
        <dc:title></dc:title>
      </cc:Work>
    </rdf:RDF>
  </metadata>
  <g
     transform="translate(-29.131485,-25.248007)"
     id="layer1"
     inkscape:groupmode="layer"
     inkscape:label="Layer 1">
    <path
       transform="matrix(0.26458333,0,0,0.26458333,29.131485,25.248007)"
       d="M 132.01172 0 A 4.3206542 4.3206542 0 0 0 128.29102 2.1601562 L 94.199219 61.208984 A 4.3205522 4.3205522 0 0 0 97.941406 67.689453 L 166.125 67.689453 A 4.3206043 4.3206043 0 0 0 169.86523 61.207031 L 135.77344 2.1601562 A 4.3206542 4.3206542 0 0 0 132.01172 0 z M 97.728516 73.521484 A 4.320655 4.320655 0 0 0 93.986328 80.001953 L 128.07812 139.05078 A 4.3205529 4.3205529 0 0 0 135.56055 139.05078 L 169.65234 80.001953 A 4.3206028 4.3206028 0 0 0 165.91016 73.521484 L 97.728516 73.521484 z M 178.6875 80.787109 A 4.3206043 4.3206043 0 0 0 174.96484 82.947266 L 140.875 141.99609 A 4.3206542 4.3206542 0 0 0 140.88477 146.33398 A 4.3206542 4.3206542 0 0 0 144.61719 148.47461 L 212.79883 148.47656 A 4.3205522 4.3205522 0 0 0 216.54102 141.99414 L 182.44922 82.945312 A 4.3206043 4.3206043 0 0 0 178.6875 80.787109 z M 85.017578 80.970703 A 4.3205522 4.3205522 0 0 0 81.294922 83.132812 L 47.203125 142.18164 A 4.3206043 4.3206043 0 0 0 50.947266 148.66016 L 119.12891 148.66016 A 4.3206542 4.3206542 0 0 0 122.88086 146.48242 A 4.3206542 4.3206542 0 0 0 122.86914 142.17969 L 88.779297 83.130859 A 4.3205522 4.3205522 0 0 0 85.017578 80.970703 z M 144.72266 154.55078 A 4.3205529 4.3205529 0 0 0 140.98047 161.03125 L 175.07227 220.08008 A 4.3206028 4.3206028 0 0 0 182.55664 220.07812 L 216.64648 161.03125 A 4.320655 4.320655 0 0 0 212.90625 154.55078 L 144.72266 154.55078 z M 51.052734 154.73438 A 4.3206028 4.3206028 0 0 0 47.310547 161.2168 L 81.402344 220.26367 A 4.320655 4.320655 0 0 0 88.884766 220.26367 L 122.97656 161.21484 A 4.3205529 4.3205529 0 0 0 119.23633 154.73438 L 51.052734 154.73438 z M 38.390625 161.78711 A 4.3206043 4.3206043 0 0 0 34.667969 163.94727 L 0.578125 222.99609 A 4.3206542 4.3206542 0 0 0 0.58984375 227.33398 L 0.58789062 227.33398 A 4.3206542 4.3206542 0 0 0 4.3203125 229.47461 L 72.503906 229.47656 A 4.3205522 4.3205522 0 0 0 76.244141 222.99414 L 42.152344 163.94531 A 4.3206043 4.3206043 0 0 0 38.390625 161.78711 z M 225.3125 161.9707 A 4.3205522 4.3205522 0 0 0 221.5918 164.13281 L 187.5 223.18164 A 4.3206043 4.3206043 0 0 0 191.24414 229.66016 L 259.42578 229.66016 A 4.3206542 4.3206542 0 0 0 263.17773 227.48242 A 4.3206542 4.3206542 0 0 0 263.16602 223.17969 L 229.07422 164.13086 A 4.3205522 4.3205522 0 0 0 225.3125 161.9707 z M 132.01172 162 A 4.3206542 4.3206542 0 0 0 128.29102 164.16016 L 94.199219 223.20898 A 4.3205522 4.3205522 0 0 0 97.941406 229.68945 L 166.125 229.68945 A 4.3206043 4.3206043 0 0 0 169.86523 223.20703 L 135.77344 164.16016 A 4.3206542 4.3206542 0 0 0 132.01172 162 z "
       style="fill:#000000;stroke-width:0.589194;stroke-dashoffset:43.2;paint-order:stroke fill markers"
       id="path844" />
  </g>
</svg>
