<?xml version="1.0" encoding="UTF-8" standalone="no"?>
<svg
   xmlns:dc="http://purl.org/dc/elements/1.1/"
   xmlns:cc="http://creativecommons.org/ns#"
   xmlns:rdf="http://www.w3.org/1999/02/22-rdf-syntax-ns#"
   xmlns:svg="http://www.w3.org/2000/svg"
   xmlns="http://www.w3.org/2000/svg"
   xmlns:sodipodi="http://sodipodi.sourceforge.net/DTD/sodipodi-0.dtd"
   xmlns:inkscape="http://www.inkscape.org/namespaces/inkscape"
   width="1.9675199in"
   height="1.9675198in"
   viewBox="0 0 49.975006 49.975005"
   version="1.1"
   id="svg5503"
   inkscape:version="1.0beta2 (2b71d25, 2019-12-03)"
   sodipodi:docname="generic-57mm-3x3-icon.svg">
  <defs
     id="defs5497">
    <inkscape:perspective
       sodipodi:type="inkscape:persp3d"
       inkscape:vp_x="0 : -98.525001 : 1"
       inkscape:vp_y="0 : 1000 : 0"
       inkscape:vp_z="210 : -98.525001 : 1"
       inkscape:persp3d-origin="105.00001 : -148.025 : 1"
       id="perspective6068" />
  </defs>
  <sodipodi:namedview
     units="in"
     id="base"
     pagecolor="#ffffff"
     bordercolor="#666666"
     borderopacity="1.0"
     inkscape:pageopacity="0.0"
     inkscape:pageshadow="2"
     inkscape:zoom="1.979899"
     inkscape:cx="-6.0724156"
     inkscape:cy="111.04831"
     inkscape:document-units="mm"
     inkscape:current-layer="layer1"
     inkscape:document-rotation="0"
     showgrid="false"
     fit-margin-top="0"
     fit-margin-left="0"
     fit-margin-right="0"
     fit-margin-bottom="0"
     inkscape:window-width="1440"
     inkscape:window-height="775"
     inkscape:window-x="0"
     inkscape:window-y="23"
     inkscape:window-maximized="0"
     inkscape:snap-bbox="true"
     inkscape:bbox-nodes="true" />
  <metadata
     id="metadata5500">
    <rdf:RDF>
      <cc:Work
         rdf:about="">
        <dc:format>image/svg+xml</dc:format>
        <dc:type
           rdf:resource="http://purl.org/dc/dcmitype/StillImage" />
        <dc:title></dc:title>
      </cc:Work>
    </rdf:RDF>
  </metadata>
  <g
     inkscape:label="Layer 1"
     inkscape:groupmode="layer"
     id="layer1"
     transform="translate(-16.894794,-31.813581)">
    <path
       inkscape:connector-curvature="0"
       id="rect1768"
       style="fill:#00ff00;fill-opacity:1;stroke-width:0.8;stroke-dashoffset:43.2;paint-order:stroke fill markers"
       d="m 23.388748,36.810985 c -0.829176,0 -1.496549,0.667373 -1.496549,1.496549 v 9.486553 c 0,0.829177 0.667373,1.496963 1.496549,1.496963 h 9.486553 c 0.829177,0 1.496963,-0.667786 1.496963,-1.496963 v -9.486553 c 0,-0.829176 -0.667786,-1.496549 -1.496963,-1.496549 z m 13.750065,0 c -0.829176,0 -1.496549,0.667373 -1.496549,1.496549 v 9.486553 c 0,0.829177 0.667373,1.496963 1.496549,1.496963 h 9.486553 c 0.829177,0 1.496964,-0.667786 1.496964,-1.496963 v -9.486553 c 0,-0.829176 -0.667787,-1.496549 -1.496964,-1.496549 z m 13.750066,0 c -0.829177,0 -1.496549,0.667373 -1.496549,1.496549 v 9.486553 c 0,0.829177 0.667372,1.496963 1.496549,1.496963 h 9.486553 c 0.829176,0 1.496961,-0.667786 1.496961,-1.496963 v -9.486553 c 0,-0.829176 -0.667785,-1.496549 -1.496961,-1.496549 z M 23.388748,50.56105 c -0.829176,0 -1.496549,0.667373 -1.496549,1.496549 v 9.486553 c 0,0.829177 0.667373,1.496964 1.496549,1.496964 h 9.486553 c 0.829177,-2e-6 1.496963,-0.667787 1.496963,-1.496964 v -9.486553 c 0,-0.829176 -0.667786,-1.496549 -1.496963,-1.496549 z m 13.750065,0 c -0.829176,0 -1.496549,0.667373 -1.496549,1.496549 v 9.486553 c 0,0.829177 0.667373,1.496964 1.496549,1.496964 h 9.486553 c 0.829177,-2e-6 1.496964,-0.667787 1.496964,-1.496964 v -9.486553 c 0,-0.829176 -0.667787,-1.496549 -1.496964,-1.496549 z m 13.750066,0 c -0.829177,0 -1.496549,0.667373 -1.496549,1.496549 v 9.486553 c 0,0.829177 0.667372,1.496964 1.496549,1.496964 h 9.486553 c 0.829176,-2e-6 1.496961,-0.667787 1.496961,-1.496964 v -9.486553 c 0,-0.829176 -0.667785,-1.496549 -1.496961,-1.496549 z M 23.388748,64.311116 c -0.829176,0 -1.496549,0.667372 -1.496549,1.496549 v 9.486553 c 0,0.829176 0.667373,1.496961 1.496549,1.496961 h 9.486553 c 0.829177,0 1.496963,-0.667785 1.496963,-1.496961 v -9.486553 c 0,-0.829177 -0.667786,-1.496549 -1.496963,-1.496549 z m 13.750065,0 c -0.829176,0 -1.496549,0.667372 -1.496549,1.496549 v 9.486553 c 0,0.829176 0.667373,1.496961 1.496549,1.496961 h 9.486553 c 0.829177,0 1.496964,-0.667785 1.496964,-1.496961 v -9.486553 c 0,-0.829177 -0.667787,-1.496549 -1.496964,-1.496549 z m 13.750066,0 c -0.829177,0 -1.496549,0.667372 -1.496549,1.496549 v 9.486553 c 0,0.829176 0.667372,1.496961 1.496549,1.496961 h 9.486553 c 0.829176,0 1.496961,-0.667785 1.496961,-1.496961 v -9.486553 c 0,-0.829177 -0.667785,-1.496549 -1.496961,-1.496549 z" />
  </g>
</svg>
