<?xml version="1.0" encoding="UTF-8" standalone="no"?>
<svg
   xmlns:dc="http://purl.org/dc/elements/1.1/"
   xmlns:cc="http://creativecommons.org/ns#"
   xmlns:rdf="http://www.w3.org/1999/02/22-rdf-syntax-ns#"
   xmlns:svg="http://www.w3.org/2000/svg"
   xmlns="http://www.w3.org/2000/svg"
   xmlns:sodipodi="http://sodipodi.sourceforge.net/DTD/sodipodi-0.dtd"
   xmlns:inkscape="http://www.inkscape.org/namespaces/inkscape"
   sodipodi:docname="Header.svg"
   inkscape:version="1.0beta2 (2b71d25, 2019-12-03)"
   id="svg8"
   version="1.1"
   viewBox="0 0 212.98893 20.776047"
   height="20.776047mm"
   width="212.98892mm">
  <defs
     id="defs2" />
  <sodipodi:namedview
     inkscape:window-maximized="0"
     inkscape:window-y="23"
     inkscape:window-x="0"
     inkscape:window-height="773"
     inkscape:window-width="1440"
     fit-margin-bottom="0"
     fit-margin-right="0"
     fit-margin-left="0"
     fit-margin-top="0"
     showgrid="false"
     inkscape:document-rotation="0"
     inkscape:current-layer="layer1"
     inkscape:document-units="mm"
     inkscape:cy="70.340056"
     inkscape:cx="417.0736"
     inkscape:zoom="0.7"
     inkscape:pageshadow="2"
     inkscape:pageopacity="0.0"
     borderopacity="1.0"
     bordercolor="#666666"
     pagecolor="#ffffff"
     id="base" />
  <metadata
     id="metadata5">
    <rdf:RDF>
      <cc:Work
         rdf:about="">
        <dc:format>image/svg+xml</dc:format>
        <dc:type
           rdf:resource="http://purl.org/dc/dcmitype/StillImage" />
        <dc:title></dc:title>
      </cc:Work>
    </rdf:RDF>
  </metadata>
  <g
     transform="translate(1.4944561,-138.11198)"
     id="layer1"
     inkscape:groupmode="layer"
     inkscape:label="Layer 1">
    <g
       transform="translate(0,-0.26458333)"
       style="font-size:10.5833px;line-height:1.25;font-family:'SF Pro Display';-inkscape-font-specification:'SF Pro Display';letter-spacing:0px;fill:#00ff00;fill-opacity:1;stroke-width:0.264583"
       id="text835"
       aria-label="Josie's Sticker Archive">
      <path
         id="path853"
         style="font-style:normal;font-variant:normal;font-weight:bold;font-stretch:normal;font-family:'Dogica Pixel';-inkscape-font-specification:'Dogica Pixel Bold';fill:#00ff00;fill-opacity:1;stroke-width:0.264583"
         d="m -1.4944561,138.37656 h 6.6145623 v 1.32291 H 3.7971938 v 6.61457 H 2.4742813 v 1.32291 h -3.9687374 v -1.32291 h 2.645825 v -6.61457 h -2.645825 z"
         inkscape:connector-curvature="0" />
      <path
         id="path855"
         style="font-style:normal;font-variant:normal;font-weight:bold;font-stretch:normal;font-family:'Dogica Pixel';-inkscape-font-specification:'Dogica Pixel Bold';fill:#00ff00;fill-opacity:1;stroke-width:0.264583"
         d="m 9.0888438,139.69947 h 5.2916502 v 1.32292 h 1.322912 v 5.29165 h -1.322912 v 1.32291 H 9.0888438 v -1.32291 H 7.7659314 v -5.29165 h 1.3229124 z m 1.3229122,1.32292 v 5.29165 h 2.645825 v -5.29165 z"
         inkscape:connector-curvature="0" />
      <path
         id="path857"
         style="font-style:normal;font-variant:normal;font-weight:bold;font-stretch:normal;font-family:'Dogica Pixel';-inkscape-font-specification:'Dogica Pixel Bold';fill:#00ff00;fill-opacity:1;stroke-width:0.264583"
         d="m 19.672143,139.69947 h 5.29165 v 1.32292 h -3.968737 v 1.32291 h 3.968737 v 1.32291 h 1.322913 v 2.64583 h -1.322913 v 1.32291 h -5.29165 v -1.32291 h -1.322912 v -1.32292 h 2.645825 v 1.32292 h 2.645825 v -2.64583 h -3.968738 v -1.32291 h -1.322912 v -1.32291 h 1.322912 z"
         inkscape:connector-curvature="0" />
      <path
         id="path859"
         style="font-style:normal;font-variant:normal;font-weight:bold;font-stretch:normal;font-family:'Dogica Pixel';-inkscape-font-specification:'Dogica Pixel Bold';fill:#00ff00;fill-opacity:1;stroke-width:0.264583"
         d="m 30.255443,138.37656 h 2.645825 v 1.32291 h -2.645825 z m -1.322912,2.64583 h 3.968737 v 5.29165 h 1.322912 v 1.32291 h -5.291649 v -1.32291 h 1.322912 v -3.96874 h -1.322912 z"
         inkscape:connector-curvature="0" />
      <path
         id="path861"
         style="font-style:normal;font-variant:normal;font-weight:bold;font-stretch:normal;font-family:'Dogica Pixel';-inkscape-font-specification:'Dogica Pixel Bold';fill:#00ff00;fill-opacity:1;stroke-width:0.264583"
         d="m 38.192916,139.69947 h 5.29165 v 1.32292 h 1.322913 v 2.64582 h -5.29165 v 2.64583 h 5.29165 v 1.32291 h -6.614563 v -1.32291 h -1.322912 v -5.29165 h 1.322912 z m 1.322913,1.32292 v 1.32291 h 2.645825 v -1.32291 z"
         inkscape:connector-curvature="0" />
      <path
         id="path863"
         style="font-style:normal;font-variant:normal;font-weight:bold;font-stretch:normal;font-family:'Dogica Pixel';-inkscape-font-specification:'Dogica Pixel Bold';fill:#00ff00;fill-opacity:1;stroke-width:0.264583"
         d="m 48.776218,139.69947 h 2.645825 v 2.64583 H 50.09913 v 1.32291 h -2.645825 v -1.32291 h 1.322913 z"
         inkscape:connector-curvature="0" />
      <path
         id="path865"
         style="font-style:normal;font-variant:normal;font-weight:bold;font-stretch:normal;font-family:'Dogica Pixel';-inkscape-font-specification:'Dogica Pixel Bold';fill:#00ff00;fill-opacity:1;stroke-width:0.264583"
         d="m 55.390781,139.69947 h 5.29165 v 1.32292 h -3.968738 v 1.32291 h 3.968738 v 1.32291 h 1.322912 v 2.64583 h -1.322912 v 1.32291 h -5.29165 v -1.32291 h -1.322913 v -1.32292 h 2.645825 v 1.32292 h 2.645825 v -2.64583 h -3.968737 v -1.32291 h -1.322913 v -1.32291 h 1.322913 z"
         inkscape:connector-curvature="0" />
      <path
         id="path867"
         style="font-style:normal;font-variant:normal;font-weight:bold;font-stretch:normal;font-family:'Dogica Pixel';-inkscape-font-specification:'Dogica Pixel Bold';fill:#00ff00;fill-opacity:1;stroke-width:0.264583"
         d="m 71.265728,138.37656 h 5.291649 v 1.32291 h 1.322913 v 1.32292 h -2.645825 v -1.32292 H 72.58864 v 2.64583 h 3.968737 v 1.32291 h 1.322913 v 2.64583 h -1.322913 v 1.32291 h -5.291649 v -1.32291 h -1.322913 v -1.32292 h 2.645825 v 1.32292 h 2.645825 v -2.64583 h -3.968737 v -1.32291 h -1.322913 v -2.64583 h 1.322913 z"
         inkscape:connector-curvature="0" />
      <path
         id="path869"
         style="font-style:normal;font-variant:normal;font-weight:bold;font-stretch:normal;font-family:'Dogica Pixel';-inkscape-font-specification:'Dogica Pixel Bold';fill:#00ff00;fill-opacity:1;stroke-width:0.264583"
         d="m 80.526113,138.37656 h 2.645825 v 2.64583 h 3.968737 v 1.32291 h -3.968737 v 3.96874 h 3.968737 v 1.32291 h -5.29165 v -1.32291 h -1.322912 z"
         inkscape:connector-curvature="0" />
      <path
         id="path871"
         style="font-style:normal;font-variant:normal;font-weight:bold;font-stretch:normal;font-family:'Dogica Pixel';-inkscape-font-specification:'Dogica Pixel Bold';fill:#00ff00;fill-opacity:1;stroke-width:0.264583"
         d="m 91.109416,138.37656 h 2.645825 v 1.32291 h -2.645825 z m -1.322912,2.64583 h 3.968737 v 5.29165 h 1.322913 v 1.32291 h -5.29165 v -1.32291 h 1.322912 v -3.96874 h -1.322912 z"
         inkscape:connector-curvature="0" />
      <path
         id="path873"
         style="font-style:normal;font-variant:normal;font-weight:bold;font-stretch:normal;font-family:'Dogica Pixel';-inkscape-font-specification:'Dogica Pixel Bold';fill:#00ff00;fill-opacity:1;stroke-width:0.264583"
         d="m 99.046894,139.69947 h 5.291646 v 1.32292 h 1.32292 v 1.32291 h -2.64583 v -1.32291 h -2.64582 v 5.29165 h 5.29165 v 1.32291 h -6.614566 v -1.32291 h -1.322913 v -5.29165 h 1.322913 z"
         inkscape:connector-curvature="0" />
      <path
         id="path875"
         style="font-style:normal;font-variant:normal;font-weight:bold;font-stretch:normal;font-family:'Dogica Pixel';-inkscape-font-specification:'Dogica Pixel Bold';fill:#00ff00;fill-opacity:1;stroke-width:0.264583"
         d="m 108.30728,139.69947 h 2.64582 v 2.64583 h 1.32292 v -1.32291 h 1.32291 v -1.32292 h 2.64582 v 1.32292 h -1.32291 v 1.32291 h -1.32291 v 2.64582 h 1.32291 v 1.32292 h 1.32291 v 1.32291 h -2.64582 v -1.32291 h -1.32291 v -1.32292 h -1.32292 v 2.64583 h -2.64582 z"
         inkscape:connector-curvature="0" />
      <path
         id="path877"
         style="font-style:normal;font-variant:normal;font-weight:bold;font-stretch:normal;font-family:'Dogica Pixel';-inkscape-font-specification:'Dogica Pixel Bold';fill:#00ff00;fill-opacity:1;stroke-width:0.264583"
         d="m 120.21349,139.69947 h 5.29165 v 1.32292 h 1.32291 v 2.64582 h -5.29165 v 2.64583 h 5.29165 v 1.32291 h -6.61456 v -1.32291 h -1.32291 v -5.29165 h 1.32291 z m 1.32291,1.32292 v 1.32291 h 2.64583 v -1.32291 z"
         inkscape:connector-curvature="0" />
      <path
         id="path879"
         style="font-style:normal;font-variant:normal;font-weight:bold;font-stretch:normal;font-family:'Dogica Pixel';-inkscape-font-specification:'Dogica Pixel Bold';fill:#00ff00;fill-opacity:1;stroke-width:0.264583"
         d="m 130.79679,139.69947 h 5.29165 v 1.32292 h -2.64582 v 1.32291 h -1.32291 v 5.29165 h -2.64583 v -6.61456 h 1.32291 z"
         inkscape:connector-curvature="0" />
      <path
         id="path881"
         style="font-style:normal;font-variant:normal;font-weight:bold;font-stretch:normal;font-family:'Dogica Pixel';-inkscape-font-specification:'Dogica Pixel Bold';fill:#00ff00;fill-opacity:1;stroke-width:0.264583"
         d="m 145.34883,138.37656 h 5.29165 v 1.32291 h 1.32291 v 7.93748 h -2.64583 v -2.64583 h -2.64582 v 2.64583 h -2.64583 v -7.93748 h 1.32292 z m 1.32291,1.32291 v 3.96874 h 2.64582 v -3.96874 z"
         inkscape:connector-curvature="0" />
      <path
         id="path883"
         style="font-style:normal;font-variant:normal;font-weight:bold;font-stretch:normal;font-family:'Dogica Pixel';-inkscape-font-specification:'Dogica Pixel Bold';fill:#00ff00;fill-opacity:1;stroke-width:0.264583"
         d="m 155.93212,139.69947 h 5.29165 v 1.32292 h -2.64582 v 1.32291 h -1.32291 v 5.29165 h -2.64583 v -6.61456 h 1.32291 z"
         inkscape:connector-curvature="0" />
      <path
         id="path885"
         style="font-style:normal;font-variant:normal;font-weight:bold;font-stretch:normal;font-family:'Dogica Pixel';-inkscape-font-specification:'Dogica Pixel Bold';fill:#00ff00;fill-opacity:1;stroke-width:0.264583"
         d="m 165.19252,139.69947 h 5.29165 v 1.32292 h 1.32291 v 1.32291 h -2.64583 v -1.32291 h -2.64582 v 5.29165 h 5.29165 v 1.32291 h -6.61456 v -1.32291 h -1.32292 v -5.29165 h 1.32292 z"
         inkscape:connector-curvature="0" />
      <path
         id="path887"
         style="font-style:normal;font-variant:normal;font-weight:bold;font-stretch:normal;font-family:'Dogica Pixel';-inkscape-font-specification:'Dogica Pixel Bold';fill:#00ff00;fill-opacity:1;stroke-width:0.264583"
         d="m 174.4529,138.37656 h 2.64583 v 2.64583 h 3.96873 v 1.32291 h 1.32292 v 5.29165 h -2.64583 v -5.29165 h -1.32291 v 1.32291 h -1.32291 v 3.96874 h -2.64583 z"
         inkscape:connector-curvature="0" />
      <path
         id="path889"
         style="font-style:normal;font-variant:normal;font-weight:bold;font-stretch:normal;font-family:'Dogica Pixel';-inkscape-font-specification:'Dogica Pixel Bold';fill:#00ff00;fill-opacity:1;stroke-width:0.264583"
         d="m 186.35911,138.37656 h 2.64583 v 1.32291 h -2.64583 z m -1.32291,2.64583 h 3.96874 v 5.29165 h 1.32291 v 1.32291 h -5.29165 v -1.32291 h 1.32291 v -3.96874 h -1.32291 z"
         inkscape:connector-curvature="0" />
      <path
         id="path891"
         style="font-style:normal;font-variant:normal;font-weight:bold;font-stretch:normal;font-family:'Dogica Pixel';-inkscape-font-specification:'Dogica Pixel Bold';fill:#00ff00;fill-opacity:1;stroke-width:0.264583"
         d="m 192.97367,139.69947 h 2.64582 v 3.96874 h 2.64583 v -3.96874 h 2.64582 v 3.96874 h -1.32291 v 2.64583 h -1.32291 v 1.32291 h -2.64583 v -1.32291 h -1.32291 v -2.64583 h -1.32291 z"
         inkscape:connector-curvature="0" />
      <path
         id="path893"
         style="font-style:normal;font-variant:normal;font-weight:bold;font-stretch:normal;font-family:'Dogica Pixel';-inkscape-font-specification:'Dogica Pixel Bold';fill:#00ff00;fill-opacity:1;stroke-width:0.264583"
         d="m 204.87989,139.69947 h 5.29165 v 1.32292 h 1.32292 v 2.64582 h -5.29165 v 2.64583 h 5.29165 v 1.32291 h -6.61457 v -1.32291 h -1.32291 v -5.29165 h 1.32291 z m 1.32292,1.32292 v 1.32291 h 2.64582 v -1.32291 z"
         inkscape:connector-curvature="0" />
    </g>
    <g
       transform="translate(0,0.26458334)"
       style="font-style:normal;font-variant:normal;font-weight:normal;font-stretch:normal;font-size:6.40756px;line-height:1.25;font-family:'Dogica Pixel';-inkscape-font-specification:'Dogica Pixel';letter-spacing:0px;fill:#ffffff;fill-opacity:1;stroke-width:0.160189"
       id="text839"
       aria-label="Free Twisty Puzzle Sticker Vectors">
      <path
         inkscape:connector-curvature="0"
         id="path896"
         style="font-style:normal;font-variant:normal;font-weight:normal;font-stretch:normal;font-family:'Dogica Pixel';-inkscape-font-specification:'Dogica Pixel';fill:#ffffff;fill-opacity:1;stroke-width:0.160189"
         d="m 20.9008,153.01683 h 4.004725 v 0.80094 h -3.20378 v 1.60189 h 2.402835 v 0.80095 h -2.402835 v 2.40283 H 20.9008 Z" />
      <path
         inkscape:connector-curvature="0"
         id="path898"
         style="font-style:normal;font-variant:normal;font-weight:normal;font-stretch:normal;font-family:'Dogica Pixel';-inkscape-font-specification:'Dogica Pixel';fill:#ffffff;fill-opacity:1;stroke-width:0.160189"
         d="m 26.507415,153.81777 h 0.800945 v 0.80095 h 0.800945 v 0.80094 H 27.30836 v 3.20378 h -0.800945 z m 1.60189,0.80095 v -0.80095 h 1.60189 v 0.80095 z" />
      <path
         inkscape:connector-curvature="0"
         id="path900"
         style="font-style:normal;font-variant:normal;font-weight:normal;font-stretch:normal;font-family:'Dogica Pixel';-inkscape-font-specification:'Dogica Pixel';fill:#ffffff;fill-opacity:1;stroke-width:0.160189"
         d="m 32.11403,153.81777 h 2.402835 v 0.80095 H 32.11403 Z m 2.402835,0.80095 h 0.800945 v 1.60189 h -3.20378 v 1.60189 h -0.800945 v -3.20378 h 0.800945 v 0.80094 h 2.402835 z m -2.402835,3.20378 h 3.20378 v 0.80094 h -3.20378 z" />
      <path
         inkscape:connector-curvature="0"
         id="path902"
         style="font-style:normal;font-variant:normal;font-weight:normal;font-stretch:normal;font-family:'Dogica Pixel';-inkscape-font-specification:'Dogica Pixel';fill:#ffffff;fill-opacity:1;stroke-width:0.160189"
         d="m 37.720645,153.81777 h 2.402835 v 0.80095 h -2.402835 z m 2.402835,0.80095 h 0.800945 v 1.60189 h -3.20378 v 1.60189 H 36.9197 v -3.20378 h 0.800945 v 0.80094 h 2.402835 z m -2.402835,3.20378 h 3.20378 v 0.80094 h -3.20378 z" />
      <path
         inkscape:connector-curvature="0"
         id="path904"
         style="font-style:normal;font-variant:normal;font-weight:normal;font-stretch:normal;font-family:'Dogica Pixel';-inkscape-font-specification:'Dogica Pixel';fill:#ffffff;fill-opacity:1;stroke-width:0.160189"
         d="m 45.730095,153.01683 h 4.004725 v 0.80094 h -1.60189 v 4.80567 h -0.800945 v -4.80567 h -1.60189 z" />
      <path
         inkscape:connector-curvature="0"
         id="path906"
         style="font-style:normal;font-variant:normal;font-weight:normal;font-stretch:normal;font-family:'Dogica Pixel';-inkscape-font-specification:'Dogica Pixel';fill:#ffffff;fill-opacity:1;stroke-width:0.160189"
         d="m 55.341435,153.81777 h 0.800945 v 4.00473 h -0.800945 z m 0,4.00473 v 0.80094 h -1.60189 v -0.80094 z m -1.60189,0 H 52.9386 v -3.20378 h 0.800945 z m -0.800945,0 v 0.80094 h -0.800945 v -0.80094 z m -0.800945,0 H 51.33671 v -3.20378 h 0.800945 z" />
      <path
         inkscape:connector-curvature="0"
         id="path908"
         style="font-style:normal;font-variant:normal;font-weight:normal;font-stretch:normal;font-family:'Dogica Pixel';-inkscape-font-specification:'Dogica Pixel';fill:#ffffff;fill-opacity:1;stroke-width:0.160189"
         d="m 58.545217,153.01683 h 0.800945 v 0.80094 h -0.800945 z m -0.800945,1.60189 h 1.60189 v 3.20378 h 0.800945 v 0.80094 h -2.402835 v -0.80094 h 0.800945 v -2.40284 h -0.800945 z" />
      <path
         inkscape:connector-curvature="0"
         id="path910"
         style="font-style:normal;font-variant:normal;font-weight:normal;font-stretch:normal;font-family:'Dogica Pixel';-inkscape-font-specification:'Dogica Pixel';fill:#ffffff;fill-opacity:1;stroke-width:0.160189"
         d="m 62.54994,153.81777 h 2.402834 v 0.80095 H 62.54994 Z m 0,0.80095 v 0.80094 h -0.800945 v -0.80094 z m 0,0.80094 h 2.402834 v 0.80095 H 62.54994 Z m 2.402834,0.80095 h 0.800945 v 1.60189 h -0.800945 z m 0,1.60189 v 0.80094 H 62.54994 v -0.80094 z m -2.402834,0 h -0.800945 v -0.80095 h 0.800945 z" />
      <path
         inkscape:connector-curvature="0"
         id="path912"
         style="font-style:normal;font-variant:normal;font-weight:normal;font-stretch:normal;font-family:'Dogica Pixel';-inkscape-font-specification:'Dogica Pixel';fill:#ffffff;fill-opacity:1;stroke-width:0.160189"
         d="m 67.355612,153.01683 h 0.800944 v 1.60189 h 2.402835 v 0.80094 h -2.402835 v 2.40284 h -0.800944 z m 0.800944,4.80567 h 2.402835 v 0.80094 h -2.402835 z" />
      <path
         inkscape:connector-curvature="0"
         id="path914"
         style="font-style:normal;font-variant:normal;font-weight:normal;font-stretch:normal;font-family:'Dogica Pixel';-inkscape-font-specification:'Dogica Pixel';fill:#ffffff;fill-opacity:1;stroke-width:0.160189"
         d="m 72.161279,153.81777 h 0.800945 v 2.40284 h -0.800945 z m 0.800945,2.40284 h 1.60189 v 1.60189 h -0.800945 v -0.80095 h -0.800945 z m 1.60189,0 v -2.40284 h 0.800945 v 2.40284 z m -0.800945,1.60189 v 0.80094 h -1.60189 v -0.80094 z" />
      <path
         inkscape:connector-curvature="0"
         id="path916"
         style="font-style:normal;font-variant:normal;font-weight:normal;font-stretch:normal;font-family:'Dogica Pixel';-inkscape-font-specification:'Dogica Pixel';fill:#ffffff;fill-opacity:1;stroke-width:0.160189"
         d="m 80.170728,153.01683 h 3.20378 v 0.80094 h -2.402835 v 1.60189 h 2.402835 v 0.80095 h -2.402835 v 2.40283 h -0.800945 z m 3.20378,0.80094 h 0.800945 v 1.60189 h -0.800945 z" />
      <path
         inkscape:connector-curvature="0"
         id="path918"
         style="font-style:normal;font-variant:normal;font-weight:normal;font-stretch:normal;font-family:'Dogica Pixel';-inkscape-font-specification:'Dogica Pixel';fill:#ffffff;fill-opacity:1;stroke-width:0.160189"
         d="m 85.777342,153.81777 h 0.800945 v 4.00473 h -0.800945 z m 0.800945,4.00473 h 1.601889 v 0.80094 h -1.601889 z m 1.601889,0 v -0.80095 h 0.800945 v -3.20378 h 0.800945 v 4.80567 h -0.800945 v -0.80094 z" />
      <path
         inkscape:connector-curvature="0"
         id="path920"
         style="font-style:normal;font-variant:normal;font-weight:normal;font-stretch:normal;font-family:'Dogica Pixel';-inkscape-font-specification:'Dogica Pixel';fill:#ffffff;fill-opacity:1;stroke-width:0.160189"
         d="m 91.383962,153.81777 h 3.20378 v 1.60189 h -0.800945 v -0.80094 h -2.402835 z m 2.402835,1.60189 v 0.80095 h -0.800945 v -0.80095 z m -0.800945,0.80095 v 0.80094 h -0.800945 v -0.80094 z m -0.800945,0.80094 v 0.80095 h 2.402835 v 0.80094 h -3.20378 v -1.60189 z" />
      <path
         inkscape:connector-curvature="0"
         id="path922"
         style="font-style:normal;font-variant:normal;font-weight:normal;font-stretch:normal;font-family:'Dogica Pixel';-inkscape-font-specification:'Dogica Pixel';fill:#ffffff;fill-opacity:1;stroke-width:0.160189"
         d="m 96.189626,153.81777 h 3.20378 v 1.60189 h -0.800945 v -0.80094 h -2.402835 z m 2.402835,1.60189 v 0.80095 h -0.800945 v -0.80095 z m -0.800945,0.80095 v 0.80094 h -0.800945 v -0.80094 z m -0.800945,0.80094 v 0.80095 h 2.402835 v 0.80094 h -3.20378 v -1.60189 z" />
      <path
         inkscape:connector-curvature="0"
         id="path924"
         style="font-style:normal;font-variant:normal;font-weight:normal;font-stretch:normal;font-family:'Dogica Pixel';-inkscape-font-specification:'Dogica Pixel';fill:#ffffff;fill-opacity:1;stroke-width:0.160189"
         d="m 100.9953,153.81777 h 0.80094 v 4.00473 h -0.80094 z m 0.80094,4.00473 h 1.60189 v 0.80094 h -1.60189 z" />
      <path
         inkscape:connector-curvature="0"
         id="path926"
         style="font-style:normal;font-variant:normal;font-weight:normal;font-stretch:normal;font-family:'Dogica Pixel';-inkscape-font-specification:'Dogica Pixel';fill:#ffffff;fill-opacity:1;stroke-width:0.160189"
         d="m 105.80097,153.81777 h 2.40284 v 0.80095 h -2.40284 z m 2.40284,0.80095 h 0.80094 v 1.60189 h -3.20378 v 1.60189 h -0.80094 v -3.20378 h 0.80094 v 0.80094 h 2.40284 z m -2.40284,3.20378 h 3.20378 v 0.80094 h -3.20378 z" />
      <path
         inkscape:connector-curvature="0"
         id="path928"
         style="font-style:normal;font-variant:normal;font-weight:normal;font-stretch:normal;font-family:'Dogica Pixel';-inkscape-font-specification:'Dogica Pixel';fill:#ffffff;fill-opacity:1;stroke-width:0.160189"
         d="m 114.61137,153.01683 h 2.40283 v 0.80094 h -2.40283 z m 2.40283,0.80094 h 0.80095 v 0.80095 h -0.80095 z m -2.40283,0 v 1.60189 h -0.80095 v -1.60189 z m 0,1.60189 h 2.40283 v 0.80095 h -2.40283 z m 2.40283,0.80095 h 0.80095 v 1.60189 h -0.80095 z m 0,1.60189 v 0.80094 h -2.40283 v -0.80094 z m -2.40283,0 h -0.80095 v -0.80095 h 0.80095 z" />
      <path
         inkscape:connector-curvature="0"
         id="path930"
         style="font-style:normal;font-variant:normal;font-weight:normal;font-stretch:normal;font-family:'Dogica Pixel';-inkscape-font-specification:'Dogica Pixel';fill:#ffffff;fill-opacity:1;stroke-width:0.160189"
         d="m 119.41704,153.01683 h 0.80094 v 1.60189 h 2.40284 v 0.80094 h -2.40284 v 2.40284 h -0.80094 z m 0.80094,4.80567 h 2.40284 v 0.80094 h -2.40284 z" />
      <path
         inkscape:connector-curvature="0"
         id="path932"
         style="font-style:normal;font-variant:normal;font-weight:normal;font-stretch:normal;font-family:'Dogica Pixel';-inkscape-font-specification:'Dogica Pixel';fill:#ffffff;fill-opacity:1;stroke-width:0.160189"
         d="m 125.02365,153.01683 h 0.80095 v 0.80094 h -0.80095 z m -0.80094,1.60189 h 1.60189 v 3.20378 h 0.80094 v 0.80094 h -2.40283 v -0.80094 h 0.80094 v -2.40284 h -0.80094 z" />
      <path
         inkscape:connector-curvature="0"
         id="path934"
         style="font-style:normal;font-variant:normal;font-weight:normal;font-stretch:normal;font-family:'Dogica Pixel';-inkscape-font-specification:'Dogica Pixel';fill:#ffffff;fill-opacity:1;stroke-width:0.160189"
         d="m 129.02838,153.81777 h 2.40283 v 0.80095 h -2.40283 z m 2.40283,0.80095 h 0.80094 v 0.80094 h -0.80094 z m -2.40283,0 v 3.20378 h -0.80095 v -3.20378 z m 0,3.20378 h 3.20377 v 0.80094 h -3.20377 z" />
      <path
         inkscape:connector-curvature="0"
         id="path936"
         style="font-style:normal;font-variant:normal;font-weight:normal;font-stretch:normal;font-family:'Dogica Pixel';-inkscape-font-specification:'Dogica Pixel';fill:#ffffff;fill-opacity:1;stroke-width:0.160189"
         d="m 133.83404,153.81777 h 0.80095 v 2.40284 h 0.80094 v -0.80095 h 0.80095 v 0.80095 0.80094 h -1.60189 v 1.60189 h -0.80095 z m 2.40284,1.60189 v -0.80094 h 0.80094 v 0.80094 z m 0.80094,-0.80094 v -0.80095 h 0.80095 v 0.80095 z m -0.80094,2.40283 h 0.80094 v 0.80095 h -0.80094 z m 0.80094,0.80095 h 0.80095 v 0.80094 h -0.80095 z" />
      <path
         inkscape:connector-curvature="0"
         id="path938"
         style="font-style:normal;font-variant:normal;font-weight:normal;font-stretch:normal;font-family:'Dogica Pixel';-inkscape-font-specification:'Dogica Pixel';fill:#ffffff;fill-opacity:1;stroke-width:0.160189"
         d="m 140.2416,153.81777 h 2.40284 v 0.80095 h -2.40284 z m 2.40284,0.80095 h 0.80094 v 1.60189 h -3.20378 v 1.60189 h -0.80094 v -3.20378 h 0.80094 v 0.80094 h 2.40284 z m -2.40284,3.20378 h 3.20378 v 0.80094 h -3.20378 z" />
      <path
         inkscape:connector-curvature="0"
         id="path940"
         style="font-style:normal;font-variant:normal;font-weight:normal;font-stretch:normal;font-family:'Dogica Pixel';-inkscape-font-specification:'Dogica Pixel';fill:#ffffff;fill-opacity:1;stroke-width:0.160189"
         d="m 145.04728,153.81777 h 0.80094 v 0.80095 h 0.80095 v 0.80094 h -0.80095 v 3.20378 h -0.80094 z m 1.60189,0.80095 v -0.80095 h 1.60189 v 0.80095 z" />
      <path
         inkscape:connector-curvature="0"
         id="path942"
         style="font-style:normal;font-variant:normal;font-weight:normal;font-stretch:normal;font-family:'Dogica Pixel';-inkscape-font-specification:'Dogica Pixel';fill:#ffffff;fill-opacity:1;stroke-width:0.160189"
         d="m 153.05673,153.01683 h 0.80094 v 3.20378 h -0.80094 z m 0.80094,3.20378 h 0.80095 v 1.60189 h -0.80095 z m 0.80095,1.60189 h 0.80094 v 0.80094 h -0.80094 z m 0.80094,0 v -1.60189 h 0.80095 v 1.60189 z m 0.80095,-1.60189 v -3.20378 h 0.80094 v 3.20378 z" />
      <path
         inkscape:connector-curvature="0"
         id="path944"
         style="font-style:normal;font-variant:normal;font-weight:normal;font-stretch:normal;font-family:'Dogica Pixel';-inkscape-font-specification:'Dogica Pixel';fill:#ffffff;fill-opacity:1;stroke-width:0.160189"
         d="m 159.46429,153.81777 h 2.40283 v 0.80095 h -2.40283 z m 2.40283,0.80095 h 0.80095 v 1.60189 h -3.20378 v 1.60189 h -0.80095 v -3.20378 h 0.80095 v 0.80094 h 2.40283 z m -2.40283,3.20378 h 3.20378 v 0.80094 h -3.20378 z" />
      <path
         inkscape:connector-curvature="0"
         id="path946"
         style="font-style:normal;font-variant:normal;font-weight:normal;font-stretch:normal;font-family:'Dogica Pixel';-inkscape-font-specification:'Dogica Pixel';fill:#ffffff;fill-opacity:1;stroke-width:0.160189"
         d="m 165.0709,153.81777 h 2.40284 v 0.80095 h -2.40284 z m 2.40284,0.80095 h 0.80094 v 0.80094 h -0.80094 z m -2.40284,0 v 3.20378 h -0.80094 v -3.20378 z m 0,3.20378 h 3.20378 v 0.80094 h -3.20378 z" />
      <path
         inkscape:connector-curvature="0"
         id="path948"
         style="font-style:normal;font-variant:normal;font-weight:normal;font-stretch:normal;font-family:'Dogica Pixel';-inkscape-font-specification:'Dogica Pixel';fill:#ffffff;fill-opacity:1;stroke-width:0.160189"
         d="m 169.87657,153.01683 h 0.80094 v 1.60189 h 2.40284 v 0.80094 h -2.40284 v 2.40284 h -0.80094 z m 0.80094,4.80567 h 2.40284 v 0.80094 h -2.40284 z" />
      <path
         inkscape:connector-curvature="0"
         id="path950"
         style="font-style:normal;font-variant:normal;font-weight:normal;font-stretch:normal;font-family:'Dogica Pixel';-inkscape-font-specification:'Dogica Pixel';fill:#ffffff;fill-opacity:1;stroke-width:0.160189"
         d="m 175.48318,153.81777 h 2.40283 v 0.80095 h -2.40283 z m 2.40283,0.80095 h 0.80095 v 3.20378 h -0.80095 z m 0,3.20378 v 0.80094 h -2.40283 v -0.80094 z m -2.40283,0 h -0.80095 v -3.20378 h 0.80095 z" />
      <path
         inkscape:connector-curvature="0"
         id="path952"
         style="font-style:normal;font-variant:normal;font-weight:normal;font-stretch:normal;font-family:'Dogica Pixel';-inkscape-font-specification:'Dogica Pixel';fill:#ffffff;fill-opacity:1;stroke-width:0.160189"
         d="m 180.28886,153.81777 h 0.80095 v 0.80095 h 0.80094 v 0.80094 h -0.80094 v 3.20378 h -0.80095 z m 1.60189,0.80095 v -0.80095 h 1.60189 v 0.80095 z" />
      <path
         inkscape:connector-curvature="0"
         id="path954"
         style="font-style:normal;font-variant:normal;font-weight:normal;font-stretch:normal;font-family:'Dogica Pixel';-inkscape-font-specification:'Dogica Pixel';fill:#ffffff;fill-opacity:1;stroke-width:0.160189"
         d="m 185.89547,153.81777 h 2.40284 v 0.80095 h -2.40284 z m 0,0.80095 v 0.80094 h -0.80094 v -0.80094 z m 0,0.80094 h 2.40284 v 0.80095 h -2.40284 z m 2.40284,0.80095 h 0.80094 v 1.60189 h -0.80094 z m 0,1.60189 v 0.80094 h -2.40284 v -0.80094 z m -2.40284,0 h -0.80094 v -0.80095 h 0.80094 z" />
    </g>
  </g>
</svg>
