<?xml version="1.0" encoding="UTF-8" standalone="no"?>
<svg
   xmlns:dc="http://purl.org/dc/elements/1.1/"
   xmlns:cc="http://creativecommons.org/ns#"
   xmlns:rdf="http://www.w3.org/1999/02/22-rdf-syntax-ns#"
   xmlns:svg="http://www.w3.org/2000/svg"
   xmlns="http://www.w3.org/2000/svg"
   xmlns:sodipodi="http://sodipodi.sourceforge.net/DTD/sodipodi-0.dtd"
   xmlns:inkscape="http://www.inkscape.org/namespaces/inkscape"
   sodipodi:docname="lanlan-curvy-copter-icon.svg"
   inkscape:version="1.0beta2 (2b71d25, 2019-12-03)"
   id="svg1034"
   version="1.1"
   viewBox="0 0 53.003482 53.015369"
   height="53.015369mm"
   width="53.003483mm">
  <defs
     id="defs1028">
    <inkscape:path-effect
       effect="fillet_chamfer"
       id="path-effect888"
       is_visible="true"
       lpeversion="1"
       satellites_param="F,0,0,1,0,0,0,1 @ F,0,0,1,0,0,0,1 @ F,0,0,1,0,0,0,1 @ F,0,0,1,0,0,0,1 @ F,0,0,1,0,0,0,1 @ F,0,0,1,0,0,0,1 @ F,0,0,1,0,0,0,1 | F,0,1,1,0,7.4083333,0,1 @ F,0,1,1,0,7.4083333,0,1 @ F,0,1,1,0,7.4083333,0,1 | F,0,0,1,0,0,0,1 @ F,0,0,1,0,0,0,1 @ F,0,0,1,0,0,0,1 @ F,0,0,1,0,0,0,1 | F,0,0,1,0,0,0,1 @ F,0,0,1,0,0,0,1 @ F,0,0,1,0,0,0,1 @ F,0,0,1,0,0,0,1 @ F,0,0,1,0,0,0,1 @ F,0,0,1,0,0,0,1 | F,0,0,1,0,0,0,1 @ F,0,0,1,0,0,0,1 @ F,0,0,1,0,0,0,1 @ F,0,0,1,0,0,0,1 @ F,0,0,1,0,0,0,1 @ F,0,0,1,0,0,0,1 | F,0,0,1,0,0,0,1 @ F,0,0,1,0,0,0,1 @ F,0,0,1,0,0,0,1 @ F,0,0,1,0,0,0,1 @ F,0,0,1,0,0,0,1 | F,0,0,1,0,0,0,1 @ F,0,0,1,0,0,0,1 @ F,0,0,1,0,0,0,1 | F,0,0,1,0,0,0,1 @ F,0,0,1,0,0,0,1 @ F,0,0,1,0,0,0,1 @ F,0,0,1,0,0,0,1 @ F,0,0,1,0,0,0,1 @ F,0,0,1,0,0,0,1 | F,0,0,1,0,0,0,1 @ F,0,0,1,0,0,0,1 @ F,0,0,1,0,0,0,1 @ F,0,0,1,0,0,0,1 @ F,0,0,1,0,0,0,1 @ F,0,0,1,0,0,0,1 | F,0,0,1,0,0,0,1 @ F,0,0,1,0,0,0,1 @ F,0,0,1,0,0,0,1 @ F,0,0,1,0,0,0,1 @ F,0,0,1,0,0,0,1 | F,0,0,1,0,0,0,1 @ F,0,0,1,0,0,0,1 @ F,0,0,1,0,0,0,1 @ F,0,0,1,0,0,0,1 @ F,0,0,1,0,0,0,1 | F,0,0,1,0,0,0,1 @ F,0,0,1,0,0,0,1 @ F,0,0,1,0,0,0,1"
       unit="px"
       method="auto"
       mode="F"
       radius="28"
       chamfer_steps="1"
       flexible="false"
       use_knot_distance="true"
       apply_no_radius="true"
       apply_with_radius="true"
       only_selected="true"
       hide_knots="false" />
    <inkscape:path-effect
       effect="fillet_chamfer"
       id="path-effect886"
       is_visible="true"
       lpeversion="1"
       satellites_param="F,0,1,1,0,5.2916667,0,1 @ F,0,1,1,0,5.2916667,0,1 @ F,0,0,1,0,0,0,1 @ F,0,1,1,0,5.2916667,0,1 | F,0,0,1,0,0,0,1 @ F,0,0,1,0,0,0,1 @ F,0,0,1,0,0,0,1 | F,0,0,1,0,0,0,1 @ F,0,0,1,0,0,0,1 @ F,0,0,1,0,0,0,1 @ F,0,0,1,0,0,0,1 | F,0,0,1,0,0,0,1 @ F,0,0,1,0,0,0,1 @ F,0,0,1,0,0,0,1 @ F,0,0,1,0,0,0,1 @ F,0,0,1,0,0,0,1 @ F,0,0,1,0,0,0,1 | F,0,0,1,0,0,0,1 @ F,0,0,1,0,0,0,1 @ F,0,0,1,0,0,0,1 @ F,0,0,1,0,0,0,1 @ F,0,0,1,0,0,0,1 @ F,0,0,1,0,0,0,1 | F,0,0,1,0,0,0,1 @ F,0,0,1,0,0,0,1 @ F,0,0,1,0,0,0,1 @ F,0,0,1,0,0,0,1 @ F,0,0,1,0,0,0,1 | F,0,0,1,0,0,0,1 @ F,0,0,1,0,0,0,1 @ F,0,0,1,0,0,0,1 | F,0,0,1,0,0,0,1 @ F,0,0,1,0,0,0,1 @ F,0,0,1,0,0,0,1 @ F,0,0,1,0,0,0,1 @ F,0,0,1,0,0,0,1 @ F,0,0,1,0,0,0,1 | F,0,0,1,0,0,0,1 @ F,0,0,1,0,0,0,1 @ F,0,0,1,0,0,0,1 @ F,0,0,1,0,0,0,1 @ F,0,0,1,0,0,0,1 @ F,0,0,1,0,0,0,1 | F,0,0,1,0,0,0,1 @ F,0,0,1,0,0,0,1 @ F,0,0,1,0,0,0,1 @ F,0,0,1,0,0,0,1 @ F,0,0,1,0,0,0,1 | F,0,0,1,0,0,0,1 @ F,0,0,1,0,0,0,1 @ F,0,0,1,0,0,0,1 @ F,0,0,1,0,0,0,1 @ F,0,0,1,0,0,0,1 | F,0,0,1,0,0,0,1 @ F,0,0,1,0,0,0,1 @ F,0,0,1,0,0,0,1"
       unit="px"
       method="auto"
       mode="F"
       radius="20"
       chamfer_steps="1"
       flexible="false"
       use_knot_distance="true"
       apply_no_radius="true"
       apply_with_radius="true"
       only_selected="true"
       hide_knots="false" />
    <inkscape:path-effect
       effect="fillet_chamfer"
       id="path-effect884"
       is_visible="true"
       lpeversion="1"
       satellites_param="F,0,1,1,0,0,0,1 @ F,0,1,1,0,0,0,1 @ F,0,0,1,0,0,0,1 @ F,0,1,1,0,0,0,1 | F,0,0,1,0,0,0,1 @ F,0,0,1,0,0,0,1 @ F,0,0,1,0,0,0,1 | F,0,0,1,0,0,0,1 @ F,0,0,1,0,0,0,1 @ F,0,0,1,0,0,0,1 @ F,0,0,1,0,0,0,1 | F,0,1,1,0,6.6145833,0,1 @ F,0,1,1,0,6.6145833,0,1 @ F,0,0,1,0,0,0,1 @ F,0,0,1,0,0,0,1 | F,0,1,1,0,6.6145833,0,1 @ F,0,0,1,0,0,0,1 @ F,0,0,1,0,0,0,1 @ F,0,0,1,0,0,0,1 @ F,0,0,1,0,0,0,1 | F,0,0,1,0,0,0,1 @ F,0,0,1,0,0,0,1 @ F,0,0,1,0,0,0,1 @ F,0,0,1,0,0,0,1 @ F,0,0,1,0,0,0,1 | F,0,0,1,0,0,0,1 @ F,0,0,1,0,0,0,1 @ F,0,0,1,0,0,0,1 | F,0,0,1,0,0,0,1 @ F,0,1,1,0,6.6145833,0,1 @ F,0,1,1,0,6.6145833,0,1 @ F,0,0,1,0,0,0,1 | F,0,0,1,0,0,0,1 @ F,0,1,1,0,6.6145833,0,1 @ F,0,1,1,0,6.6145833,0,1 @ F,0,0,1,0,0,0,1 | F,0,0,1,0,0,0,1 @ F,0,0,1,0,0,0,1 @ F,0,0,1,0,0,0,1 @ F,0,0,1,0,0,0,1 @ F,0,0,1,0,0,0,1 | F,0,0,1,0,0,0,1 @ F,0,0,1,0,0,0,1 @ F,0,0,1,0,0,0,1 @ F,0,0,1,0,0,0,1 @ F,0,0,1,0,0,0,1 | F,0,0,1,0,0,0,1 @ F,0,0,1,0,0,0,1 @ F,0,0,1,0,0,0,1"
       unit="px"
       method="auto"
       mode="F"
       radius="25"
       chamfer_steps="1"
       flexible="false"
       use_knot_distance="true"
       apply_no_radius="true"
       apply_with_radius="true"
       only_selected="true"
       hide_knots="false" />
    <inkscape:path-effect
       effect="fillet_chamfer"
       id="path-effect882"
       is_visible="true"
       lpeversion="1"
       satellites_param="F,0,0,1,0,0,0,1 @ F,0,0,1,0,0,0,1 @ F,0,0,1,0,0,0,1 @ F,0,0,1,0,0,0,1 | F,0,0,1,0,0,0,1 @ F,0,0,1,0,0,0,1 @ F,0,0,1,0,0,0,1 | F,0,0,1,0,0,0,1 @ F,0,0,1,0,0,0,1 @ F,0,0,1,0,0,0,1 @ F,0,0,1,0,0,0,1 | F,0,0,1,0,0,0,1 @ F,0,0,1,0,0,0,1 @ F,0,1,1,0,2.6458333,0,1 | F,0,0,1,0,0,0,1 @ F,0,1,1,0,2.6458333,0,1 @ F,0,0,1,0,2.6458333,0,1 | F,0,0,1,0,2.6458333,0,1 @ F,0,0,1,0,0,0,1 @ F,0,0,1,0,2.6458333,0,1 | F,0,0,1,0,0,0,1 @ F,0,0,1,0,0,0,1 @ F,0,0,1,0,0,0,1 | F,0,1,1,0,2.6458333,0,1 @ F,0,0,1,0,0,0,1 @ F,0,0,1,0,0,0,1 | F,0,1,1,0,2.6458333,0,1 @ F,0,0,1,0,0,0,1 @ F,0,0,1,0,0,0,1 | F,0,0,1,0,0,0,1 @ F,0,0,1,0,0,0,1 @ F,0,0,1,0,0,0,1 @ F,0,0,1,0,0,0,1 @ F,0,0,1,0,0,0,1 | F,0,0,1,0,0,0,1 @ F,0,0,1,0,0,0,1 @ F,0,0,1,0,0,0,1 @ F,0,0,1,0,0,0,1 @ F,0,0,1,0,0,0,1 | F,0,0,1,0,0,0,1 @ F,0,0,1,0,0,0,1 @ F,0,0,1,0,0,0,1"
       unit="px"
       method="auto"
       mode="F"
       radius="10"
       chamfer_steps="1"
       flexible="false"
       use_knot_distance="true"
       apply_no_radius="true"
       apply_with_radius="true"
       only_selected="true"
       hide_knots="false" />
    <inkscape:perspective
       sodipodi:type="inkscape:persp3d"
       inkscape:vp_x="0 : 26.515179 : 1"
       inkscape:vp_y="0 : 1000 : 0"
       inkscape:vp_z="53.000381 : 26.515179 : 1"
       inkscape:persp3d-origin="26.50019 : 17.681783 : 1"
       id="perspective845" />
    <inkscape:path-effect
       effect="fillet_chamfer"
       id="path-effect843"
       is_visible="true"
       lpeversion="1"
       satellites_param="F,0,0,1,0,0,0,1 @ F,0,0,1,0,0,0,1 @ F,0,0,1,0,0,0,1 @ F,0,0,1,0,0,0,1 | F,0,0,1,0,0,0,1 @ F,0,0,1,0,0,0,1 @ F,0,0,1,0,0,0,1 | F,0,0,1,0,0,0,1 @ F,0,0,1,0,0,0,1 @ F,0,0,1,0,0,0,1 @ F,0,0,1,0,0,0,1 | F,0,0,1,0,0,0,1 @ F,0,0,1,0,0,0,1 @ F,0,0,1,0,0,0,1 @ F,0,1,1,0,5.0270833,0,1 @ F,0,1,1,0,5.0270833,0,1 @ F,0,1,1,0,5.0270833,0,1 @ F,0,0,1,0,0,0,1 | F,0,0,1,0,0,0,1 @ F,0,1,1,0,5.0270833,0,1 @ F,0,1,1,0,5.0270833,0,1 @ F,0,1,1,0,5.0270833,0,1 @ F,0,0,1,0,0,0,1 @ F,0,0,1,0,0,0,1 @ F,0,0,1,0,0,0,1 | F,0,0,1,0,0,0,1 @ F,0,0,1,0,0,0,1 @ F,0,0,1,0,0,0,1 | F,0,0,1,0,0,0,1 @ F,0,0,1,0,0,0,1 @ F,0,0,1,0,0,0,1 | F,0,1,1,0,5.0270833,0,1 @ F,0,0,1,0,0,0,1 @ F,0,0,1,0,0,0,1 @ F,0,0,1,0,0,0,1 @ F,0,0,1,0,0,0,1 @ F,0,1,1,0,5.0270833,0,1 @ F,0,1,1,0,5.0270833,0,1 @ F,0,1,1,0,5.0270833,0,1 | F,0,1,1,0,5.0270833,0,1 @ F,0,1,1,0,5.0270833,0,1 @ F,0,1,1,0,5.0270833,0,1 @ F,0,0,1,0,0,0,1 @ F,0,0,1,0,0,0,1 @ F,0,0,1,0,0,0,1 @ F,0,0,1,0,0,0,1 | F,0,0,1,0,0,0,1 @ F,0,0,1,0,0,0,1 @ F,0,0,1,0,0,0,1 @ F,0,0,1,0,0,0,1 @ F,0,0,1,0,0,0,1 | F,0,0,1,0,0,0,1 @ F,0,0,1,0,0,0,1 @ F,0,0,1,0,0,0,1 @ F,0,0,1,0,0,0,1 @ F,0,0,1,0,0,0,1 | F,0,0,1,0,0,0,1 @ F,0,0,1,0,0,0,1 @ F,0,0,1,0,0,0,1"
       unit="px"
       method="auto"
       mode="F"
       radius="19"
       chamfer_steps="1"
       flexible="false"
       use_knot_distance="true"
       apply_no_radius="true"
       apply_with_radius="true"
       only_selected="true"
       hide_knots="false" />
    <inkscape:path-effect
       effect="fillet_chamfer"
       id="path-effect841"
       is_visible="true"
       lpeversion="1"
       satellites_param="F,0,0,1,0,0,0,1 @ F,0,0,1,0,0,0,1 @ F,0,0,1,0,0,0,1 @ F,0,0,1,0,0,0,1 | F,0,0,1,0,0,0,1 @ F,0,0,1,0,0,0,1 @ F,0,0,1,0,0,0,1 | F,0,0,1,0,0,0,1 @ F,0,0,1,0,0,0,1 @ F,0,0,1,0,0,0,1 @ F,0,0,1,0,0,0,1 | F,0,0,1,0,0,0,1 @ F,0,0,1,0,0,0,1 @ F,0,0,1,0,0,0,1 @ F,0,0,1,0,0,0,1 @ F,0,0,1,0,0,0,1 @ F,0,0,1,0,0,0,1 @ F,0,0,1,0,0,0,1 | F,0,0,1,0,0,0,1 @ F,0,0,1,0,0,0,1 @ F,0,0,1,0,0,0,1 @ F,0,0,1,0,0,0,1 @ F,0,0,1,0,0,0,1 @ F,0,0,1,0,0,0,1 @ F,0,0,1,0,0,0,1 | F,0,0,1,0,0,0,1 @ F,0,0,1,0,0,0,1 @ F,0,0,1,0,0,0,1 | F,0,0,1,0,0,0,1 @ F,0,0,1,0,0,0,1 @ F,0,0,1,0,0,0,1 | F,0,0,1,0,0,0,1 @ F,0,0,1,0,0,0,1 @ F,0,0,1,0,0,0,1 @ F,0,0,1,0,0,0,1 @ F,0,0,1,0,0,0,1 @ F,0,0,1,0,0,0,1 @ F,0,0,1,0,0,0,1 @ F,0,0,1,0,0,0,1 @ F,0,0,1,0,0,0,1 | F,0,0,1,0,0,0,1 @ F,0,0,1,0,0,0,1 @ F,0,0,1,0,0,0,1 @ F,0,0,1,0,0,0,1 @ F,0,0,1,0,0,0,1 @ F,0,0,1,0,0,0,1 @ F,0,0,1,0,0,0,1 | F,0,0,1,0,0,0,1 @ F,0,0,1,0,0,0,1 @ F,0,0,1,0,0,0,1 @ F,0,0,1,0,0,0,1 @ F,0,0,1,0,0,0,1 | F,0,0,1,0,0,0,1 @ F,0,0,1,0,0,0,1 @ F,0,0,1,0,0,0,1 @ F,0,0,1,0,0,0,1 @ F,0,0,1,0,0,0,1 | F,0,0,1,0,0,0,1 @ F,0,0,1,0,0,0,1 @ F,0,0,1,0,0,0,1"
       unit="px"
       method="auto"
       mode="F"
       radius="0"
       chamfer_steps="1"
       flexible="false"
       use_knot_distance="true"
       apply_no_radius="true"
       apply_with_radius="true"
       only_selected="false"
       hide_knots="false" />
    <inkscape:path-effect
       effect="fillet_chamfer"
       id="path-effect839"
       is_visible="true"
       lpeversion="1"
       satellites_param="F,0,0,1,0,0,0,1 @ F,0,0,1,0,0,0,1 @ F,0,0,1,0,0,0,1 @ F,0,0,1,0,0,0,1 | F,0,0,1,0,0,0,1 @ F,0,0,1,0,0,0,1 @ F,0,0,1,0,0,0,1 | F,0,0,1,0,0,0,1 @ F,0,0,1,0,0,0,1 @ F,0,0,1,0,0,0,1 @ F,0,0,1,0,0,0,1 | F,0,0,1,0,0,0,1 @ F,0,0,1,0,0,0,1 @ F,0,0,1,0,0,0,1 @ F,0,1,1,0,3.4395833,0,1 @ F,0,1,1,0,3.4395833,0,1 @ F,0,1,1,0,3.4395833,0,1 @ F,0,0,1,0,0,0,1 | F,0,0,1,0,0,0,1 @ F,0,1,1,0,3.4395833,0,1 @ F,0,1,1,0,3.4395833,0,1 @ F,0,1,1,0,3.4395833,0,1 @ F,0,0,1,0,0,0,1 @ F,0,0,1,0,0,0,1 @ F,0,0,1,0,0,0,1 | F,0,0,1,0,0,0,1 @ F,0,0,1,0,0,0,1 @ F,0,0,1,0,0,0,1 | F,0,0,1,0,0,0,1 @ F,0,0,1,0,0,0,1 @ F,0,0,1,0,0,0,1 | F,0,1,1,0,3.4395833,0,1 @ F,0,0,1,0,0,0,1 @ F,0,0,1,0,0,0,1 @ F,0,0,1,0,0,0,1 @ F,0,0,1,0,0,0,1 @ F,0,1,1,0,3.4395833,0,1 @ F,0,1,1,0,3.4395833,0,1 @ F,0,1,1,0,3.4395833,0,1 | F,0,1,1,0,3.4395833,0,1 @ F,0,1,1,0,3.4395833,0,1 @ F,0,1,1,0,3.4395833,0,1 @ F,0,0,1,0,0,0,1 @ F,0,0,1,0,0,0,1 @ F,0,0,1,0,0,0,1 @ F,0,0,1,0,0,0,1 | F,0,0,1,0,0,0,1 @ F,0,0,1,0,0,0,1 @ F,0,0,1,0,0,0,1 @ F,0,0,1,0,0,0,1 @ F,0,0,1,0,0,0,1 | F,0,0,1,0,0,0,1 @ F,0,0,1,0,0,0,1 @ F,0,0,1,0,0,0,1 @ F,0,0,1,0,0,0,1 @ F,0,0,1,0,0,0,1 | F,0,0,1,0,0,0,1 @ F,0,0,1,0,0,0,1 @ F,0,0,1,0,0,0,1"
       unit="px"
       method="auto"
       mode="F"
       radius="13"
       chamfer_steps="1"
       flexible="false"
       use_knot_distance="true"
       apply_no_radius="true"
       apply_with_radius="true"
       only_selected="true"
       hide_knots="false" />
  </defs>
  <sodipodi:namedview
     fit-margin-bottom="0"
     fit-margin-right="0"
     fit-margin-left="0"
     fit-margin-top="0"
     inkscape:snap-bbox="false"
     inkscape:window-maximized="0"
     inkscape:window-y="23"
     inkscape:window-x="0"
     inkscape:window-height="777"
     inkscape:window-width="1440"
     showgrid="false"
     inkscape:document-rotation="0"
     inkscape:current-layer="layer1"
     inkscape:document-units="mm"
     inkscape:cy="108.28382"
     inkscape:cx="19.949682"
     inkscape:zoom="1.0885792"
     inkscape:pageshadow="2"
     inkscape:pageopacity="0.0"
     borderopacity="1.0"
     bordercolor="#666666"
     pagecolor="#ffffff"
     id="base"
     inkscape:snap-global="true"
     inkscape:snap-page="true" />
  <metadata
     id="metadata1031">
    <rdf:RDF>
      <cc:Work
         rdf:about="">
        <dc:format>image/svg+xml</dc:format>
        <dc:type
           rdf:resource="http://purl.org/dc/dcmitype/StillImage" />
        <dc:title />
      </cc:Work>
    </rdf:RDF>
  </metadata>
  <g
     transform="translate(-78.503218,-57.450756)"
     id="layer1"
     inkscape:groupmode="layer"
     inkscape:label="Layer 1">
    <path
       id="path896"
       style="fill:#00ff00;fill-opacity:1;stroke-width:1.02445;stroke-linejoin:round;stroke-dashoffset:43.2;paint-order:stroke fill markers"
       d="m 84.9235,62.752294 c -0.618598,0 -1.119932,0.501334 -1.119932,1.119932 v 9.531614 c 0,0.618597 0.43218,0.865097 0.952913,0.531234 2.046831,-1.312309 3.947122,-2.841992 5.667871,-4.562822 1.720494,-1.720532 3.249898,-3.620543 4.561996,-5.667045 0.333863,-0.520733 0.08736,-0.952913 -0.531234,-0.952913 z m 16.63485,0 c -0.86604,0 -1.16342,0.574448 -0.69867,1.30514 1.49378,2.348543 2.71833,4.85763 3.65043,7.480267 0.29,0.81597 0.69722,0.81597 0.98722,0 0.9321,-2.622637 2.15665,-5.131724 3.65043,-7.480267 0.46475,-0.730692 0.16737,-1.30514 -0.69867,-1.30514 z m 13.99646,0.03514 c -0.6186,0 -0.8651,0.432181 -0.53124,0.952913 1.31232,2.046831 2.842,3.947122 4.56283,5.667871 1.72053,1.720494 3.62054,3.249898 5.66704,4.561996 0.52073,0.333864 0.95291,0.08736 0.95291,-0.531234 v -9.531201 c 0,-0.618598 -0.50174,-1.120345 -1.12034,-1.120345 z m -17.743622,3.146888 c -0.275087,-3.6e-4 -0.555108,0.161658 -0.773906,0.480384 -2.567851,3.740626 -5.829849,7.002625 -9.570475,9.570475 -0.637453,0.437597 -0.648041,1.119289 0.01364,1.519287 4.632962,2.800703 9.946698,4.48869 15.352033,4.807149 0.30876,0.01819 0.54939,-0.222473 0.53124,-0.531234 -0.3178,-5.403884 -2.0071,-10.720192 -4.807151,-15.352034 -0.200001,-0.330841 -0.470294,-0.493667 -0.745381,-0.494027 z m 14.388372,0.03597 c -0.27508,3.6e-4 -0.54538,0.163186 -0.74538,0.494026 -2.8007,4.632962 -4.48911,9.946699 -4.80756,15.352035 -0.0182,0.30876 0.22288,0.549804 0.53164,0.531647 5.40388,-0.317796 10.72019,-2.007512 15.35204,-4.807562 0.66168,-0.400002 0.65072,-1.081278 0.0132,-1.518874 -3.74063,-2.567851 -7.00263,-5.829848 -9.57048,-9.570475 -0.2188,-0.318726 -0.49841,-0.481161 -0.77349,-0.480797 z m -27.694846,13.61984 c -0.407079,-0.005 -0.678408,0.321547 -0.678408,0.916947 v 6.890742 c 0,0.866037 0.574034,1.163418 1.304726,0.698666 2.348543,-1.493781 4.858043,-2.718325 7.48068,-3.650425 0.81597,-0.289998 0.81597,-0.697225 0,-0.987226 -2.622637,-0.932097 -5.132137,-2.156643 -7.48068,-3.650423 -0.228341,-0.145235 -0.441283,-0.216013 -0.626318,-0.218281 z m 41.022816,0.03514 c -0.18503,0.0023 -0.39797,0.07305 -0.62632,0.218281 -2.34854,1.49378 -4.85804,2.718325 -7.48068,3.650424 -0.81596,0.289999 -0.81596,0.697638 0,0.987639 2.62264,0.932097 5.13214,2.156644 7.48068,3.650424 0.7307,0.464755 1.30514,0.166956 1.30514,-0.69908 v -6.890741 c 0,-0.5954 -0.27174,-0.921937 -0.67882,-0.916947 z m -22.67313,5.967181 c -5.403885,0.317796 -10.720197,2.007097 -15.35204,4.807149 -0.661682,0.400001 -0.651092,1.081691 -0.01364,1.519286 3.740627,2.567851 7.002624,5.829852 9.570475,9.570472 0.437597,0.63745 1.119289,0.64807 1.519287,-0.0136 2.800698,-4.632964 4.488698,-9.946693 4.807148,-15.352029 0.0182,-0.30876 -0.22246,-0.549391 -0.53123,-0.531235 z m 4.32056,0.01283 c -0.30876,-0.0182 -0.5494,0.222472 -0.53124,0.531232 0.3178,5.403884 2.0071,10.720187 4.80715,15.352035 0.4,0.66168 1.08169,0.65113 1.51929,0.0136 2.56785,-3.740624 5.82985,-7.002623 9.57048,-9.570475 0.63744,-0.437595 0.64806,-1.119289 -0.0137,-1.519288 -4.63297,-2.800701 -9.94669,-4.48869 -15.35203,-4.807147 z m -22.8476,8.215302 c -0.296831,0.0059 -0.501054,0.255189 -0.501054,0.680474 v 9.531611 c 0,0.6186 0.501334,1.11994 1.119931,1.11994 h 9.531201 c 0.618598,0 0.865098,-0.43219 0.531234,-0.95292 -1.312308,-2.04683 -2.841579,-3.94712 -4.562409,-5.667869 -1.720531,-1.720496 -3.620956,-3.249898 -5.667457,-4.561994 -0.162729,-0.104333 -0.316522,-0.151907 -0.451446,-0.149242 z m 41.37546,0.01198 c -0.13492,-0.0027 -0.28913,0.04491 -0.45186,0.149242 -2.04683,1.312308 -3.94712,2.841998 -5.66787,4.562822 -1.7205,1.720531 -3.2499,3.620541 -4.562,5.667041 -0.33386,0.52073 -0.0874,0.95292 0.53124,0.95292 h 9.53161 c 0.6186,0 1.11993,-0.50134 1.11993,-1.11994 v -9.53161 c 0,-0.425285 -0.20422,-0.674616 -0.50105,-0.680475 z m -20.6991,1.934765 c -0.17436,0 -0.34861,0.203864 -0.49361,0.61185 -0.9321,2.622636 -2.15665,5.13214 -3.65043,7.48068 -0.46475,0.7307 -0.16737,1.30473 0.69867,1.30473 h 6.89074 c 0.86603,0 1.16342,-0.57403 0.69867,-1.30473 -1.49379,-2.34854 -2.71833,-4.858044 -3.65043,-7.48068 -0.14499,-0.407986 -0.31924,-0.61185 -0.49361,-0.61185 z"
       inkscape:connector-curvature="0" />
  </g>
</svg>
