<?xml version="1.0" encoding="UTF-8" standalone="no"?>
<svg
   xmlns:dc="http://purl.org/dc/elements/1.1/"
   xmlns:cc="http://creativecommons.org/ns#"
   xmlns:rdf="http://www.w3.org/1999/02/22-rdf-syntax-ns#"
   xmlns:svg="http://www.w3.org/2000/svg"
   xmlns="http://www.w3.org/2000/svg"
   xmlns:sodipodi="http://sodipodi.sourceforge.net/DTD/sodipodi-0.dtd"
   xmlns:inkscape="http://www.inkscape.org/namespaces/inkscape"
   sodipodi:docname="mfjs-6x6-icon.svg"
   inkscape:version="1.0beta2 (2b71d25, 2019-12-03)"
   id="svg8"
   version="1.1"
   viewBox="0 0 52.091678 52.091667"
   height="52.091667mm"
   width="52.091679mm">
  <defs
     id="defs2" />
  <sodipodi:namedview
     showguides="false"
     inkscape:window-maximized="0"
     inkscape:window-y="23"
     inkscape:window-x="0"
     inkscape:window-height="775"
     inkscape:window-width="1440"
     fit-margin-bottom="0"
     fit-margin-right="0"
     fit-margin-left="0"
     fit-margin-top="0"
     inkscape:snap-bbox="true"
     showgrid="false"
     inkscape:document-rotation="0"
     inkscape:current-layer="layer1"
     inkscape:document-units="mm"
     inkscape:cy="116.18776"
     inkscape:cx="119.61845"
     inkscape:zoom="2.2551136"
     inkscape:pageshadow="2"
     inkscape:pageopacity="0.0"
     borderopacity="1.0"
     bordercolor="#666666"
     pagecolor="#ffffff"
     id="base" />
  <metadata
     id="metadata5">
    <rdf:RDF>
      <cc:Work
         rdf:about="">
        <dc:format>image/svg+xml</dc:format>
        <dc:type
           rdf:resource="http://purl.org/dc/dcmitype/StillImage" />
        <dc:title></dc:title>
      </cc:Work>
    </rdf:RDF>
  </metadata>
  <g
     transform="translate(-23.111965,-23.046638)"
     id="layer1"
     inkscape:groupmode="layer"
     inkscape:label="Layer 1">
    <path
       inkscape:connector-curvature="0"
       id="rect931"
       style="opacity:0.98;fill:#00fe00;fill-opacity:1;stroke:none;stroke-width:1.1225;stroke-dashoffset:43.2;paint-order:stroke fill markers"
       d="m 29.526134,28.255708 c -0.667604,0 -1.205094,0.537489 -1.205094,1.205094 v 5.589737 c 0,0.667605 0.53749,1.205094 1.205094,1.205094 h 5.589737 c 0.667604,0 1.205094,-0.537489 1.205094,-1.205094 v -5.589737 c 0,-0.667605 -0.53749,-1.205094 -1.205094,-1.205094 z m 8.846592,0 c -0.667606,0 -1.205094,0.537489 -1.205094,1.205094 v 5.589737 c 0,0.667605 0.537488,1.205094 1.205094,1.205094 h 2.950104 c 0.667606,0 1.204681,-0.537489 1.204681,-1.205094 v -5.589737 c 0,-0.667605 -0.537075,-1.205094 -1.204681,-1.205094 z m 6.206546,0 c -0.667605,0 -1.205094,0.537489 -1.205094,1.205094 v 5.589737 c 0,0.667605 0.537489,1.205094 1.205094,1.205094 h 2.950104 c 0.667606,0 1.205095,-0.537489 1.205095,-1.205094 v -5.589737 c 0,-0.667605 -0.537489,-1.205094 -1.205095,-1.205094 z m 6.206961,0 c -0.667605,0 -1.205095,0.537489 -1.205095,1.205094 v 5.589737 c 0,0.667605 0.53749,1.205094 1.205095,1.205094 h 2.949689 c 0.667605,0 1.205094,-0.537489 1.205094,-1.205094 v -5.589737 c 0,-0.667605 -0.537489,-1.205094 -1.205094,-1.205094 z m 6.206545,0 c -0.667605,0 -1.205095,0.537489 -1.205095,1.205094 v 5.589737 c 0,0.667605 0.53749,1.205094 1.205095,1.205094 h 2.949691 c 0.667605,0 1.205095,-0.537489 1.205095,-1.205094 v -5.589737 c 0,-0.667605 -0.53749,-1.205094 -1.205095,-1.205094 z m 6.206547,0 c -0.667605,0 -1.205095,0.537489 -1.205095,1.205094 v 5.589737 c 0,0.667605 0.53749,1.205094 1.205095,1.205094 h 5.590148 c 0.667605,0 1.205095,-0.537489 1.205095,-1.205094 v -5.589737 c 0,-0.667605 -0.53749,-1.205094 -1.205095,-1.205094 z M 29.128433,37.1023 c -0.447296,0 -0.807393,0.360097 -0.807393,0.807392 v 3.745095 c 0,0.447295 0.360097,0.807392 0.807393,0.807392 h 6.38514 c 0.447295,0 0.807392,-0.360097 0.807392,-0.807392 v -3.745095 c 0,-0.447295 -0.360097,-0.807392 -0.807392,-0.807392 z m 8.846591,0 c -0.447295,0 -0.807392,0.360097 -0.807392,0.807392 v 3.745095 c 0,0.447295 0.360097,0.807392 0.807392,0.807392 h 3.745095 c 0.447295,0 0.807392,-0.360097 0.807392,-0.807392 v -3.745095 c 0,-0.447295 -0.360097,-0.807392 -0.807392,-0.807392 z m 6.206546,0 c -0.447295,0 -0.807392,0.360097 -0.807392,0.807392 v 3.745095 c 0,0.447295 0.360097,0.807392 0.807392,0.807392 h 3.745508 c 0.447295,0 0.807393,-0.360097 0.807393,-0.807392 v -3.745095 c 0,-0.447295 -0.360098,-0.807392 -0.807393,-0.807392 z m 6.20696,0 c -0.447296,0 -0.807392,0.360097 -0.807392,0.807392 v 3.745095 c 0,0.447295 0.360096,0.807392 0.807392,0.807392 h 3.745095 c 0.447294,0 0.807391,-0.360097 0.807391,-0.807392 v -3.745095 c 0,-0.447295 -0.360097,-0.807392 -0.807391,-0.807392 z m 6.206545,0 c -0.447294,0 -0.807392,0.360097 -0.807392,0.807392 v 3.745095 c 0,0.447295 0.360098,0.807392 0.807392,0.807392 h 3.745095 c 0.447296,0 0.807394,-0.360097 0.807394,-0.807392 v -3.745095 c 0,-0.447295 -0.360098,-0.807392 -0.807394,-0.807392 z m 6.206547,0 c -0.447296,0 -0.807392,0.360097 -0.807392,0.807392 v 3.745095 c 0,0.447295 0.360096,0.807392 0.807392,0.807392 h 6.385554 c 0.447296,0 0.807392,-0.360097 0.807392,-0.807392 v -3.745095 c 0,-0.447295 -0.360096,-0.807392 -0.807392,-0.807392 z m -33.673189,6.206546 c -0.447296,0 -0.807393,0.360096 -0.807393,0.807392 v 3.745508 c 0,0.447295 0.360097,0.807393 0.807393,0.807393 h 6.38514 c 0.447295,0 0.807392,-0.360098 0.807392,-0.807393 v -3.745508 c 0,-0.447296 -0.360097,-0.807392 -0.807392,-0.807392 z m 8.846591,0 c -0.447295,0 -0.807392,0.360096 -0.807392,0.807392 v 3.745508 c 0,0.447295 0.360097,0.807393 0.807392,0.807393 h 3.745095 c 0.447295,0 0.807392,-0.360098 0.807392,-0.807393 v -3.745508 c 0,-0.447296 -0.360097,-0.807392 -0.807392,-0.807392 z m 6.206546,0 c -0.447295,0 -0.807392,0.360096 -0.807392,0.807392 v 3.745508 c 0,0.447295 0.360097,0.807393 0.807392,0.807393 h 3.745508 c 0.447295,0 0.807393,-0.360098 0.807393,-0.807393 v -3.745508 c 0,-0.447296 -0.360098,-0.807392 -0.807393,-0.807392 z m 6.20696,0 c -0.447296,0 -0.807392,0.360096 -0.807392,0.807392 v 3.745508 c 0,0.447295 0.360096,0.807393 0.807392,0.807393 h 3.745095 c 0.447294,0 0.807391,-0.360098 0.807391,-0.807393 v -3.745508 c 0,-0.447296 -0.360097,-0.807392 -0.807391,-0.807392 z m 6.206545,0 c -0.447294,0 -0.807392,0.360096 -0.807392,0.807392 v 3.745508 c 0,0.447295 0.360098,0.807393 0.807392,0.807393 h 3.745095 c 0.447296,0 0.807394,-0.360098 0.807394,-0.807393 v -3.745508 c 0,-0.447296 -0.360098,-0.807392 -0.807394,-0.807392 z m 6.206547,0 c -0.447296,0 -0.807392,0.360096 -0.807392,0.807392 v 3.745508 c 0,0.447295 0.360096,0.807393 0.807392,0.807393 h 6.385554 c 0.447296,0 0.807392,-0.360098 0.807392,-0.807393 v -3.745508 c 0,-0.447296 -0.360096,-0.807392 -0.807392,-0.807392 z m -33.673189,6.20696 c -0.447296,0 -0.807393,0.360096 -0.807393,0.807392 v 3.745095 c 0,0.447296 0.360097,0.807391 0.807393,0.807391 h 6.38514 c 0.447295,0 0.807392,-0.360095 0.807392,-0.807391 v -3.745095 c 0,-0.447296 -0.360097,-0.807392 -0.807392,-0.807392 z m 8.846591,0 c -0.447295,0 -0.807392,0.360096 -0.807392,0.807392 v 3.745095 c 0,0.447296 0.360097,0.807391 0.807392,0.807391 h 3.745095 c 0.447295,0 0.807392,-0.360095 0.807392,-0.807391 v -3.745095 c 0,-0.447296 -0.360097,-0.807392 -0.807392,-0.807392 z m 6.206546,0 c -0.447295,0 -0.807392,0.360096 -0.807392,0.807392 v 3.745095 c 0,0.447296 0.360097,0.807391 0.807392,0.807391 h 3.745508 c 0.447295,0 0.807393,-0.360095 0.807393,-0.807391 v -3.745095 c 0,-0.447296 -0.360098,-0.807392 -0.807393,-0.807392 z m 6.20696,0 c -0.447296,0 -0.807392,0.360096 -0.807392,0.807392 v 3.745095 c 0,0.447296 0.360096,0.807391 0.807392,0.807391 h 3.745095 c 0.447294,0 0.807391,-0.360095 0.807391,-0.807391 v -3.745095 c 0,-0.447296 -0.360097,-0.807392 -0.807391,-0.807392 z m 6.206545,0 c -0.447294,0 -0.807392,0.360096 -0.807392,0.807392 v 3.745095 c 0,0.447296 0.360098,0.807391 0.807392,0.807391 h 3.745095 c 0.447296,0 0.807394,-0.360095 0.807394,-0.807391 v -3.745095 c 0,-0.447296 -0.360098,-0.807392 -0.807394,-0.807392 z m 6.206547,0 c -0.447296,0 -0.807392,0.360096 -0.807392,0.807392 v 3.745095 c 0,0.447296 0.360096,0.807391 0.807392,0.807391 h 6.385554 c 0.447296,0 0.807392,-0.360095 0.807392,-0.807391 v -3.745095 c 0,-0.447296 -0.360096,-0.807392 -0.807392,-0.807392 z m -33.673189,6.206545 c -0.447296,0 -0.807393,0.360098 -0.807393,0.807392 v 3.745095 c 0,0.447296 0.360097,0.807394 0.807393,0.807394 h 6.38514 c 0.447295,0 0.807392,-0.360098 0.807392,-0.807394 v -3.745095 c 0,-0.447294 -0.360097,-0.807392 -0.807392,-0.807392 z m 8.846591,0 c -0.447295,0 -0.807392,0.360098 -0.807392,0.807392 v 3.745095 c 0,0.447296 0.360097,0.807394 0.807392,0.807394 h 3.745095 c 0.447295,0 0.807392,-0.360098 0.807392,-0.807394 v -3.745095 c 0,-0.447294 -0.360097,-0.807392 -0.807392,-0.807392 z m 6.206546,0 c -0.447295,0 -0.807392,0.360098 -0.807392,0.807392 v 3.745095 c 0,0.447296 0.360097,0.807394 0.807392,0.807394 h 3.745508 c 0.447295,0 0.807393,-0.360098 0.807393,-0.807394 v -3.745095 c 0,-0.447294 -0.360098,-0.807392 -0.807393,-0.807392 z m 6.20696,0 c -0.447296,0 -0.807392,0.360098 -0.807392,0.807392 v 3.745095 c 0,0.447296 0.360096,0.807394 0.807392,0.807394 h 3.745095 c 0.447294,0 0.807391,-0.360098 0.807391,-0.807394 v -3.745095 c 0,-0.447294 -0.360097,-0.807392 -0.807391,-0.807392 z m 6.206545,0 c -0.447294,0 -0.807392,0.360098 -0.807392,0.807392 v 3.745095 c 0,0.447296 0.360098,0.807394 0.807392,0.807394 h 3.745095 c 0.447296,0 0.807394,-0.360098 0.807394,-0.807394 v -3.745095 c 0,-0.447294 -0.360098,-0.807392 -0.807394,-0.807392 z m 6.206547,0 c -0.447296,0 -0.807392,0.360098 -0.807392,0.807392 v 3.745095 c 0,0.447296 0.360096,0.807394 0.807392,0.807394 h 6.385554 c 0.447296,0 0.807392,-0.360098 0.807392,-0.807394 v -3.745095 c 0,-0.447294 -0.360096,-0.807392 -0.807392,-0.807392 z m -33.275488,6.206547 c -0.667604,0 -1.205094,0.537487 -1.205094,1.205095 v 5.590148 c 0,0.667607 0.53749,1.205095 1.205094,1.205095 h 5.589737 c 0.667604,0 1.205094,-0.537488 1.205094,-1.205095 v -5.590148 c 0,-0.667608 -0.53749,-1.205095 -1.205094,-1.205095 z m 8.846592,0 c -0.667606,0 -1.205094,0.537487 -1.205094,1.205095 v 5.590148 c 0,0.667607 0.537488,1.205095 1.205094,1.205095 h 2.950104 c 0.667606,0 1.204681,-0.537488 1.204681,-1.205095 v -5.590148 c 0,-0.667608 -0.537075,-1.205095 -1.204681,-1.205095 z m 6.206546,0 c -0.667605,0 -1.205094,0.537487 -1.205094,1.205095 v 5.590148 c 0,0.667607 0.537489,1.205095 1.205094,1.205095 h 2.950104 c 0.667606,0 1.205095,-0.537488 1.205095,-1.205095 v -5.590148 c 0,-0.667608 -0.537489,-1.205095 -1.205095,-1.205095 z m 6.206961,0 c -0.667605,0 -1.205095,0.537487 -1.205095,1.205095 v 5.590148 c 0,0.667607 0.53749,1.205095 1.205095,1.205095 h 2.949689 c 0.667605,0 1.205094,-0.537488 1.205094,-1.205095 v -5.590148 c 0,-0.667608 -0.537489,-1.205095 -1.205094,-1.205095 z m 6.206545,0 c -0.667605,0 -1.205095,0.537487 -1.205095,1.205095 v 5.590148 c 0,0.667607 0.53749,1.205095 1.205095,1.205095 h 2.949691 c 0.667605,0 1.205095,-0.537488 1.205095,-1.205095 v -5.590148 c 0,-0.667608 -0.53749,-1.205095 -1.205095,-1.205095 z m 6.206547,0 c -0.667605,0 -1.205095,0.537487 -1.205095,1.205095 v 5.590148 c 0,0.667607 0.53749,1.205095 1.205095,1.205095 h 5.590148 c 0.667605,0 1.205095,-0.537488 1.205095,-1.205095 v -5.590148 c 0,-0.667608 -0.53749,-1.205095 -1.205095,-1.205095 z" />
  </g>
</svg>
