<?xml version="1.0" encoding="UTF-8" standalone="no"?>
<svg
   xmlns:dc="http://purl.org/dc/elements/1.1/"
   xmlns:cc="http://creativecommons.org/ns#"
   xmlns:rdf="http://www.w3.org/1999/02/22-rdf-syntax-ns#"
   xmlns:svg="http://www.w3.org/2000/svg"
   xmlns="http://www.w3.org/2000/svg"
   xmlns:sodipodi="http://sodipodi.sourceforge.net/DTD/sodipodi-0.dtd"
   xmlns:inkscape="http://www.inkscape.org/namespaces/inkscape"
   width="49.733341mm"
   height="49.733337mm"
   viewBox="0 0 49.733341 49.733337"
   version="1.1"
   id="svg8"
   inkscape:version="1.0beta2 (2b71d25, 2019-12-03)"
   sodipodi:docname="mfjs-5x5-icon.svg">
  <defs
     id="defs2" />
  <sodipodi:namedview
     id="base"
     pagecolor="#ffffff"
     bordercolor="#666666"
     borderopacity="1.0"
     inkscape:pageopacity="0.0"
     inkscape:pageshadow="2"
     inkscape:zoom="2.2551136"
     inkscape:cx="38.2209"
     inkscape:cy="104.84494"
     inkscape:document-units="mm"
     inkscape:current-layer="layer1"
     inkscape:document-rotation="0"
     showgrid="false"
     inkscape:snap-bbox="true"
     fit-margin-top="0"
     fit-margin-left="0"
     fit-margin-right="0"
     fit-margin-bottom="0"
     inkscape:window-width="1383"
     inkscape:window-height="775"
     inkscape:window-x="57"
     inkscape:window-y="23"
     inkscape:window-maximized="0" />
  <metadata
     id="metadata5">
    <rdf:RDF>
      <cc:Work
         rdf:about="">
        <dc:format>image/svg+xml</dc:format>
        <dc:type
           rdf:resource="http://purl.org/dc/dcmitype/StillImage" />
        <dc:title />
      </cc:Work>
    </rdf:RDF>
  </metadata>
  <g
     inkscape:label="Layer 1"
     inkscape:groupmode="layer"
     id="layer1"
     transform="translate(-23.111965,-23.046638)">
    <path
       inkscape:connector-curvature="0"
       d="m 29.712878,28.019948 c -0.901599,0 -1.627601,0.726001 -1.627601,1.627601 v 4.745137 c 0,0.901599 0.726002,1.627187 1.627601,1.627187 h 4.745137 c 0.901599,0 1.627187,-0.725588 1.627187,-1.627187 v -4.745137 c 0,-0.9016 -0.725588,-1.627601 -1.627187,-1.627601 z m 8.846592,0 c -0.901601,0 -1.627601,0.726001 -1.627601,1.627601 v 4.745137 c 0,0.901599 0.726,1.627187 1.627601,1.627187 h 3.545003 c 0.9016,0 1.627601,-0.725588 1.627601,-1.627187 v -4.745137 c 0,-0.9016 -0.726001,-1.627601 -1.627601,-1.627601 z m 7.646458,0 c -0.901599,0 -1.627188,0.726001 -1.627188,1.627601 v 4.745137 c 0,0.901599 0.725589,1.627187 1.627188,1.627187 h 3.545417 c 0.901599,0 1.627188,-0.725588 1.627188,-1.627187 v -4.745137 c -2e-6,-0.9016 -0.725589,-1.627601 -1.627188,-1.627601 z m 7.646872,0 c -0.901601,0 -1.6276,0.726001 -1.6276,1.627601 v 4.745137 c -2e-6,0.901599 0.725999,1.627187 1.6276,1.627187 h 3.545004 c 0.901598,0 1.6276,-0.725588 1.6276,-1.627187 v -4.745137 c 0,-0.9016 -0.726002,-1.627601 -1.6276,-1.627601 z m 7.646458,0 c -0.9016,0 -1.627187,0.726001 -1.627187,1.627601 v 4.745137 c 0,0.901599 0.725587,1.627187 1.627187,1.627187 h 4.745137 c 0.901598,0 1.6276,-0.725588 1.6276,-1.627187 v -4.745137 c 0,-0.9016 -0.726002,-1.627601 -1.6276,-1.627601 z m -31.78638,8.846592 c -0.901599,0 -1.627601,0.726001 -1.627601,1.627601 v 3.545003 c 0,0.901599 0.726002,1.627601 1.627601,1.627601 h 4.745137 c 0.901599,0 1.627187,-0.726002 1.627187,-1.627601 v -3.545003 c 0,-0.9016 -0.725588,-1.627601 -1.627187,-1.627601 z m 8.696523,0 c -0.818542,0 -1.477532,0.658991 -1.477532,1.477532 v 3.84514 c 0,0.818543 0.65899,1.477533 1.477532,1.477533 h 3.84514 c 0.818543,0 1.477533,-0.65899 1.477533,-1.477533 v -3.84514 c 0,-0.818541 -0.65899,-1.477532 -1.477533,-1.477532 z m 7.646872,0 c -0.818543,0 -1.477533,0.658991 -1.477533,1.477532 v 3.84514 c 0,0.818543 0.65899,1.477533 1.477533,1.477533 H 49.901 c 0.818543,0 1.477533,-0.65899 1.477533,-1.477533 v -3.84514 c -2e-6,-0.818541 -0.65899,-1.477532 -1.477533,-1.477532 z m 7.646457,0 c -0.818542,0 -1.47753,0.658991 -1.47753,1.477532 v 3.84514 c -2e-6,0.818543 0.658988,1.477533 1.47753,1.477533 h 3.845141 c 0.818543,0 1.477533,-0.65899 1.477533,-1.477533 v -3.84514 c 0,-0.818541 -0.65899,-1.477532 -1.477533,-1.477532 z m 7.796528,0 c -0.9016,0 -1.627187,0.726001 -1.627187,1.627601 v 3.545003 c 0,0.901599 0.725587,1.627601 1.627187,1.627601 h 4.745137 c 0.901598,0 1.6276,-0.726002 1.6276,-1.627601 v -3.545003 c 0,-0.9016 -0.726002,-1.627601 -1.6276,-1.627601 z m -31.78638,7.646871 c -0.901599,0 -1.627601,0.725588 -1.627601,1.627188 v 3.545417 c 0,0.901599 0.726002,1.627188 1.627601,1.627188 h 4.745137 c 0.901599,0 1.627187,-0.725589 1.627187,-1.627188 v -3.545417 c 0,-0.9016 -0.725588,-1.627188 -1.627187,-1.627188 z m 8.696523,0 c -0.818542,0 -1.477532,0.65899 -1.477532,1.477533 v 3.844727 c 0,0.818543 0.65899,1.477533 1.477532,1.477533 h 3.84514 c 0.818543,0 1.477533,-0.65899 1.477533,-1.477533 v -3.844727 c 0,-0.818543 -0.65899,-1.477533 -1.477533,-1.477533 z m 7.646872,0 c -0.818543,0 -1.477533,0.65899 -1.477533,1.477533 v 3.844727 c 0,0.818543 0.65899,1.477533 1.477533,1.477533 H 49.901 c 0.818543,0 1.477533,-0.65899 1.477533,-1.477533 v -3.844727 c -2e-6,-0.818543 -0.65899,-1.477533 -1.477533,-1.477533 z m 7.646457,0 c -0.818542,0 -1.47753,0.65899 -1.47753,1.477533 v 3.844727 c -2e-6,0.818543 0.658988,1.477533 1.47753,1.477533 h 3.845141 c 0.818543,0 1.477533,-0.65899 1.477533,-1.477533 v -3.844727 c 0,-0.818543 -0.65899,-1.477533 -1.477533,-1.477533 z m 7.796528,0 c -0.9016,0 -1.627187,0.725588 -1.627187,1.627188 v 3.545417 c 0,0.901599 0.725587,1.627188 1.627187,1.627188 h 4.745137 c 0.901598,-2e-6 1.6276,-0.725589 1.6276,-1.627188 v -3.545417 c 0,-0.9016 -0.726002,-1.627188 -1.6276,-1.627188 z m -31.78638,7.64646 c -0.901599,0 -1.627601,0.725999 -1.627601,1.6276 v 3.545004 c 0,0.901598 0.726002,1.6276 1.627601,1.6276 h 4.745137 c 0.901599,0 1.627187,-0.726002 1.627187,-1.6276 v -3.545004 c 0,-0.901601 -0.725588,-1.6276 -1.627187,-1.6276 z m 8.696523,0 c -0.818542,0 -1.477532,0.658988 -1.477532,1.47753 v 3.845141 c 0,0.818543 0.65899,1.477533 1.477532,1.477533 h 3.84514 c 0.818543,0 1.477533,-0.65899 1.477533,-1.477533 v -3.845141 c 0,-0.818542 -0.65899,-1.47753 -1.477533,-1.47753 z m 7.646872,0 c -0.818543,0 -1.477533,0.658988 -1.477533,1.47753 v 3.845141 c 0,0.818543 0.65899,1.477533 1.477533,1.477533 H 49.901 c 0.818543,0 1.477533,-0.65899 1.477533,-1.477533 v -3.845141 c -2e-6,-0.818542 -0.65899,-1.47753 -1.477533,-1.47753 z m 7.646457,0 c -0.818542,0 -1.47753,0.658988 -1.47753,1.47753 v 3.845141 c -2e-6,0.818543 0.658988,1.477533 1.47753,1.477533 h 3.845141 c 0.818543,0 1.477533,-0.65899 1.477533,-1.477533 v -3.845141 c 0,-0.818542 -0.65899,-1.47753 -1.477533,-1.47753 z m 7.796528,0 c -0.9016,-2e-6 -1.627187,0.725999 -1.627187,1.6276 v 3.545004 c 0,0.901598 0.725587,1.6276 1.627187,1.6276 h 4.745137 c 0.901598,0 1.6276,-0.726002 1.6276,-1.6276 v -3.545004 c 0,-0.901601 -0.726002,-1.6276 -1.6276,-1.6276 z m -31.78638,7.646871 c -0.901599,0 -1.627601,0.725587 -1.627601,1.627187 v 4.745137 c 0,0.901598 0.726002,1.6276 1.627601,1.6276 h 4.745137 c 0.901599,0 1.627187,-0.726002 1.627187,-1.6276 v -4.745137 c 0,-0.9016 -0.725588,-1.627187 -1.627187,-1.627187 z m 8.846592,0 c -0.901601,0 -1.627601,0.725587 -1.627601,1.627187 v 4.745137 c 0,0.901598 0.726,1.6276 1.627601,1.6276 h 3.545003 c 0.9016,0 1.627601,-0.726002 1.627601,-1.6276 v -4.745137 c 0,-0.9016 -0.726001,-1.627187 -1.627601,-1.627187 z m 7.646458,0 c -0.901599,0 -1.627188,0.725587 -1.627188,1.627187 v 4.745137 c 0,0.901598 0.725589,1.6276 1.627188,1.6276 h 3.545417 c 0.901599,0 1.627188,-0.726002 1.627188,-1.6276 v -4.745137 c -2e-6,-0.9016 -0.725589,-1.627187 -1.627188,-1.627187 z m 7.646872,0 c -0.901601,0 -1.6276,0.725587 -1.6276,1.627187 v 4.745137 c -2e-6,0.901598 0.725999,1.6276 1.6276,1.6276 h 3.545004 c 0.901598,0 1.6276,-0.726002 1.6276,-1.6276 v -4.745137 c 0,-0.9016 -0.726002,-1.627187 -1.6276,-1.627187 z m 7.646458,0 c -0.9016,0 -1.627187,0.725587 -1.627187,1.627187 v 4.745137 c 0,0.901598 0.725587,1.6276 1.627187,1.6276 h 4.745137 c 0.901598,0 1.6276,-0.726002 1.6276,-1.6276 v -4.745137 c 0,-0.9016 -0.726002,-1.627187 -1.6276,-1.627187 z"
       style="opacity:1;fill:#00fc00;fill-opacity:1;stroke:none;stroke-width:1.1225;stroke-dashoffset:43.2;stroke-opacity:1;paint-order:stroke fill markers"
       id="rect931" />
  </g>
</svg>
