<?xml version="1.0" encoding="UTF-8" standalone="no"?>
<svg
   xmlns:dc="http://purl.org/dc/elements/1.1/"
   xmlns:cc="http://creativecommons.org/ns#"
   xmlns:rdf="http://www.w3.org/1999/02/22-rdf-syntax-ns#"
   xmlns:svg="http://www.w3.org/2000/svg"
   xmlns="http://www.w3.org/2000/svg"
   xmlns:sodipodi="http://sodipodi.sourceforge.net/DTD/sodipodi-0.dtd"
   xmlns:inkscape="http://www.inkscape.org/namespaces/inkscape"
   width="1.8966537in"
   height="1.8966537in"
   viewBox="0 0 48.175004 48.175004"
   version="1.1"
   id="svg5503"
   inkscape:version="1.0beta2 (2b71d25, 2019-12-03)"
   sodipodi:docname="mfjs-3x3-icon.svg">
  <defs
     id="defs5497">
    <inkscape:perspective
       sodipodi:type="inkscape:persp3d"
       inkscape:vp_x="0 : -100.325 : 1"
       inkscape:vp_y="0 : 999.99999 : 0"
       inkscape:vp_z="210.00001 : -100.325 : 1"
       inkscape:persp3d-origin="105.00001 : -149.825 : 1"
       id="perspective6068" />
  </defs>
  <sodipodi:namedview
     units="in"
     id="base"
     pagecolor="#ffffff"
     bordercolor="#666666"
     borderopacity="1.0"
     inkscape:pageopacity="0.0"
     inkscape:pageshadow="2"
     inkscape:zoom="1.979899"
     inkscape:cx="86.609085"
     inkscape:cy="91.350339"
     inkscape:document-units="mm"
     inkscape:current-layer="layer1"
     inkscape:document-rotation="0"
     showgrid="false"
     fit-margin-top="0"
     fit-margin-left="0"
     fit-margin-right="0"
     fit-margin-bottom="0"
     inkscape:window-width="1440"
     inkscape:window-height="775"
     inkscape:window-x="0"
     inkscape:window-y="23"
     inkscape:window-maximized="0"
     inkscape:snap-bbox="true"
     inkscape:bbox-nodes="true" />
  <metadata
     id="metadata5500">
    <rdf:RDF>
      <cc:Work
         rdf:about="">
        <dc:format>image/svg+xml</dc:format>
        <dc:type
           rdf:resource="http://purl.org/dc/dcmitype/StillImage" />
        <dc:title />
      </cc:Work>
    </rdf:RDF>
  </metadata>
  <g
     inkscape:label="Layer 1"
     inkscape:groupmode="layer"
     id="layer1"
     transform="translate(-16.894794,-32.214485)">
    <path
       inkscape:connector-curvature="0"
       id="rect6066"
       style="fill:#00ff00;fill-opacity:1;stroke:none;stroke-width:0.321094;stroke-dashoffset:43.2;paint-order:stroke fill markers"
       d="m 24.136606,37.032052 c -1.342967,0 -2.424245,1.081279 -2.424245,2.424245 v 7.151604 c 0,1.342967 1.081278,2.424245 2.424245,2.424245 h 7.151604 c 1.342967,0 2.424245,-1.081278 2.424245,-2.424245 v -7.151604 c 0,-1.342966 -1.081278,-2.424245 -2.424245,-2.424245 z m 13.270094,0 c -1.342966,0 -2.424245,1.081279 -2.424245,2.424245 v 7.151604 c 0,1.342967 1.081279,2.424245 2.424245,2.424245 h 7.151604 c 1.342968,0 2.424246,-1.081278 2.424246,-2.424245 v -7.151604 c 0,-1.342966 -1.081278,-2.424245 -2.424246,-2.424245 z m 13.270093,0 c -1.342965,0 -2.424243,1.081279 -2.424243,2.424245 v 7.151604 c 0,1.342967 1.081278,2.424245 2.424243,2.424245 h 7.151193 c 1.342965,0 2.424243,-1.081278 2.424243,-2.424245 v -7.151604 c 0,-1.342966 -1.081278,-2.424245 -2.424243,-2.424245 z M 24.136606,50.302146 c -1.342967,0 -2.424245,1.081279 -2.424245,2.424245 v 7.151604 c 0,1.342968 1.081278,2.424246 2.424245,2.424246 h 7.151604 c 1.342967,0 2.424245,-1.081278 2.424245,-2.424246 v -7.151604 c 0,-1.342966 -1.081278,-2.424245 -2.424245,-2.424245 z m 13.270094,0 c -1.342966,0 -2.424245,1.081279 -2.424245,2.424245 v 7.151604 c 0,1.342968 1.081279,2.424246 2.424245,2.424246 h 7.151604 c 1.342968,0 2.424246,-1.081278 2.424246,-2.424246 v -7.151604 c 0,-1.342966 -1.081278,-2.424245 -2.424246,-2.424245 z m 13.270093,0 c -1.342965,0 -2.424243,1.081279 -2.424243,2.424245 v 7.151604 c 0,1.342968 1.081278,2.424246 2.424243,2.424246 h 7.151193 c 1.342965,0 2.424243,-1.081278 2.424243,-2.424246 v -7.151604 c 0,-1.342966 -1.081278,-2.424245 -2.424243,-2.424245 z M 24.136606,63.572241 c -1.342967,0 -2.424245,1.081278 -2.424245,2.424243 v 7.151193 c 0,1.342965 1.081278,2.424243 2.424245,2.424243 h 7.151604 c 1.342967,0 2.424245,-1.081278 2.424245,-2.424243 v -7.151193 c 0,-1.342965 -1.081278,-2.424243 -2.424245,-2.424243 z m 13.270094,0 c -1.342966,0 -2.424245,1.081278 -2.424245,2.424243 v 7.151193 c 0,1.342965 1.081279,2.424243 2.424245,2.424243 h 7.151604 c 1.342968,0 2.424246,-1.081278 2.424246,-2.424243 v -7.151193 c 0,-1.342965 -1.081278,-2.424243 -2.424246,-2.424243 z m 13.270093,0 c -1.342965,0 -2.424243,1.081278 -2.424243,2.424243 v 7.151193 c 0,1.342965 1.081278,2.424243 2.424243,2.424243 h 7.151193 c 1.342965,0 2.424243,-1.081278 2.424243,-2.424243 v -7.151193 c 0,-1.342965 -1.081278,-2.424243 -2.424243,-2.424243 z" />
  </g>
</svg>
