<?xml version="1.0" encoding="UTF-8" standalone="no"?>
<svg
   xmlns:dc="http://purl.org/dc/elements/1.1/"
   xmlns:cc="http://creativecommons.org/ns#"
   xmlns:rdf="http://www.w3.org/1999/02/22-rdf-syntax-ns#"
   xmlns:svg="http://www.w3.org/2000/svg"
   xmlns="http://www.w3.org/2000/svg"
   xmlns:sodipodi="http://sodipodi.sourceforge.net/DTD/sodipodi-0.dtd"
   xmlns:inkscape="http://www.inkscape.org/namespaces/inkscape"
   width="50.777779mm"
   height="50.778297mm"
   viewBox="0 0 50.777779 50.778298"
   version="1.1"
   id="svg1700"
   inkscape:version="1.0beta2 (2b71d25, 2019-12-03)"
   sodipodi:docname="moyu-skewb-icon.svg">
  <defs
     id="defs1694">
    <inkscape:path-effect
       effect="fillet_chamfer"
       id="path-effect1717"
       is_visible="true"
       lpeversion="1"
       satellites_param="F,1,0,1,0,0.07,0,1 @ F,1,0,1,0,0.07,0,1 @ F,1,0,1,0,0.07,0,1 @ F,1,0,1,0,0.07,0,1 | F,1,0,1,0,0.07,0,1 @ F,1,0,1,0,0.07,0,1 @ F,1,0,1,0,0.07,0,1 | F,1,0,1,0,0.07,0,1 @ F,1,0,1,0,0.07,0,1 @ F,1,0,1,0,0.07,0,1 | F,1,0,1,0,0.07,0,1 @ F,1,0,1,0,0.07,0,1 @ F,1,0,1,0,0.07,0,1 | F,1,0,1,0,0.07,0,1 @ F,1,0,1,0,0.07,0,1 @ F,1,0,1,0,0.07,0,1"
       unit="px"
       method="auto"
       mode="F"
       radius="7"
       chamfer_steps="1"
       flexible="true"
       use_knot_distance="true"
       apply_no_radius="true"
       apply_with_radius="true"
       only_selected="false"
       hide_knots="false" />
  </defs>
  <sodipodi:namedview
     fit-margin-bottom="0"
     fit-margin-right="0"
     fit-margin-left="0"
     fit-margin-top="0"
     id="base"
     pagecolor="#ffffff"
     bordercolor="#666666"
     borderopacity="1.0"
     inkscape:pageopacity="0.0"
     inkscape:pageshadow="2"
     inkscape:zoom="1.4"
     inkscape:cx="80.881252"
     inkscape:cy="85.945236"
     inkscape:document-units="mm"
     inkscape:current-layer="layer1"
     inkscape:document-rotation="0"
     showgrid="false"
     inkscape:snap-global="true"
     inkscape:window-width="1132"
     inkscape:window-height="775"
     inkscape:window-x="308"
     inkscape:window-y="23"
     inkscape:window-maximized="0"
     inkscape:snap-page="true" />
  <metadata
     id="metadata1697">
    <rdf:RDF>
      <cc:Work
         rdf:about="">
        <dc:format>image/svg+xml</dc:format>
        <dc:type
           rdf:resource="http://purl.org/dc/dcmitype/StillImage" />
        <dc:title></dc:title>
      </cc:Work>
    </rdf:RDF>
  </metadata>
  <g
     transform="translate(-52.349775,-81.813094)"
     inkscape:label="Layer 1"
     inkscape:groupmode="layer"
     id="layer1">
    <path
       id="path2368"
       style="fill:#00f200;fill-opacity:1;stroke-width:1.12758;stroke-dashoffset:43.2;paint-order:stroke fill markers"
       d="m 58.848024,86.890915 a 1.2784005,1.2784005 0 0 0 -0.942992,0.415479 1.2784005,1.2784005 0 0 0 -0.03927,0.03762 1.2784005,1.2784005 0 0 0 -0.376204,0.905371 v 15.706335 a 0.52953084,0.52953084 0 0 0 0.904131,0.37413 l 0.437803,-0.4378 15.642662,-15.642665 0.01654,-0.01695 0.437803,-0.437389 a 0.52953084,0.52953084 0 0 0 -0.374139,-0.904131 z m 22.137358,0.06242 a 0.52953084,0.52953084 0 0 0 -0.374138,0.903718 l 0.437803,0.437802 15.642659,15.642665 0.01656,0.017 0.4378,0.43739 a 0.52953084,0.52953084 0 0 0 0.90372,-0.37414 V 88.31181 a 1.2784005,1.2784005 0 0 0 -0.415064,-0.943405 1.2784005,1.2784005 0 0 0 -0.0376,-0.03927 1.2784005,1.2784005 0 0 0 -0.905784,-0.375791 z m -3.270913,0.719336 a 2.0159971,2.0159971 0 0 0 -1.415934,0.590351 L 58.784772,105.77679 a 2.0159974,2.0159974 0 0 0 0,2.85089 l 17.513763,17.51376 a 2.0159973,2.0159973 0 0 0 2.850885,0 l 17.513766,-17.51376 a 2.0159974,2.0159974 0 0 0 0,-2.85089 L 79.14942,88.263028 A 2.0159971,2.0159971 0 0 0 77.714469,87.672677 Z M 57.950508,109.85757 a 0.52953084,0.52953084 0 0 0 -0.522966,0.52917 v 15.70633 a 1.2784005,1.2784005 0 0 0 0.415065,0.94299 1.2784005,1.2784005 0 0 0 0.03762,0.0393 1.2784005,1.2784005 0 0 0 0.905785,0.37579 h 15.705914 a 0.52953084,0.52953084 0 0 0 0.374138,-0.90372 l -0.437804,-0.4378 -15.642662,-15.64266 -0.01654,-0.0166 -0.437802,-0.43781 a 0.52953084,0.52953084 0 0 0 -0.380752,-0.15503 z m 39.494438,0.0624 a 0.52953084,0.52953084 0 0 0 -0.360912,0.15462 l -0.438216,0.43822 -15.642661,15.64224 -0.01653,0.017 -0.437388,0.43739 a 0.52953084,0.52953084 0 0 0 0.374139,0.90413 h 15.70591 a 1.2784005,1.2784005 0 0 0 0.942992,-0.41507 1.2784005,1.2784005 0 0 0 0.03968,-0.038 1.2784005,1.2784005 0 0 0 0.375792,-0.90537 V 110.4488 a 0.52953084,0.52953084 0 0 0 -0.542816,-0.52875 z"
       inkscape:connector-curvature="0" />
  </g>
</svg>
