<?xml version="1.0" encoding="UTF-8" standalone="no"?>
<svg
   xmlns:dc="http://purl.org/dc/elements/1.1/"
   xmlns:cc="http://creativecommons.org/ns#"
   xmlns:rdf="http://www.w3.org/1999/02/22-rdf-syntax-ns#"
   xmlns:svg="http://www.w3.org/2000/svg"
   xmlns="http://www.w3.org/2000/svg"
   xmlns:sodipodi="http://sodipodi.sourceforge.net/DTD/sodipodi-0.dtd"
   xmlns:inkscape="http://www.inkscape.org/namespaces/inkscape"
   width="49.616779mm"
   height="47.455055mm"
   viewBox="0 0 49.616779 47.455055"
   version="1.1"
   id="svg8"
   inkscape:version="1.0beta2 (2b71d25, 2019-12-03)"
   sodipodi:docname="qj-pyraminx-crystal-icon.svg">
  <defs
     id="defs2">
    <inkscape:path-effect
       effect="fillet_chamfer"
       id="path-effect1017"
       is_visible="true"
       lpeversion="1"
       satellites_param="F,0,0,1,0,2.6458333,0,1 @ F,0,0,1,0,2.6458333,0,1 @ F,0,0,1,0,2.6458333,0,1 | F,0,0,1,0,2.6458333,0,1 @ F,0,0,1,0,2.6458333,0,1 @ F,0,0,1,0,2.6458333,0,1 @ F,0,0,1,0,2.6458333,0,1"
       unit="px"
       method="auto"
       mode="F"
       radius="10"
       chamfer_steps="1"
       flexible="false"
       use_knot_distance="true"
       apply_no_radius="true"
       apply_with_radius="true"
       only_selected="false"
       hide_knots="false" />
    <inkscape:path-effect
       hide_knots="false"
       only_selected="false"
       apply_with_radius="true"
       apply_no_radius="true"
       use_knot_distance="true"
       flexible="false"
       chamfer_steps="1"
       radius="10"
       mode="F"
       method="auto"
       unit="px"
       satellites_param="F,0,0,1,0,2.6458333,0,1 @ F,0,0,1,0,2.6458333,0,1 @ F,0,0,1,0,2.6458333,0,1 | F,0,0,1,0,2.6458333,0,1 @ F,0,0,1,0,2.6458333,0,1 @ F,0,0,1,0,2.6458333,0,1 @ F,0,0,1,0,2.6458333,0,1"
       lpeversion="1"
       is_visible="true"
       id="path-effect1013"
       effect="fillet_chamfer" />
    <inkscape:path-effect
       effect="fillet_chamfer"
       id="path-effect1009"
       is_visible="true"
       lpeversion="1"
       satellites_param="F,0,0,1,0,2.6458333,0,1 @ F,0,0,1,0,2.6458333,0,1 @ F,0,0,1,0,2.6458333,0,1 | F,0,0,1,0,2.6458333,0,1 @ F,0,0,1,0,2.6458333,0,1 @ F,0,0,1,0,2.6458333,0,1 @ F,0,0,1,0,2.6458333,0,1"
       unit="px"
       method="auto"
       mode="F"
       radius="10"
       chamfer_steps="1"
       flexible="false"
       use_knot_distance="true"
       apply_no_radius="true"
       apply_with_radius="true"
       only_selected="false"
       hide_knots="false" />
    <inkscape:path-effect
       hide_knots="false"
       only_selected="false"
       apply_with_radius="true"
       apply_no_radius="true"
       use_knot_distance="true"
       flexible="false"
       chamfer_steps="1"
       radius="10"
       mode="F"
       method="auto"
       unit="px"
       satellites_param="F,0,0,1,0,2.6458333,0,1 @ F,0,0,1,0,2.6458333,0,1 @ F,0,0,1,0,2.6458333,0,1 | F,0,0,1,0,2.6458333,0,1 @ F,0,0,1,0,2.6458333,0,1 @ F,0,0,1,0,2.6458333,0,1 @ F,0,0,1,0,2.6458333,0,1"
       lpeversion="1"
       is_visible="true"
       id="path-effect1005"
       effect="fillet_chamfer" />
    <inkscape:path-effect
       effect="fillet_chamfer"
       id="path-effect1001"
       is_visible="true"
       lpeversion="1"
       satellites_param="F,0,0,1,0,2.6458333,0,1 @ F,0,0,1,0,2.6458333,0,1 @ F,0,0,1,0,2.6458333,0,1 | F,0,0,1,0,2.6458333,0,1 @ F,0,0,1,0,2.6458333,0,1 @ F,0,0,1,0,2.6458333,0,1 @ F,0,0,1,0,2.6458333,0,1"
       unit="px"
       method="auto"
       mode="F"
       radius="10"
       chamfer_steps="1"
       flexible="false"
       use_knot_distance="true"
       apply_no_radius="true"
       apply_with_radius="true"
       only_selected="false"
       hide_knots="false" />
  </defs>
  <sodipodi:namedview
     id="base"
     pagecolor="#ffffff"
     bordercolor="#666666"
     borderopacity="1.0"
     inkscape:pageopacity="0.0"
     inkscape:pageshadow="2"
     inkscape:zoom="1.979899"
     inkscape:cx="52.002957"
     inkscape:cy="98.215236"
     inkscape:document-units="mm"
     inkscape:current-layer="layer1"
     inkscape:document-rotation="0"
     showgrid="false"
     inkscape:snap-bbox="true"
     inkscape:object-paths="false"
     inkscape:snap-intersection-paths="true"
     inkscape:snap-smooth-nodes="false"
     inkscape:window-width="1333"
     inkscape:window-height="773"
     inkscape:window-x="107"
     inkscape:window-y="23"
     inkscape:window-maximized="0"
     fit-margin-top="0"
     fit-margin-left="0"
     fit-margin-right="0"
     fit-margin-bottom="0"
     inkscape:snap-global="false" />
  <metadata
     id="metadata5">
    <rdf:RDF>
      <cc:Work
         rdf:about="">
        <dc:format>image/svg+xml</dc:format>
        <dc:type
           rdf:resource="http://purl.org/dc/dcmitype/StillImage" />
        <dc:title></dc:title>
      </cc:Work>
    </rdf:RDF>
  </metadata>
  <g
     inkscape:label="Layer 1"
     inkscape:groupmode="layer"
     id="layer1"
     transform="translate(-64.360969,-88.428194)">
    <path
       id="path994"
       style="fill:#00ff00;fill-opacity:1;stroke:none;stroke-width:3.2;stroke-linejoin:round;stroke-miterlimit:4;stroke-dasharray:none;stroke-dashoffset:43.2"
       d="m 89.06833,93.17362 c -0.16626,9.5e-5 -0.332663,0.04531 -0.458473,0.135186 -0.689393,0.492502 -2.091878,1.505309 -3.766179,2.717353 -0.249677,0.180744 -0.369957,0.564328 -0.268717,0.856589 l 4.361491,12.591272 a 0.19401052,0.19401052 0 0 0 0.366696,0 l 4.341648,-12.531328 c 0.10125,-0.292256 -0.01983,-0.676037 -0.270373,-0.857415 -1.711204,-1.23885 -3.147903,-2.277151 -3.848033,-2.777298 -0.12561,-0.08973 -0.291801,-0.134453 -0.45806,-0.134359 z m -7.042464,5.174258 c -0.09189,-0.0047 -0.190544,0.02532 -0.284427,0.09343 -1.713545,1.243127 -3.283279,2.383552 -5.001865,3.633882 -0.25011,0.18197 -0.252403,0.48002 -0.005,0.6656 l 9.023532,6.76713 a 0.17257757,0.17257757 0 0 0 0.266651,-0.19389 L 82.376025,98.64264 c -0.06254,-0.182914 -0.197012,-0.287004 -0.350159,-0.294762 z m 14.342483,0.02067 c -0.153131,0.0078 -0.28764,0.111426 -0.350158,0.294349 l -3.647944,10.673043 a 0.17257757,0.17257757 0 0 0 0.267064,0.19389 l 9.021879,-6.76837 c 0.24741,-0.18561 0.24514,-0.48362 -0.005,-0.6656 -1.711799,-1.24553 -3.281242,-2.386197 -5.001453,-3.634295 -0.09388,-0.06811 -0.192549,-0.09767 -0.284427,-0.09302 z m 8.135521,5.853082 c -0.16243,0.002 -0.32439,0.0489 -0.44772,0.14221 l -10.627157,8.03921 a 0.19401052,0.19401052 0 0 0 0.113276,0.34891 l 13.259351,0.25632 c 0.30924,0.006 0.63707,-0.22782 0.73215,-0.52214 0.64942,-2.01028 1.19258,-3.69734 1.4519,-4.51776 0.0931,-0.29438 -0.0349,-0.68771 -0.2836,-0.87147 -0.68143,-0.50346 -2.07829,-1.52393 -3.74841,-2.74175 -0.12452,-0.0908 -0.28735,-0.13518 -0.44979,-0.13353 z m -30.58707,0.10252 c -0.162719,-0.001 -0.325658,0.0433 -0.450618,0.13436 -1.707008,1.24463 -3.138237,2.29039 -3.830257,2.8017 -0.24831,0.18346 -0.375979,0.57703 -0.282774,0.87188 0.255363,0.80784 0.785561,2.45454 1.420895,4.42144 0.09474,0.29331 0.422498,0.52645 0.731739,0.52048 l 13.322597,-0.25755 a 0.19401052,0.19401052 0 0 0 0.113275,-0.34851 L 74.365352,104.46637 C 74.24202,104.37307 74.079519,104.3256 73.9168,104.32415 Z M 94.621273,115.626 a 0.17257757,0.17257757 0 0 0 -0.101699,0.31378 l 9.224446,6.48891 c 0.25298,0.17795 0.53591,0.0837 0.6317,-0.21043 0.65559,-2.01291 1.25535,-3.85784 1.91079,-5.87954 0.0954,-0.29422 -0.0781,-0.53688 -0.38737,-0.54157 z m -11.003773,0.006 -11.276624,0.17239 c -0.309263,0.005 -0.482739,0.24734 -0.387367,0.54157 0.65277,2.01383 1.251897,3.85911 1.909961,5.87995 0.09577,0.2941 0.378736,0.388 0.631693,0.21002 l 9.22445,-6.49015 A 0.17257757,0.17257757 0 0 0 83.6175,115.632 Z m 2.779779,1.9699 a 0.19401052,0.19401052 0 0 0 -0.114929,0.0347 l -10.878095,7.5861 c -0.253699,0.17693 -0.38133,0.55887 -0.285254,0.85287 0.656216,2.00807 1.208401,3.6921 1.48084,4.50825 0.09776,0.29285 0.432435,0.53579 0.74166,0.53826 0.847215,0.007 2.577305,0.0117 4.644264,0.0153 0.308231,6.3e-4 0.631108,-0.23901 0.720989,-0.53496 l 3.872012,-12.75044 a 0.19401052,0.19401052 0 0 0 -0.181487,-0.25011 z m 5.48845,0.0554 a 0.19401052,0.19401052 0 0 0 -0.184383,0.25053 l 3.853409,12.68966 c 0.08987,0.29596 0.413345,0.53548 0.722645,0.53496 2.112571,-0.004 3.88515,-0.008 4.74555,-0.0149 0.30872,-0.002 0.64334,-0.24576 0.74125,-0.53909 0.26824,-0.80366 0.8073,-2.44765 1.44942,-4.41234 0.0957,-0.29298 -0.0324,-0.67387 -0.28609,-0.8508 l -10.929766,-7.6229 a 0.19401052,0.19401052 0 0 0 -0.112035,-0.0351 z m -2.754974,2.04349 a 0.17257757,0.17257757 0 0 0 -0.159577,0.12155 l -3.32052,10.77846 c -0.09107,0.29559 0.08592,0.53557 0.395221,0.53578 2.116978,0.001 4.057276,0.002 6.182568,4.3e-4 0.309298,-2.1e-4 0.485913,-0.24021 0.394807,-0.53579 l -3.322173,-10.77909 a 0.17257757,0.17257757 0 0 0 -0.170326,-0.12155 z"
       inkscape:connector-curvature="0" />
  </g>
</svg>
