<?xml version="1.0" encoding="UTF-8" standalone="no"?>
<svg
   xmlns:dc="http://purl.org/dc/elements/1.1/"
   xmlns:cc="http://creativecommons.org/ns#"
   xmlns:rdf="http://www.w3.org/1999/02/22-rdf-syntax-ns#"
   xmlns:svg="http://www.w3.org/2000/svg"
   xmlns="http://www.w3.org/2000/svg"
   xmlns:sodipodi="http://sodipodi.sourceforge.net/DTD/sodipodi-0.dtd"
   xmlns:inkscape="http://www.inkscape.org/namespaces/inkscape"
   sodipodi:docname="shengshou-pyraminx-icon.svg"
   inkscape:version="1.0beta2 (2b71d25, 2019-12-03)"
   id="svg2440"
   version="1.1"
   viewBox="0 0 69.782524 60.772003"
   height="60.772003mm"
   width="69.782524mm">
  <defs
     id="defs2434">
    <inkscape:path-effect
       hide_knots="false"
       only_selected="false"
       apply_with_radius="true"
       apply_no_radius="true"
       use_knot_distance="true"
       flexible="true"
       chamfer_steps="1"
       radius="9"
       mode="F"
       method="auto"
       unit="px"
       satellites_param="F,1,0,1,0,0.09,0,1 @ F,1,0,1,0,0.09,0,1 @ F,1,0,1,0,0.09,0,1 | F,1,0,1,0,0.09,0,1 @ F,1,0,1,0,0.09,0,1 @ F,1,0,1,0,0.09,0,1 | F,1,0,1,0,0.09,0,1 @ F,1,0,1,0,0.09,0,1 @ F,1,0,1,0,0.09,0,1 | F,1,0,1,0,0.09,0,1 @ F,1,0,1,0,0.09,0,1 @ F,1,0,1,0,0.09,0,1 | F,1,0,1,0,0.09,0,1 @ F,1,0,1,0,0.09,0,1 @ F,1,0,1,0,0.09,0,1 | F,1,0,1,0,0.09,0,1 @ F,1,0,1,0,0.09,0,1 @ F,1,0,1,0,0.09,0,1 | F,1,0,1,0,0.09,0,1 @ F,1,0,1,0,0.09,0,1 @ F,1,0,1,0,0.09,0,1 | F,1,0,1,0,0.09,0,1 @ F,1,0,1,0,0.09,0,1 @ F,1,0,1,0,0.09,0,1 | F,1,0,1,0,0.09,0,1 @ F,1,0,1,0,0.09,0,1 @ F,1,0,1,0,0.09,0,1"
       lpeversion="1"
       is_visible="true"
       id="path-effect3045"
       effect="fillet_chamfer" />
  </defs>
  <sodipodi:namedview
     fit-margin-bottom="0"
     fit-margin-right="0"
     fit-margin-left="0"
     fit-margin-top="0"
     inkscape:window-maximized="0"
     inkscape:window-y="23"
     inkscape:window-x="337"
     inkscape:window-height="775"
     inkscape:window-width="1103"
     showgrid="false"
     inkscape:document-rotation="0"
     inkscape:current-layer="layer1"
     inkscape:document-units="mm"
     inkscape:cy="160.34101"
     inkscape:cx="141.25659"
     inkscape:zoom="1.4"
     inkscape:pageshadow="2"
     inkscape:pageopacity="0.0"
     borderopacity="1.0"
     bordercolor="#666666"
     pagecolor="#ffffff"
     id="base" />
  <metadata
     id="metadata2437">
    <rdf:RDF>
      <cc:Work
         rdf:about="">
        <dc:format>image/svg+xml</dc:format>
        <dc:type
           rdf:resource="http://purl.org/dc/dcmitype/StillImage" />
        <dc:title></dc:title>
      </cc:Work>
    </rdf:RDF>
  </metadata>
  <g
     transform="translate(-29.131485,-25.248007)"
     id="layer1"
     inkscape:groupmode="layer"
     inkscape:label="Layer 1">
    <path
       inkscape:connector-curvature="0"
       d="m 64.052141,31.325216 a 0.91453846,0.91453846 0 0 0 -0.787548,0.457233 l -7.216098,12.498668 a 0.91451687,0.91451687 0 0 0 0.792096,1.371699 h 14.432194 a 0.9145279,0.9145279 0 0 0 0.791682,-1.372112 L 64.848371,31.782449 a 0.91453846,0.91453846 0 0 0 -0.79623,-0.457233 z m -7.256612,15.562047 a 0.91453863,0.91453863 0 0 0 -0.792096,1.371699 l 7.216096,12.498668 a 0.91451702,0.91451702 0 0 0 1.583781,0 L 72.019405,48.258962 A 0.91452758,0.91452758 0 0 0 71.22731,46.887263 Z m 17.136318,1.53789 a 0.9145279,0.9145279 0 0 0 -0.787963,0.457234 l -7.215682,12.498667 a 0.91453846,0.91453846 0 0 0 0.0021,0.918187 0.91453846,0.91453846 0 0 0 0.790028,0.4531 l 14.431781,4.13e-4 a 0.91451687,0.91451687 0 0 0 0.792065,-1.372113 L 74.728078,48.881973 a 0.9145279,0.9145279 0 0 0 -0.796231,-0.45682 z m -19.8268,0.03886 a 0.91451687,0.91451687 0 0 0 -0.787962,0.457647 l -7.216097,12.498668 a 0.9145279,0.9145279 0 0 0 0.79251,1.371287 h 14.431781 a 0.91453846,0.91453846 0 0 0 0.794163,-0.460955 0.91453846,0.91453846 0 0 0 -0.0025,-0.910745 L 54.901278,48.921247 a 0.91451687,0.91451687 0 0 0 -0.796231,-0.457233 z m 12.637576,15.57445 a 0.91451702,0.91451702 0 0 0 -0.792097,1.371699 l 7.216098,12.498669 a 0.91452758,0.91452758 0 0 0 1.584191,-4.15e-4 l 7.215683,-12.498254 a 0.91453863,0.91453863 0 0 0 -0.791682,-1.371699 z m -19.826801,0.03886 a 0.91452758,0.91452758 0 0 0 -0.792096,1.372112 l 7.216097,12.498254 a 0.91453863,0.91453863 0 0 0 1.583779,0 l 7.216097,-12.498666 a 0.91451702,0.91451702 0 0 0 -0.791682,-1.371697 z m -2.680146,1.492827 a 0.9145279,0.9145279 0 0 0 -0.787962,0.457234 L 36.23203,78.526051 a 0.91453846,0.91453846 0 0 0 0.0025,0.918187 h -4.14e-4 a 0.91453846,0.91453846 0 0 0 0.790029,0.4531 l 14.432194,4.12e-4 a 0.91451687,0.91451687 0 0 0 0.791664,-1.372109 L 45.031906,66.026972 a 0.9145279,0.9145279 0 0 0 -0.79623,-0.456819 z m 39.56513,0.03886 a 0.91451687,0.91451687 0 0 0 -0.787549,0.457647 L 75.79716,78.565326 a 0.9145279,0.9145279 0 0 0 0.792509,1.371286 H 91.02145 a 0.91453846,0.91453846 0 0 0 0.794162,-0.460954 0.91453846,0.91453846 0 0 0 -0.0025,-0.910745 L 84.597036,66.066247 a 0.91451687,0.91451687 0 0 0 -0.79623,-0.457234 z m -19.748665,0.0062 a 0.91453846,0.91453846 0 0 0 -0.787548,0.457234 l -7.216098,12.498667 a 0.91451687,0.91451687 0 0 0 0.792096,1.371699 h 14.432194 a 0.9145279,0.9145279 0 0 0 0.791682,-1.372112 L 64.848371,66.072449 a 0.91453846,0.91453846 0 0 0 -0.79623,-0.457234 z"
       style="fill:#00ff00;stroke-width:0.124713;stroke-dashoffset:43.2;paint-order:stroke fill markers;fill-opacity:1"
       id="path844" />
  </g>
</svg>
