<?xml version="1.0" encoding="UTF-8" standalone="no"?>
<svg
   xmlns:dc="http://purl.org/dc/elements/1.1/"
   xmlns:cc="http://creativecommons.org/ns#"
   xmlns:rdf="http://www.w3.org/1999/02/22-rdf-syntax-ns#"
   xmlns:svg="http://www.w3.org/2000/svg"
   xmlns="http://www.w3.org/2000/svg"
   xmlns:sodipodi="http://sodipodi.sourceforge.net/DTD/sodipodi-0.dtd"
   xmlns:inkscape="http://www.inkscape.org/namespaces/inkscape"
   width="63.165653mm"
   height="60.074371mm"
   viewBox="0 0 63.165653 60.074371"
   version="1.1"
   id="svg8"
   inkscape:version="1.0beta2 (2b71d25, 2019-12-03)"
   sodipodi:docname="shengshou-gigaminx-icon.svg">
  <defs
     id="defs2">
    <inkscape:path-effect
       effect="fillet_chamfer"
       id="path-effect2085"
       is_visible="true"
       lpeversion="1"
       satellites_param="F,0,0,1,0,2.38125,0,1 @ F,0,0,1,0,2.38125,0,1 @ F,0,0,1,0,2.38125,0,1 @ F,0,0,1,0,2.38125,0,1 | F,0,0,1,0,2.38125,0,1 @ F,0,0,1,0,2.38125,0,1 @ F,0,0,1,0,2.38125,0,1 @ F,0,0,1,0,2.38125,0,1 @ F,0,0,1,0,2.38125,0,1 | F,0,0,1,0,2.38125,0,1 @ F,0,0,1,0,2.38125,0,1 @ F,0,0,1,0,2.38125,0,1 @ F,0,0,1,0,2.38125,0,1 | F,0,0,1,0,2.38125,0,1 @ F,0,0,1,0,2.38125,0,1 @ F,0,0,1,0,2.38125,0,1 @ F,0,0,1,0,2.38125,0,1 | F,0,0,1,0,2.38125,0,1 @ F,0,0,1,0,2.38125,0,1 @ F,0,0,1,0,2.38125,0,1 @ F,0,0,1,0,2.38125,0,1 | F,0,0,1,0,2.38125,0,1 @ F,0,0,1,0,2.38125,0,1 @ F,0,0,1,0,2.38125,0,1 @ F,0,0,1,0,2.38125,0,1 | F,0,0,1,0,2.38125,0,1 @ F,0,0,1,0,2.38125,0,1 @ F,0,0,1,0,2.38125,0,1 @ F,0,0,1,0,2.38125,0,1 | F,0,0,1,0,2.38125,0,1 @ F,0,0,1,0,2.38125,0,1 @ F,0,0,1,0,2.38125,0,1 @ F,0,0,1,0,2.38125,0,1 @ F,0,0,1,0,2.38125,0,1 | F,0,0,1,0,2.38125,0,1 @ F,0,0,1,0,2.38125,0,1 @ F,0,0,1,0,2.38125,0,1 @ F,0,0,1,0,2.38125,0,1 | F,0,0,1,0,2.38125,0,1 @ F,0,0,1,0,2.38125,0,1 @ F,0,0,1,0,2.38125,0,1 @ F,0,0,1,0,2.38125,0,1 | F,0,0,1,0,2.38125,0,1 @ F,0,0,1,0,2.38125,0,1 @ F,0,0,1,0,2.38125,0,1 @ F,0,0,1,0,2.38125,0,1 | F,0,0,1,0,2.38125,0,1 @ F,0,0,1,0,2.38125,0,1 @ F,0,0,1,0,2.38125,0,1 @ F,0,0,1,0,2.38125,0,1 | F,0,0,1,0,2.38125,0,1 @ F,0,0,1,0,2.38125,0,1 @ F,0,0,1,0,2.38125,0,1 @ F,0,0,1,0,2.38125,0,1 | F,0,0,1,0,2.38125,0,1 @ F,0,0,1,0,2.38125,0,1 @ F,0,0,1,0,2.38125,0,1 @ F,0,0,1,0,2.38125,0,1 | F,0,0,1,0,2.38125,0,1 @ F,0,0,1,0,2.38125,0,1 @ F,0,0,1,0,2.38125,0,1 @ F,0,0,1,0,2.38125,0,1 @ F,0,0,1,0,2.38125,0,1 | F,0,0,1,0,2.38125,0,1 @ F,0,0,1,0,2.38125,0,1 @ F,0,0,1,0,2.38125,0,1 @ F,0,0,1,0,2.38125,0,1 | F,0,0,1,0,2.38125,0,1 @ F,0,0,1,0,2.38125,0,1 @ F,0,0,1,0,2.38125,0,1 @ F,0,0,1,0,2.38125,0,1 | F,0,0,1,0,2.38125,0,1 @ F,0,0,1,0,2.38125,0,1 @ F,0,0,1,0,2.38125,0,1 @ F,0,0,1,0,2.38125,0,1 | F,0,0,1,0,2.38125,0,1 @ F,0,0,1,0,2.38125,0,1 @ F,0,0,1,0,2.38125,0,1 @ F,0,0,1,0,2.38125,0,1 @ F,0,0,1,0,2.38125,0,1 | F,0,0,1,0,2.38125,0,1 @ F,0,0,1,0,2.38125,0,1 @ F,0,0,1,0,2.38125,0,1 @ F,0,0,1,0,2.38125,0,1 | F,0,0,1,0,2.38125,0,1 @ F,0,0,1,0,2.38125,0,1 @ F,0,0,1,0,2.38125,0,1 @ F,0,0,1,0,2.38125,0,1 | F,0,0,1,0,2.38125,0,1 @ F,0,0,1,0,2.38125,0,1 @ F,0,0,1,0,2.38125,0,1 @ F,0,0,1,0,2.38125,0,1 | F,0,0,1,0,2.38125,0,1 @ F,0,0,1,0,2.38125,0,1 @ F,0,0,1,0,2.38125,0,1 @ F,0,0,1,0,2.38125,0,1 | F,0,0,1,0,2.38125,0,1 @ F,0,0,1,0,2.38125,0,1 @ F,0,0,1,0,2.38125,0,1 @ F,0,0,1,0,2.38125,0,1 | F,0,0,1,0,2.38125,0,1 @ F,0,0,1,0,2.38125,0,1 @ F,0,0,1,0,2.38125,0,1 @ F,0,0,1,0,2.38125,0,1 | F,0,0,1,0,2.38125,0,1 @ F,0,0,1,0,2.38125,0,1 @ F,0,0,1,0,2.38125,0,1 @ F,0,0,1,0,2.38125,0,1 | F,0,0,1,0,2.38125,0,1 @ F,0,0,1,0,2.38125,0,1 @ F,0,0,1,0,2.38125,0,1 @ F,0,0,1,0,2.38125,0,1 | F,0,0,1,0,2.38125,0,1 @ F,0,0,1,0,2.38125,0,1 @ F,0,0,1,0,2.38125,0,1 @ F,0,0,1,0,2.38125,0,1 | F,0,0,1,0,2.38125,0,1 @ F,0,0,1,0,2.38125,0,1 @ F,0,0,1,0,2.38125,0,1 @ F,0,0,1,0,2.38125,0,1 | F,0,0,1,0,2.38125,0,1 @ F,0,0,1,0,2.38125,0,1 @ F,0,0,1,0,2.38125,0,1 @ F,0,0,1,0,2.38125,0,1 | F,0,0,1,0,2.38125,0,1 @ F,0,0,1,0,2.38125,0,1 @ F,0,0,1,0,2.38125,0,1 @ F,0,0,1,0,2.38125,0,1"
       unit="px"
       method="auto"
       mode="F"
       radius="9"
       chamfer_steps="1"
       flexible="false"
       use_knot_distance="true"
       apply_no_radius="true"
       apply_with_radius="true"
       only_selected="false"
       hide_knots="false" />
  </defs>
  <sodipodi:namedview
     id="base"
     pagecolor="#ffffff"
     bordercolor="#666666"
     borderopacity="1.0"
     inkscape:pageopacity="0.0"
     inkscape:pageshadow="2"
     inkscape:zoom="1.4"
     inkscape:cx="-40.604141"
     inkscape:cy="185.72651"
     inkscape:document-units="mm"
     inkscape:current-layer="layer1"
     inkscape:document-rotation="0"
     showgrid="false"
     inkscape:window-width="1440"
     inkscape:window-height="773"
     inkscape:window-x="0"
     inkscape:window-y="23"
     inkscape:window-maximized="0"
     fit-margin-top="0"
     fit-margin-left="0"
     fit-margin-right="0"
     fit-margin-bottom="0"
     showguides="false" />
  <metadata
     id="metadata5">
    <rdf:RDF>
      <cc:Work
         rdf:about="">
        <dc:format>image/svg+xml</dc:format>
        <dc:type
           rdf:resource="http://purl.org/dc/dcmitype/StillImage" />
        <dc:title></dc:title>
      </cc:Work>
    </rdf:RDF>
  </metadata>
  <g
     inkscape:label="Layer 1"
     inkscape:groupmode="layer"
     id="layer1"
     transform="translate(-54.425616,-72.896324)">
    <path
       inkscape:connector-curvature="0"
       id="path2147"
       style="fill:#00ff00;fill-opacity:1;stroke-width:0.234571;stroke-dashoffset:43.2;paint-order:stroke fill markers"
       d="m 85.993356,78.985907 a 0.69371922,0.69371922 0 0 0 -0.392329,0.132291 l -4.220931,3.066273 a 0.36621087,0.36621087 0 0 0 0,0.592832 l 4.220931,3.066273 a 0.69371918,0.69371918 0 0 0 0.815247,0 l 4.220932,-3.066273 a 0.36621082,0.36621082 0 0 0 0,-0.592832 l -4.220932,-3.066273 a 0.69371922,0.69371922 0 0 0 -0.422918,-0.132291 z m -6.124692,4.449961 a 0.69371918,0.69371918 0 0 0 -0.392328,0.132291 l -4.22093,3.066273 a 0.36621085,0.36621085 0 0 0 0,0.592832 l 4.22093,3.066273 a 0.69371478,0.69371478 0 0 0 0.815248,0 l 3.375917,-2.452357 a 28011.765,28011.765 0 0 1 0.815249,-0.592832 l 0.02976,-0.02108 a 0.36619935,0.36619935 0 0 0 0,-0.592832 l -4.220926,-3.066277 a 0.69371918,0.69371918 0 0 0 -0.42292,-0.132291 z m 12.249796,4.13e-4 a 0.69379763,0.69379763 0 0 0 -0.392329,0.132292 l -4.221344,3.065859 a 0.36617514,0.36617514 0 0 0 0,0.592832 l 4.220932,3.066273 a 0.69371925,0.69371925 0 0 0 0.815247,0 l 4.220931,-3.066273 a 0.36620513,0.36620513 0 0 0 0,-0.592832 L 92.541378,83.568573 A 0.69379763,0.69379763 0 0 0 92.11846,83.436281 Z m 6.144946,4.438385 a 0.65332533,0.65332533 0 0 0 -0.412998,0.143041 l -4.22093,3.066273 a 0.36621635,0.36621635 0 0 0 0,0.592832 l 3.064618,2.22622 a 0.36618509,0.36618509 0 0 0 0.56348,-0.183141 L 98.869469,88.75854 A 0.69388576,0.69388576 0 0 0 98.6177,87.982567 0.65332533,0.65332533 0 0 0 98.263406,87.874666 Z m -24.519433,0.01116 a 0.69370771,0.69370771 0 0 0 -0.392327,0.132291 0.65405575,0.65405575 0 0 0 -0.204639,0.741247 l 1.612305,4.961764 a 0.36620215,0.36620215 0 0 0 0.56348,0.182728 l 3.065032,-2.226634 a 0.36622352,0.36622352 0 0 0 0,-0.592832 l -4.220931,-3.066273 a 0.69370771,0.69370771 0 0 0 -0.42292,-0.132291 z m 12.249383,0 a 0.69371918,0.69371918 0 0 0 -0.392329,0.132291 L 81.38051,91.08439 a 0.36620524,0.36620524 0 0 0 0,0.592832 l 4.22093,3.065859 a 0.69379752,0.69379752 0 0 0 0.815249,0 l 4.22093,-3.065859 a 0.36617514,0.36617514 0 0 0 0,-0.592832 l -4.221345,-3.06627 a 0.69371918,0.69371918 0 0 0 -0.422918,-0.132291 z m 14.308994,1.410559 a 0.36619053,0.36619053 0 0 0 -0.344371,0.253008 l -1.61189,4.961351 a 0.69375768,0.69375768 0 0 0 0.251767,0.775973 l 4.220934,3.066273 a 0.36619053,0.36619053 0 0 0 0.56348,-0.183141 l 1.61189,-4.961351 a 0.69375768,0.69375768 0 0 0 -0.25177,-0.775973 l -4.22093,-3.066273 a 0.36619053,0.36619053 0 0 0 -0.21911,-0.06987 z m -28.599802,4.14e-4 a 0.36619053,0.36619053 0 0 0 -0.20712,0.06987 l -4.220931,3.066273 a 0.69378916,0.69378916 0 0 0 -0.251767,0.775973 l 1.172848,3.610736 a 5328.8501,5328.8501 0 0 0 0.311712,0.958701 l 0.127331,0.392328 a 0.36624674,0.36624674 0 0 0 0.56348,0.182728 l 4.220931,-3.066273 a 0.69375773,0.69375773 0 0 0 0.251767,-0.775973 l -1.611891,-4.961351 a 0.36619053,0.36619053 0 0 0 -0.35636,-0.253008 z m 20.415497,3.038574 a 0.69370379,0.69370379 0 0 0 -0.392326,0.132292 l -4.220932,3.066272 a 0.36619804,0.36619804 0 0 0 0,0.592832 l 6.850227,4.976231 a 0.36621121,0.36621121 0 0 0 0.56348,-0.18314 l 1.611891,-4.960933 a 0.69375819,0.69375819 0 0 0 -0.251767,-0.775973 l -3.737652,-2.715286 a 0.69370379,0.69370379 0 0 0 -0.422921,-0.132292 z m -12.249381,4.13e-4 a 0.69377451,0.69377451 0 0 0 -0.392328,0.132292 l -3.738066,2.715286 a 0.69372655,0.69372655 0 0 0 -0.251767,0.775974 l 1.611891,4.960932 a 0.36620754,0.36620754 0 0 0 0.56348,0.18315 l 6.850641,-4.976651 a 0.36618106,0.36618106 0 0 0 0,-0.592832 l -4.220931,-3.065859 a 0.69377451,0.69377451 0 0 0 -0.42292,-0.132292 z m 26.558786,1.41056 a 0.3661998,0.3661998 0 0 0 -0.34437,0.253008 l -1.6123,4.961351 a 0.69367247,0.69367247 0 0 0 0.25177,0.775973 l 4.22092,3.065862 a 0.36621914,0.36621914 0 0 0 0.56348,-0.18314 l 1.61189,-4.960941 a 0.69377113,0.69377113 0 0 0 -0.25176,-0.775973 l -4.22052,-3.066273 a 0.3661998,0.3661998 0 0 0 -0.21911,-0.06987 z m -40.850007,4.14e-4 a 0.3661998,0.3661998 0 0 0 -0.207119,0.06987 l -4.220517,3.066273 a 0.69377125,0.69377125 0 0 0 -0.251768,0.775973 l 1.611891,4.960934 a 0.36621904,0.36621904 0 0 0 0.56348,0.18315 l 4.220931,-3.065864 a 0.69367255,0.69367255 0 0 0 0.251768,-0.775974 l -1.612305,-4.961351 a 0.3661998,0.3661998 0 0 0 -0.356361,-0.253007 z m 32.385413,2.749599 a 0.36619055,0.36619055 0 0 0 -0.344371,0.253008 l -1.611891,4.961353 a 0.69375768,0.69375768 0 0 0 0.251767,0.77597 l 4.220929,3.06627 a 0.36619053,0.36619053 0 0 0 0.56348,-0.18314 l 1.61189,-4.96135 a 0.69375766,0.69375766 0 0 0 -0.25176,-0.775969 l -4.220935,-3.066272 a 0.36619055,0.36619055 0 0 0 -0.219109,-0.06987 z m -23.920813,8.27e-4 a 0.36619842,0.36619842 0 0 0 -0.207119,0.06987 l -4.220931,3.066272 a 0.69378882,0.69378882 0 0 0 -0.251768,0.775972 l 1.611478,4.96094 a 0.36618911,0.36618911 0 0 0 0.56348,0.18314 l 4.221344,-3.06627 a 0.69371429,0.69371429 0 0 0 0.251768,-0.77598 l -1.611891,-4.960933 a 0.36619842,0.36619842 0 0 0 -0.356361,-0.253008 z m 11.951313,0.288148 a 0.69371586,0.69371586 0 0 0 -0.392329,0.132292 l -7.523261,5.465714 a 0.6937412,0.6937412 0 0 0 -0.251768,0.77597 l 2.87321,8.84246 a 0.69375282,0.69375282 0 0 0 0.659804,0.47956 h 9.298863 a 0.69374386,0.69374386 0 0 0 0.659805,-0.47956 l 2.87321,-8.84287 a 0.69374369,0.69374369 0 0 0 -0.251767,-0.77597 l -7.522849,-5.465301 a 0.69371586,0.69371586 0 0 0 -0.422918,-0.132292 z m -18.076417,4.161396 a 0.3661755,0.3661755 0 0 0 -0.207119,0.0699 l -4.220518,3.06628 a 0.69377121,0.69377121 0 0 0 -0.251767,0.77597 l 1.611891,4.96094 a 0.36620405,0.36620405 0 0 0 0.56348,0.18314 l 4.220517,-3.06586 a 0.69374702,0.69374702 0 0 0 0.251768,-0.77597 L 68.2733,101.19974 a 0.3661755,0.3661755 0 0 0 -0.356361,-0.253 z m 36.171021,0 a 0.36620399,0.36620399 0 0 0 -0.34437,0.25301 l -1.61189,4.96094 a 0.69373218,0.69373218 0 0 0 0.25176,0.77598 l 4.22052,3.06586 a 0.36620399,0.36620399 0 0 0 0.56348,-0.18315 l 1.61189,-4.96094 a 0.69373218,0.69373218 0 0 0 -0.25177,-0.77597 l -4.22051,-3.06586 a 0.36620399,0.36620399 0 0 0 -0.21911,-0.0699 z m -8.464599,2.7496 a 0.36620549,0.36620549 0 0 0 -0.344371,0.25342 l -2.616068,8.05202 a 0.36620452,0.36620452 0 0 0 0.348092,0.47956 h 5.217253 a 0.69374611,0.69374611 0 0 0 0.659805,-0.47956 l 0.402249,-1.23816 a 18392.777,18392.777 0 0 1 0.311711,-0.95912 l 0.713548,-2.19563 a 0.69367446,0.69367446 0 0 0 -0.25177,-0.77597 l -4.221342,-3.06628 a 0.36620549,0.36620549 0 0 0 -0.219107,-0.0703 z m -19.242236,4.2e-4 a 0.3661904,0.3661904 0 0 0 -0.207119,0.0699 l -4.220931,3.06627 a 0.69371954,0.69371954 0 0 0 -0.251768,0.77597 l 1.42751,4.39291 a 0.6937696,0.6937696 0 0 0 0.659805,0.47956 h 5.216839 a 0.36620452,0.36620452 0 0 0 0.348092,-0.47956 l -2.616067,-8.05201 a 0.3661904,0.3661904 0 0 0 -0.356361,-0.25301 z m -6.124691,4.44996 a 0.3661999,0.3661999 0 0 0 -0.207119,0.0699 l -4.220931,3.06627 a 0.69374168,0.69374168 0 0 0 -0.251767,0.77597 0.65342727,0.65342727 0 0 0 0.641201,0.42251 h 5.217252 a 0.36619499,0.36619499 0 0 0 0.348093,-0.47956 l -1.170368,-3.60205 a 0.3661999,0.3661999 0 0 0 -0.356361,-0.25301 z m 31.492026,0 a 0.36618485,0.36618485 0 0 0 -0.34437,0.25301 l -1.17036,3.60205 a 0.36619506,0.36619506 0 0 0 0.34809,0.47956 h 5.21684 a 0.69374824,0.69374824 0 0 0 0.6598,-0.47956 0.65344803,0.65344803 0 0 0 -0.27037,-0.71892 l -4.22052,-3.06627 a 0.36618485,0.36618485 0 0 0 -0.21911,-0.0699 z m -35.11475,5.61413 a 0.36620437,0.36620437 0 0 0 -0.348093,0.47956 l 1.611892,4.96135 a 0.69373146,0.69373146 0 0 0 0.659804,0.47955 h 5.216839 a 0.36620437,0.36620437 0 0 0 0.348093,-0.47955 l -1.611892,-4.96135 a 0.69373146,0.69373146 0 0 0 -0.659804,-0.47956 z m 7.57039,0 a 0.36618005,0.36618005 0 0 0 -0.348092,0.47956 l 1.612305,4.96135 a 0.69377754,0.69377754 0 0 0 0.659804,0.47955 h 5.216839 a 0.36620437,0.36620437 0 0 0 0.348093,-0.47955 l -1.611892,-4.96135 a 0.69373146,0.69373146 0 0 0 -0.659804,-0.47956 z m 7.570804,0 a 0.36620437,0.36620437 0 0 0 -0.348092,0.47956 l 1.611891,4.96135 a 0.69373148,0.69373148 0 0 0 0.659805,0.47955 h 4.620285 a 0.69373144,0.69373144 0 0 0 0.659806,-0.47955 l 1.61189,-4.96135 a 0.36620439,0.36620439 0 0 0 -0.348092,-0.47956 z m 10.820219,0 a 0.69368544,0.69368544 0 0 0 -0.659806,0.47956 l -1.611477,4.96135 a 0.36622867,0.36622867 0 0 0 0.348092,0.47955 h 5.21684 a 0.69373144,0.69373144 0 0 0 0.659803,-0.47955 l 1.611893,-4.96135 a 0.36620439,0.36620439 0 0 0 -0.348092,-0.47956 z m 7.571217,0 a 0.69377743,0.69377743 0 0 0 -0.659806,0.47956 l -1.612305,4.96135 a 0.36618011,0.36618011 0 0 0 0.348095,0.47955 h 5.216836 a 0.69373144,0.69373144 0 0 0 0.65981,-0.47955 l 1.61189,-4.96135 a 0.36620439,0.36620439 0 0 0 -0.3481,-0.47956 z m -31.193548,7.19997 a 0.36620437,0.36620437 0 0 0 -0.348093,0.47956 l 1.611892,4.96135 a 0.69373146,0.69373146 0 0 0 0.659804,0.47956 h 5.217253 a 0.36620437,0.36620437 0 0 0 0.348092,-0.47956 l -1.611891,-4.96135 a 0.69373146,0.69373146 0 0 0 -0.659805,-0.47956 z m 7.570804,0 a 0.36620437,0.36620437 0 0 0 -0.348093,0.47956 l 1.611892,4.96135 a 0.69373146,0.69373146 0 0 0 0.659804,0.47956 h 5.217252 a 0.36620439,0.36620439 0 0 0 0.348092,-0.47956 l -1.61189,-4.96135 a 0.69373144,0.69373144 0 0 0 -0.659805,-0.47956 z m 7.570803,0 a 0.36620439,0.36620439 0 0 0 -0.348092,0.47956 l 1.61189,4.96135 a 0.69373144,0.69373144 0 0 0 0.659806,0.47956 0.6538818,0.6538818 0 0 0 0.601101,-0.47956 l 1.61189,-4.96135 a 0.36620439,0.36620439 0 0 0 -0.348092,-0.47956 z m 6.141642,0 a 0.69373144,0.69373144 0 0 0 -0.659805,0.47956 l -1.611893,4.96135 a 0.36620439,0.36620439 0 0 0 0.348094,0.47956 h 5.217251 a 0.69373144,0.69373144 0 0 0 0.659806,-0.47956 l 1.611892,-4.96135 a 0.36620439,0.36620439 0 0 0 -0.348094,-0.47956 z m 7.570802,0 a 0.69373144,0.69373144 0 0 0 -0.659803,0.47956 l -1.611892,4.96135 a 0.36620439,0.36620439 0 0 0 0.348092,0.47956 h 5.21684 a 0.69373144,0.69373144 0 0 0 0.6598,-0.47956 l 1.6119,-4.96135 a 0.36620439,0.36620439 0 0 0 -0.3481,-0.47956 z" />
  </g>
</svg>
