<?xml version="1.0" encoding="UTF-8" standalone="no"?>
<svg
   xmlns:dc="http://purl.org/dc/elements/1.1/"
   xmlns:cc="http://creativecommons.org/ns#"
   xmlns:rdf="http://www.w3.org/1999/02/22-rdf-syntax-ns#"
   xmlns:svg="http://www.w3.org/2000/svg"
   xmlns="http://www.w3.org/2000/svg"
   xmlns:sodipodi="http://sodipodi.sourceforge.net/DTD/sodipodi-0.dtd"
   xmlns:inkscape="http://www.inkscape.org/namespaces/inkscape"
   width="63.137512mm"
   height="63.137516mm"
   viewBox="0 0 63.137512 63.137516"
   version="1.1"
   id="svg8"
   inkscape:version="1.0beta2 (2b71d25, 2019-12-03)"
   sodipodi:docname="shengshou-6x6-icon.svg">
  <defs
     id="defs2" />
  <sodipodi:namedview
     id="base"
     pagecolor="#ffffff"
     bordercolor="#666666"
     borderopacity="1.0"
     inkscape:pageopacity="0.0"
     inkscape:pageshadow="2"
     inkscape:zoom="1.1275568"
     inkscape:cx="-47.72887"
     inkscape:cy="150.97649"
     inkscape:document-units="mm"
     inkscape:current-layer="layer1"
     inkscape:document-rotation="0"
     showgrid="false"
     inkscape:snap-bbox="true"
     fit-margin-top="0"
     fit-margin-left="0"
     fit-margin-right="0"
     fit-margin-bottom="0"
     inkscape:window-width="1440"
     inkscape:window-height="775"
     inkscape:window-x="0"
     inkscape:window-y="23"
     inkscape:window-maximized="0" />
  <metadata
     id="metadata5">
    <rdf:RDF>
      <cc:Work
         rdf:about="">
        <dc:format>image/svg+xml</dc:format>
        <dc:type
           rdf:resource="http://purl.org/dc/dcmitype/StillImage" />
        <dc:title />
      </cc:Work>
    </rdf:RDF>
  </metadata>
  <g
     inkscape:label="Layer 1"
     inkscape:groupmode="layer"
     id="layer1"
     transform="translate(-23.111965,-23.046638)">
    <path
       inkscape:connector-curvature="0"
       id="rect931"
       style="opacity:0.98;fill:#00ff00;fill-opacity:1;stroke:none;stroke-width:1.0327;stroke-dashoffset:43.2;paint-order:stroke fill markers"
       d="m 30.534392,29.360297 c -0.614197,0 -1.10877,0.494573 -1.10877,1.10877 v 5.142425 c 0,0.614196 0.494573,1.108769 1.10877,1.108769 h 5.142425 c 0.614196,0 1.108769,-0.494573 1.108769,-1.108769 v -5.142425 c 0,-0.614197 -0.494573,-1.10877 -1.108769,-1.10877 z m 8.629964,0 c -0.614197,0 -1.10877,0.494573 -1.10877,1.10877 v 5.142425 c 0,0.614196 0.494573,1.108769 1.10877,1.108769 h 5.142425 c 0.614197,0 1.108769,-0.494573 1.108769,-1.108769 v -5.142425 c 0,-0.614197 -0.494572,-1.10877 -1.108769,-1.10877 z m 8.629964,0 c -0.614197,0 -1.10877,0.494573 -1.10877,1.10877 v 5.142425 c 0,0.614196 0.494573,1.108769 1.10877,1.108769 h 5.142837 c 0.614197,0 1.108357,-0.494573 1.108357,-1.108769 v -5.142425 c 0,-0.614197 -0.49416,-1.10877 -1.108357,-1.10877 z m 8.629963,0 c -0.614195,0 -1.108769,0.494573 -1.108769,1.10877 v 5.142425 c 0,0.614196 0.494574,1.108769 1.108769,1.108769 h 5.142839 c 0.614198,0 1.108357,-0.494573 1.108357,-1.108769 v -5.142425 c 0,-0.614197 -0.494159,-1.10877 -1.108357,-1.10877 z m 8.629965,0 c -0.614195,0 -1.108769,0.494573 -1.108769,1.10877 v 5.142425 c 0,0.614196 0.494574,1.108769 1.108769,1.108769 h 5.142838 c 0.614197,0 1.108356,-0.494573 1.108356,-1.108769 v -5.142425 c 0,-0.614197 -0.494159,-1.10877 -1.108356,-1.10877 z m 8.629963,0 c -0.614195,0 -1.108769,0.494573 -1.108769,1.10877 v 5.142425 c 0,0.614196 0.494574,1.108769 1.108769,1.108769 h 5.14284 c 0.614195,0 1.108769,-0.494573 1.108769,-1.108769 v -5.142425 c 0,-0.614197 -0.494574,-1.10877 -1.108769,-1.10877 z m -43.149819,8.629964 c -0.614197,0 -1.10877,0.494573 -1.10877,1.10877 v 5.142425 c 0,0.614197 0.494573,1.108769 1.10877,1.108769 h 5.142425 c 0.614196,0 1.108769,-0.494572 1.108769,-1.108769 v -5.142425 c 0,-0.614197 -0.494573,-1.10877 -1.108769,-1.10877 z m 8.629964,0 c -0.614197,0 -1.10877,0.494573 -1.10877,1.10877 v 5.142425 c 0,0.614197 0.494573,1.108769 1.10877,1.108769 h 5.142425 c 0.614197,0 1.108769,-0.494572 1.108769,-1.108769 v -5.142425 c 0,-0.614197 -0.494572,-1.10877 -1.108769,-1.10877 z m 8.629964,0 c -0.614197,0 -1.10877,0.494573 -1.10877,1.10877 v 5.142425 c 0,0.614197 0.494573,1.108769 1.10877,1.108769 h 5.142837 c 0.614197,0 1.108357,-0.494572 1.108357,-1.108769 v -5.142425 c 0,-0.614197 -0.49416,-1.10877 -1.108357,-1.10877 z m 8.629963,0 c -0.614195,0 -1.108769,0.494573 -1.108769,1.10877 v 5.142425 c 0,0.614197 0.494574,1.108769 1.108769,1.108769 h 5.142839 c 0.614198,0 1.108357,-0.494572 1.108357,-1.108769 v -5.142425 c 0,-0.614197 -0.494159,-1.10877 -1.108357,-1.10877 z m 8.629965,0 c -0.614195,0 -1.108769,0.494573 -1.108769,1.10877 v 5.142425 c 0,0.614197 0.494574,1.108769 1.108769,1.108769 h 5.142838 c 0.614197,0 1.108356,-0.494572 1.108356,-1.108769 v -5.142425 c 0,-0.614197 -0.494159,-1.10877 -1.108356,-1.10877 z m 8.629963,0 c -0.614195,0 -1.108769,0.494573 -1.108769,1.10877 v 5.142425 c 0,0.614197 0.494574,1.108769 1.108769,1.108769 h 5.14284 c 0.614195,0 1.108769,-0.494572 1.108769,-1.108769 v -5.142425 c 0,-0.614197 -0.494574,-1.10877 -1.108769,-1.10877 z m -43.149819,8.629964 c -0.614197,0 -1.10877,0.494573 -1.10877,1.10877 v 5.142837 c 0,0.614197 0.494573,1.108357 1.10877,1.108357 h 5.142425 c 0.614196,0 1.108769,-0.49416 1.108769,-1.108357 v -5.142837 c 0,-0.614197 -0.494573,-1.10877 -1.108769,-1.10877 z m 8.629964,0 c -0.614197,0 -1.10877,0.494573 -1.10877,1.10877 v 5.142837 c 0,0.614197 0.494573,1.108357 1.10877,1.108357 h 5.142425 c 0.614197,0 1.108769,-0.49416 1.108769,-1.108357 v -5.142837 c 0,-0.614197 -0.494572,-1.10877 -1.108769,-1.10877 z m 8.629964,0 c -0.614197,0 -1.10877,0.494573 -1.10877,1.10877 v 5.142837 c 0,0.614197 0.494573,1.108357 1.10877,1.108357 h 5.142837 c 0.614197,0 1.108357,-0.49416 1.108357,-1.108357 v -5.142837 c 0,-0.614197 -0.49416,-1.10877 -1.108357,-1.10877 z m 8.629963,0 c -0.614195,0 -1.108769,0.494573 -1.108769,1.10877 v 5.142837 c 0,0.614197 0.494574,1.108357 1.108769,1.108357 h 5.142839 c 0.614198,0 1.108357,-0.49416 1.108357,-1.108357 v -5.142837 c 0,-0.614197 -0.494159,-1.10877 -1.108357,-1.10877 z m 8.629965,0 c -0.614195,0 -1.108769,0.494573 -1.108769,1.10877 v 5.142837 c 0,0.614197 0.494574,1.108357 1.108769,1.108357 h 5.142838 c 0.614197,0 1.108356,-0.49416 1.108356,-1.108357 v -5.142837 c 0,-0.614197 -0.494159,-1.10877 -1.108356,-1.10877 z m 8.629963,0 c -0.614195,0 -1.108769,0.494573 -1.108769,1.10877 v 5.142837 c 0,0.614197 0.494574,1.108357 1.108769,1.108357 h 5.14284 c 0.614195,0 1.108769,-0.49416 1.108769,-1.108357 v -5.142837 c 0,-0.614197 -0.494574,-1.10877 -1.108769,-1.10877 z m -43.149819,8.629964 c -0.614197,0 -1.10877,0.494574 -1.10877,1.108769 v 5.142839 c 0,0.614198 0.494573,1.108357 1.10877,1.108357 h 5.142425 c 0.614196,0 1.108769,-0.494159 1.108769,-1.108357 v -5.142839 c 0,-0.614195 -0.494573,-1.108769 -1.108769,-1.108769 z m 8.629964,0 c -0.614197,0 -1.10877,0.494574 -1.10877,1.108769 v 5.142839 c 0,0.614198 0.494573,1.108357 1.10877,1.108357 h 5.142425 c 0.614197,0 1.108769,-0.494159 1.108769,-1.108357 v -5.142839 c 0,-0.614195 -0.494572,-1.108769 -1.108769,-1.108769 z m 8.629964,0 c -0.614197,0 -1.10877,0.494574 -1.10877,1.108769 v 5.142839 c 0,0.614198 0.494573,1.108357 1.10877,1.108357 h 5.142837 c 0.614197,0 1.108357,-0.494159 1.108357,-1.108357 v -5.142839 c 0,-0.614195 -0.49416,-1.108769 -1.108357,-1.108769 z m 8.629963,0 c -0.614195,0 -1.108769,0.494574 -1.108769,1.108769 v 5.142839 c 0,0.614198 0.494574,1.108357 1.108769,1.108357 h 5.142839 c 0.614198,0 1.108357,-0.494159 1.108357,-1.108357 v -5.142839 c 0,-0.614195 -0.494159,-1.108769 -1.108357,-1.108769 z m 8.629965,0 c -0.614195,0 -1.108769,0.494574 -1.108769,1.108769 v 5.142839 c 0,0.614198 0.494574,1.108357 1.108769,1.108357 h 5.142838 c 0.614197,0 1.108356,-0.494159 1.108356,-1.108357 v -5.142839 c 0,-0.614195 -0.494159,-1.108769 -1.108356,-1.108769 z m 8.629963,0 c -0.614195,0 -1.108769,0.494574 -1.108769,1.108769 v 5.142839 c 0,0.614198 0.494574,1.108357 1.108769,1.108357 h 5.14284 c 0.614195,0 1.108769,-0.494159 1.108769,-1.108357 v -5.142839 c 0,-0.614195 -0.494574,-1.108769 -1.108769,-1.108769 z m -43.149819,8.629965 c -0.614197,0 -1.10877,0.494572 -1.10877,1.108769 v 5.142838 c 0,0.614197 0.494573,1.108356 1.10877,1.108356 h 5.142425 c 0.614196,0 1.108769,-0.494159 1.108769,-1.108356 v -5.142838 c 0,-0.614197 -0.494573,-1.108769 -1.108769,-1.108769 z m 8.629964,0 c -0.614197,0 -1.10877,0.494572 -1.10877,1.108769 v 5.142838 c 0,0.614197 0.494573,1.108356 1.10877,1.108356 h 5.142425 c 0.614197,0 1.108769,-0.494159 1.108769,-1.108356 v -5.142838 c 0,-0.614197 -0.494572,-1.108769 -1.108769,-1.108769 z m 8.629964,0 c -0.614197,0 -1.10877,0.494572 -1.10877,1.108769 v 5.142838 c 0,0.614197 0.494573,1.108356 1.10877,1.108356 h 5.142837 c 0.614197,0 1.108357,-0.494159 1.108357,-1.108356 v -5.142838 c 0,-0.614197 -0.49416,-1.108769 -1.108357,-1.108769 z m 8.629963,0 c -0.614195,0 -1.108769,0.494572 -1.108769,1.108769 v 5.142838 c 0,0.614197 0.494574,1.108356 1.108769,1.108356 h 5.142839 c 0.614198,0 1.108357,-0.494159 1.108357,-1.108356 v -5.142838 c 0,-0.614197 -0.494159,-1.108769 -1.108357,-1.108769 z m 8.629965,0 c -0.614195,0 -1.108769,0.494572 -1.108769,1.108769 v 5.142838 c 0,0.614197 0.494574,1.108356 1.108769,1.108356 h 5.142838 c 0.614197,0 1.108356,-0.494159 1.108356,-1.108356 v -5.142838 c 0,-0.614197 -0.494159,-1.108769 -1.108356,-1.108769 z m 8.629963,0 c -0.614195,0 -1.108769,0.494572 -1.108769,1.108769 v 5.142838 c 0,0.614197 0.494574,1.108356 1.108769,1.108356 h 5.14284 c 0.614195,0 1.108769,-0.494159 1.108769,-1.108356 v -5.142838 c 0,-0.614197 -0.494574,-1.108769 -1.108769,-1.108769 z m -43.149819,8.629963 c -0.614197,0 -1.10877,0.494574 -1.10877,1.108769 v 5.14284 c 0,0.614197 0.494573,1.108769 1.10877,1.108769 h 5.142425 c 0.614196,0 1.108769,-0.494572 1.108769,-1.108769 v -5.14284 c 0,-0.614195 -0.494573,-1.108769 -1.108769,-1.108769 z m 8.629964,0 c -0.614197,0 -1.10877,0.494574 -1.10877,1.108769 v 5.14284 c 0,0.614197 0.494573,1.108769 1.10877,1.108769 h 5.142425 c 0.614197,0 1.108769,-0.494572 1.108769,-1.108769 v -5.14284 c 0,-0.614195 -0.494572,-1.108769 -1.108769,-1.108769 z m 8.629964,0 c -0.614197,0 -1.10877,0.494574 -1.10877,1.108769 v 5.14284 c 0,0.614197 0.494573,1.108769 1.10877,1.108769 h 5.142837 c 0.614197,0 1.108357,-0.494572 1.108357,-1.108769 v -5.14284 c 0,-0.614195 -0.49416,-1.108769 -1.108357,-1.108769 z m 8.629963,0 c -0.614195,0 -1.108769,0.494574 -1.108769,1.108769 v 5.14284 c 0,0.614197 0.494574,1.108769 1.108769,1.108769 h 5.142839 c 0.614198,0 1.108357,-0.494572 1.108357,-1.108769 v -5.14284 c 0,-0.614195 -0.494159,-1.108769 -1.108357,-1.108769 z m 8.629965,0 c -0.614195,0 -1.108769,0.494574 -1.108769,1.108769 v 5.14284 c 0,0.614197 0.494574,1.108769 1.108769,1.108769 h 5.142838 c 0.614197,0 1.108356,-0.494572 1.108356,-1.108769 v -5.14284 c 0,-0.614195 -0.494159,-1.108769 -1.108356,-1.108769 z m 8.629963,0 c -0.614195,0 -1.108769,0.494574 -1.108769,1.108769 v 5.14284 c 0,0.614197 0.494574,1.108769 1.108769,1.108769 h 5.14284 c 0.614195,0 1.108769,-0.494572 1.108769,-1.108769 v -5.14284 c 0,-0.614195 -0.494574,-1.108769 -1.108769,-1.108769 z" />
  </g>
</svg>
