<?xml version="1.0" encoding="UTF-8" standalone="no"?>
<svg
   xmlns:dc="http://purl.org/dc/elements/1.1/"
   xmlns:cc="http://creativecommons.org/ns#"
   xmlns:rdf="http://www.w3.org/1999/02/22-rdf-syntax-ns#"
   xmlns:svg="http://www.w3.org/2000/svg"
   xmlns="http://www.w3.org/2000/svg"
   xmlns:sodipodi="http://sodipodi.sourceforge.net/DTD/sodipodi-0.dtd"
   xmlns:inkscape="http://www.inkscape.org/namespaces/inkscape"
   sodipodi:docname="shengshou-master-pyraminx-icon.svg"
   inkscape:version="1.0beta2 (2b71d25, 2019-12-03)"
   id="svg2440"
   version="1.1"
   viewBox="0 0 81.474564 66.148514"
   height="66.148514mm"
   width="81.474564mm">
  <defs
     id="defs2434">
    <inkscape:path-effect
       hide_knots="false"
       only_selected="false"
       apply_with_radius="true"
       apply_no_radius="true"
       use_knot_distance="true"
       flexible="true"
       chamfer_steps="1"
       radius="14"
       mode="F"
       method="auto"
       unit="px"
       satellites_param="F,1,0,1,0,0.14,0,1 @ F,1,0,1,0,0.14,0,1 @ F,1,0,1,0,0.14,0,1 | F,1,0,1,0,0.14,0,1 @ F,1,0,1,0,0.14,0,1 @ F,1,0,1,0,0.14,0,1 | F,1,0,1,0,0.14,0,1 @ F,1,0,1,0,0.14,0,1 @ F,1,0,1,0,0.14,0,1 | F,1,0,1,0,0.14,0,1 @ F,1,0,1,0,0.14,0,1 @ F,1,0,1,0,0.14,0,1 | F,1,0,1,0,0.14,0,1 @ F,1,0,1,0,0.14,0,1 @ F,1,0,1,0,0.14,0,1 | F,1,0,1,0,0.14,0,1 @ F,1,0,1,0,0.14,0,1 @ F,1,0,1,0,0.14,0,1 | F,1,0,1,0,0.14,0,1 @ F,1,0,1,0,0.14,0,1 @ F,1,0,1,0,0.14,0,1 | F,1,0,1,0,0.14,0,1 @ F,1,0,1,0,0.14,0,1 @ F,1,0,1,0,0.14,0,1 | F,1,0,1,0,0.14,0,1 @ F,1,0,1,0,0.14,0,1 @ F,1,0,1,0,0.14,0,1"
       lpeversion="1"
       is_visible="true"
       id="path-effect3045"
       effect="fillet_chamfer" />
  </defs>
  <sodipodi:namedview
     inkscape:window-maximized="0"
     inkscape:window-y="23"
     inkscape:window-x="325"
     inkscape:window-height="775"
     inkscape:window-width="1115"
     showgrid="false"
     inkscape:document-rotation="0"
     inkscape:current-layer="layer1"
     inkscape:document-units="mm"
     inkscape:cy="153.1924"
     inkscape:cx="150.207"
     inkscape:zoom="0.98994949"
     inkscape:pageshadow="2"
     inkscape:pageopacity="0.0"
     borderopacity="1.0"
     bordercolor="#666666"
     pagecolor="#ffffff"
     id="base"
     inkscape:snap-bbox="true"
     fit-margin-top="0"
     fit-margin-left="0"
     fit-margin-right="0"
     fit-margin-bottom="0" />
  <metadata
     id="metadata2437">
    <rdf:RDF>
      <cc:Work
         rdf:about="">
        <dc:format>image/svg+xml</dc:format>
        <dc:type
           rdf:resource="http://purl.org/dc/dcmitype/StillImage" />
        <dc:title></dc:title>
      </cc:Work>
    </rdf:RDF>
  </metadata>
  <g
     id="layer1"
     inkscape:groupmode="layer"
     inkscape:label="Layer 1"
     transform="translate(-27.123181,-74.514217)">
    <path
       id="path3667"
       style="fill:#00ff00;stroke-width:0.102872;stroke-dashoffset:43.2;paint-order:stroke fill markers;fill-opacity:1"
       d="m 67.873689,81.129146 a 1.173462,1.173462 0 0 0 -1.029809,0.58663 l -5.226347,9.052471 a 1.1734756,1.1734756 0 0 0 1.016578,1.760307 h 10.452697 a 1.1734478,1.1734478 0 0 0 1.016165,-1.760307 l -5.226348,-9.052471 a 1.173462,1.173462 0 0 0 -1.002936,-0.58663 z m -5.239578,12.658657 a 1.1734614,1.1734614 0 0 0 -1.016578,1.760307 l 5.226347,9.05206 a 1.1734758,1.1734758 0 0 0 2.032745,0 l 5.226348,-9.05206 a 1.1734479,1.1734479 0 0 0 -1.016165,-1.760307 z m -3.490432,1.173263 a 1.173462,1.173462 0 0 0 -1.029394,0.587044 l -5.226348,9.05206 a 1.1734754,1.1734754 0 0 0 1.016164,1.7603 h 10.452696 a 1.1734476,1.1734476 0 0 0 1.01658,-1.7603 l -5.226762,-9.052472 a 1.173462,1.173462 0 0 0 -1.002936,-0.586632 z m 17.460019,0 a 1.173462,1.173462 0 0 0 -1.029806,0.587044 l -5.226349,9.05206 a 1.1734754,1.1734754 0 0 0 1.016165,1.7603 h 10.45311 a 1.1734476,1.1734476 0 0 0 1.016165,-1.7603 L 77.606221,95.547698 A 1.173462,1.173462 0 0 0 76.603698,94.961066 Z M 53.904101,107.61973 a 1.1734616,1.1734616 0 0 0 -1.016164,1.7603 l 5.226348,9.05206 a 1.1734758,1.1734758 0 0 0 2.03233,4.2e-4 l 5.226762,-9.05247 a 1.173448,1.173448 0 0 0 -1.01658,-1.76031 z m 17.459607,0 a 1.1734616,1.1734616 0 0 0 -1.016165,1.7603 l 5.226349,9.05206 a 1.1734758,1.1734758 0 0 0 2.032742,4.2e-4 l 5.226349,-9.05247 a 1.173448,1.173448 0 0 0 -1.016165,-1.76031 z m -20.991794,1.17367 a 1.173462,1.173462 0 0 0 -0.987639,0.58663 l -5.226348,9.05206 a 1.1734755,1.1734755 0 0 0 1.016165,1.76031 h 10.453109 a 1.1734478,1.1734478 0 0 0 1.016166,-1.7599 l -5.226762,-9.05247 a 1.173462,1.173462 0 0 0 -1.044691,-0.58663 z m 17.460019,0 a 1.173462,1.173462 0 0 0 -0.988053,0.58663 l -5.226347,9.05206 a 1.1734755,1.1734755 0 0 0 1.016578,1.76031 h 10.452697 a 1.1734478,1.1734478 0 0 0 1.016165,-1.7599 l -5.226348,-9.05247 a 1.173462,1.173462 0 0 0 -1.044692,-0.58663 z m 17.459607,0 a 1.173462,1.173462 0 0 0 -0.987639,0.58663 l -5.226348,9.05206 a 1.1734755,1.1734755 0 0 0 1.016165,1.76031 h 10.45311 a 1.1734478,1.1734478 0 0 0 1.016163,-1.7599 l -5.226759,-9.05247 A 1.173462,1.173462 0 0 0 85.29154,108.7934 Z m -40.117448,12.6814 a 1.1734755,1.1734755 0 0 0 -1.016165,1.7603 l 5.226348,9.05247 a 1.173462,1.173462 0 0 0 2.03233,0 l 5.226762,-9.05247 a 1.1734478,1.1734478 0 0 0 -1.016166,-1.7603 z m 17.460019,0 a 1.1734755,1.1734755 0 0 0 -1.016578,1.7603 l 5.226347,9.05247 a 1.173462,1.173462 0 0 0 2.032745,0 l 5.226348,-9.05247 a 1.1734478,1.1734478 0 0 0 -1.016165,-1.7603 z m 17.459607,0 a 1.1734755,1.1734755 0 0 0 -1.016165,1.7603 l 5.226348,9.05247 a 1.173462,1.173462 0 0 0 2.032331,0 l 5.226759,-9.05247 a 1.1734478,1.1734478 0 0 0 -1.016163,-1.7603 z m -38.436517,1.17367 a 1.1734758,1.1734758 0 0 0 -1.002936,0.58663 l -5.226348,9.05247 a 1.1734616,1.1734616 0 0 0 1.016578,1.76031 h 10.452697 a 1.173448,1.173448 0 0 0 1.016165,-1.76031 l -5.226348,-9.05247 a 1.1734758,1.1734758 0 0 0 -1.029808,-0.58663 z m 17.459607,0 a 1.1734758,1.1734758 0 0 0 -1.002523,0.58663 l -5.226348,9.05247 a 1.1734616,1.1734616 0 0 0 1.016164,1.76031 h 10.452696 a 1.173448,1.173448 0 0 0 1.01658,-1.76031 l -5.226762,-9.05247 a 1.1734758,1.1734758 0 0 0 -1.029807,-0.58663 z m 17.460019,0 a 1.1734758,1.1734758 0 0 0 -1.002935,0.58663 l -5.226349,9.05247 a 1.1734616,1.1734616 0 0 0 1.016165,1.76031 h 10.45311 a 1.173448,1.173448 0 0 0 1.016165,-1.76031 l -5.226349,-9.05247 a 1.1734758,1.1734758 0 0 0 -1.029807,-0.58663 z m 17.459603,0 a 1.1734758,1.1734758 0 0 0 -1.002519,0.58663 l -5.226349,9.05247 a 1.1734616,1.1734616 0 0 0 1.016166,1.76031 h 10.452694 a 1.173448,1.173448 0 0 0 1.016578,-1.76031 l -5.226754,-9.05247 a 1.1734758,1.1734758 0 0 0 -1.029816,-0.58663 z"
       inkscape:connector-curvature="0" />
  </g>
</svg>
