<?xml version="1.0" encoding="UTF-8" standalone="no"?>
<svg
   xmlns:dc="http://purl.org/dc/elements/1.1/"
   xmlns:cc="http://creativecommons.org/ns#"
   xmlns:rdf="http://www.w3.org/1999/02/22-rdf-syntax-ns#"
   xmlns:svg="http://www.w3.org/2000/svg"
   xmlns="http://www.w3.org/2000/svg"
   xmlns:sodipodi="http://sodipodi.sourceforge.net/DTD/sodipodi-0.dtd"
   xmlns:inkscape="http://www.inkscape.org/namespaces/inkscape"
   width="45.593758mm"
   height="43.475277mm"
   viewBox="0 0 45.593758 43.475277"
   version="1.1"
   id="svg8"
   inkscape:version="1.0beta2 (2b71d25, 2019-12-03)"
   sodipodi:docname="shengshou-dayan-megaminx-icon.svg">
  <defs
     id="defs2">
    <inkscape:path-effect
       effect="fillet_chamfer"
       id="path-effect1026"
       is_visible="true"
       lpeversion="1"
       satellites_param="F,0,1,1,0,3.175,0,1 @ F,0,1,1,0,3.175,0,1 @ F,0,0,1,0,2.9104167,0,1 @ F,0,0,1,0,2.9104167,0,1 @ F,0,1,1,0,3.175,0,1 | F,0,1,1,0,3.175,0,1 @ F,0,1,1,0,3.175,0,1 @ F,0,0,1,0,2.9104167,0,1 @ F,0,0,1,0,2.9104167,0,1 @ F,0,0,1,0,2.9104167,0,1 @ F,0,0,1,0,2.9104167,0,1 | F,0,1,1,0,3.175,0,1 @ F,0,0,1,0,2.9104167,0,1 @ F,0,0,1,0,2.9104167,0,1 @ F,0,0,1,0,2.9104167,0,1 @ F,0,0,1,0,2.9104167,0,1 @ F,0,1,1,0,3.175,0,1 | F,0,1,1,0,3.175,0,1 @ F,0,1,1,0,3.175,0,1 @ F,0,1,1,0,3.175,0,1 @ F,0,0,1,0,2.9104167,0,1 @ F,0,0,1,0,2.9104167,0,1 | F,0,1,1,0,3.175,0,1 @ F,0,0,1,0,2.9104167,0,1 @ F,0,0,1,0,2.9104167,0,1 @ F,0,1,1,0,3.175,0,1 @ F,0,1,1,0,3.175,0,1 | F,0,0,1,0,2.9104167,0,1 @ F,0,0,1,0,2.9104167,0,1 @ F,0,0,1,0,2.9104167,0,1 @ F,0,0,1,0,2.9104167,0,1 @ F,0,0,1,0,2.9104167,0,1 @ F,0,0,1,0,2.9104167,0,1 @ F,0,0,1,0,2.9104167,0,1 @ F,0,0,1,0,2.9104167,0,1 @ F,0,0,1,0,2.9104167,0,1 @ F,0,0,1,0,2.9104167,0,1 | F,0,0,1,0,2.9104167,0,1 @ F,0,1,1,0,3.175,0,1 @ F,0,1,1,0,3.175,0,1 @ F,0,0,1,0,2.9104167,0,1 @ F,0,0,1,0,2.9104167,0,1 @ F,0,0,1,0,2.9104167,0,1 | F,0,0,1,0,2.9104167,0,1 @ F,0,0,1,0,2.9104167,0,1 @ F,0,0,1,0,2.9104167,0,1 @ F,0,1,1,0,3.175,0,1 @ F,0,1,1,0,3.175,0,1 @ F,0,0,1,0,2.9104167,0,1 | F,0,0,1,0,2.9104167,0,1 @ F,0,1,1,0,3.175,0,1 @ F,0,1,1,0,3.175,0,1 @ F,0,1,1,0,3.175,0,1 @ F,0,0,1,0,2.9104167,0,1 | F,0,0,1,0,2.9104167,0,1 @ F,0,1,1,0,3.175,0,1 @ F,0,1,1,0,3.175,0,1 @ F,0,1,1,0,3.175,0,1 @ F,0,0,1,0,2.9104167,0,1 | F,0,0,1,0,2.9104167,0,1 @ F,0,1,1,0,3.175,0,1 @ F,0,1,1,0,3.175,0,1 @ F,0,0,1,0,2.9104167,0,1 @ F,0,0,1,0,2.9104167,0,1 @ F,0,0,1,0,2.9104167,0,1"
       unit="px"
       method="auto"
       mode="F"
       radius="12"
       chamfer_steps="1"
       flexible="false"
       use_knot_distance="true"
       apply_no_radius="true"
       apply_with_radius="true"
       only_selected="true"
       hide_knots="false" />
    <inkscape:path-effect
       effect="fillet_chamfer"
       id="path-effect1024"
       is_visible="true"
       lpeversion="1"
       satellites_param="F,0,0,1,0,0,0,1 @ F,0,0,1,0,0,0,1 @ F,0,0,1,0,5.2916667,0,1 @ F,0,0,1,0,0,0,1 | F,0,0,1,0,0,0,1 @ F,0,0,1,0,0,0,1 @ F,0,0,1,0,5.2916667,0,1 @ F,0,0,1,0,5.2916667,0,1 | F,0,0,1,0,0,0,1 @ F,0,0,1,0,5.2916667,0,1 @ F,0,0,1,0,5.2916667,0,1 @ F,0,0,1,0,0,0,1 | F,0,0,1,0,0,0,1 @ F,0,0,1,0,0,0,1 @ F,0,0,1,0,0,0,1 @ F,0,0,1,0,5.2916667,0,1 | F,0,0,1,0,0,0,1 @ F,0,1,1,0,5.2916667,0,1 @ F,0,0,1,0,0,0,1 @ F,0,0,1,0,0,0,1 | F,0,0,1,0,5.2916667,0,1 @ F,0,0,1,0,5.2916667,0,1 @ F,0,0,1,0,5.2916667,0,1 @ F,0,0,1,0,5.2916667,0,1 @ F,0,0,1,0,5.2916667,0,1 | F,0,0,1,0,5.2916667,0,1 @ F,0,0,1,0,0,0,1 @ F,0,0,1,0,0,0,1 @ F,0,0,1,0,5.2916667,0,1 | F,0,0,1,0,5.2916667,0,1 @ F,0,0,1,0,5.2916667,0,1 @ F,0,0,1,0,0,0,1 @ F,0,0,1,0,0,0,1 | F,0,0,1,0,5.2916667,0,1 @ F,0,0,1,0,0,0,1 @ F,0,0,1,0,0,0,1 @ F,0,0,1,0,0,0,1 | F,0,0,1,0,5.2916667,0,1 @ F,0,0,1,0,0,0,1 @ F,0,0,1,0,0,0,1 @ F,0,0,1,0,0,0,1 | F,0,0,1,0,5.2916667,0,1 @ F,0,0,1,0,0,0,1 @ F,0,0,1,0,0,0,1 @ F,0,0,1,0,5.2916667,0,1"
       unit="px"
       method="auto"
       mode="F"
       radius="20"
       chamfer_steps="1"
       flexible="false"
       use_knot_distance="true"
       apply_no_radius="true"
       apply_with_radius="true"
       only_selected="true"
       hide_knots="false" />
    <inkscape:path-effect
       effect="fillet_chamfer"
       id="path-effect1022"
       is_visible="true"
       lpeversion="1"
       satellites_param="F,0,0,1,0,2.9104167,0,1 @ F,0,0,1,0,2.9104167,0,1 @ F,0,0,1,0,2.9104167,0,1 @ F,0,0,1,0,2.9104167,0,1 | F,0,0,1,0,2.9104167,0,1 @ F,0,0,1,0,2.9104167,0,1 @ F,0,0,1,0,2.9104167,0,1 @ F,0,0,1,0,2.9104167,0,1 | F,0,0,1,0,2.9104167,0,1 @ F,0,0,1,0,2.9104167,0,1 @ F,0,0,1,0,2.9104167,0,1 @ F,0,0,1,0,2.9104167,0,1 | F,0,0,1,0,2.9104167,0,1 @ F,0,0,1,0,2.9104167,0,1 @ F,0,0,1,0,2.9104167,0,1 @ F,0,0,1,0,2.9104167,0,1 | F,0,0,1,0,2.9104167,0,1 @ F,0,0,1,0,2.9104167,0,1 @ F,0,0,1,0,2.9104167,0,1 @ F,0,0,1,0,2.9104167,0,1 | F,0,0,1,0,2.9104167,0,1 @ F,0,0,1,0,2.9104167,0,1 @ F,0,0,1,0,2.9104167,0,1 @ F,0,0,1,0,2.9104167,0,1 @ F,0,0,1,0,2.9104167,0,1 | F,0,0,1,0,2.9104167,0,1 @ F,0,0,1,0,2.9104167,0,1 @ F,0,0,1,0,2.9104167,0,1 @ F,0,0,1,0,2.9104167,0,1 | F,0,0,1,0,2.9104167,0,1 @ F,0,0,1,0,2.9104167,0,1 @ F,0,0,1,0,2.9104167,0,1 @ F,0,0,1,0,2.9104167,0,1 | F,0,0,1,0,2.9104167,0,1 @ F,0,0,1,0,2.9104167,0,1 @ F,0,0,1,0,2.9104167,0,1 @ F,0,0,1,0,2.9104167,0,1 | F,0,0,1,0,2.9104167,0,1 @ F,0,0,1,0,2.9104167,0,1 @ F,0,0,1,0,2.9104167,0,1 @ F,0,0,1,0,2.9104167,0,1 | F,0,0,1,0,2.9104167,0,1 @ F,0,0,1,0,2.9104167,0,1 @ F,0,0,1,0,2.9104167,0,1 @ F,0,0,1,0,2.9104167,0,1"
       unit="px"
       method="auto"
       mode="F"
       radius="11"
       chamfer_steps="1"
       flexible="false"
       use_knot_distance="true"
       apply_no_radius="true"
       apply_with_radius="true"
       only_selected="false"
       hide_knots="false" />
  </defs>
  <sodipodi:namedview
     id="base"
     pagecolor="#ffffff"
     bordercolor="#666666"
     borderopacity="1.0"
     inkscape:pageopacity="0.0"
     inkscape:pageshadow="2"
     inkscape:zoom="2.203631"
     inkscape:cx="17.646277"
     inkscape:cy="112.54336"
     inkscape:document-units="mm"
     inkscape:current-layer="layer1"
     inkscape:document-rotation="0"
     showgrid="false"
     inkscape:snap-bbox="false"
     inkscape:object-paths="true"
     inkscape:snap-global="false"
     inkscape:window-width="1145"
     inkscape:window-height="773"
     inkscape:window-x="295"
     inkscape:window-y="23"
     inkscape:window-maximized="0"
     fit-margin-top="0"
     fit-margin-left="0"
     fit-margin-right="0"
     fit-margin-bottom="0" />
  <metadata
     id="metadata5">
    <rdf:RDF>
      <cc:Work
         rdf:about="">
        <dc:format>image/svg+xml</dc:format>
        <dc:type
           rdf:resource="http://purl.org/dc/dcmitype/StillImage" />
        <dc:title></dc:title>
      </cc:Work>
    </rdf:RDF>
  </metadata>
  <g
     inkscape:label="Layer 1"
     inkscape:groupmode="layer"
     id="layer1"
     transform="translate(-82.203172,-126.8988)">
    <path
       id="path980"
       style="fill:#00ff00;stroke-width:0.260488;stroke-dashoffset:43.2;paint-order:stroke fill markers;fill-opacity:1"
       d="m 104.45615,131.4232 -5.499497,3.99561 c -0.300274,0.21817 -0.303164,0.57579 -0.0065,0.79877 1.814317,1.36353 3.520077,2.64536 4.654867,3.49476 0.27237,0.20388 0.72332,0.54448 1.05397,0.61223 0.22267,0.0456 0.45901,0.0456 0.68167,1e-5 0.33066,-0.0678 0.78162,-0.40833 1.054,-0.6122 1.13488,-0.8494 2.84079,-2.13125 4.65521,-3.4948 0.29671,-0.22299 0.29381,-0.5806 -0.006,-0.79875 l -5.49989,-3.99565 a 0.92501533,0.92501533 0 0 0 -1.0874,2e-5 z m -7.93622,5.7659 -1.497752,1.0884 c -0.300253,0.21819 -0.446214,0.67974 -0.325964,1.03088 0.647423,1.89051 1.326479,3.87012 1.873474,5.46865 0.110152,0.3219 0.27812,0.89034 0.561563,1.06618 0.100694,0.0625 0.213258,0.0981 0.331535,0.10505 0.332971,0.0195 0.797467,-0.34885 1.072714,-0.54883 l 3.67241,-2.66822 c 0.27524,-0.19999 0.76906,-0.52794 0.85344,-0.85064 0.03,-0.11463 0.0308,-0.23272 0.002,-0.34779 -0.0796,-0.32391 -0.56836,-0.65931 -0.84048,-0.86353 -1.35134,-1.01421 -3.024422,-2.27174 -4.622408,-3.47171 -0.296794,-0.22287 -0.780819,-0.22663 -1.081072,-0.008 z m 15.87916,0.008 c -1.59808,1.19999 -3.27132,2.45755 -4.62278,3.47177 -0.27212,0.20421 -0.76086,0.5396 -0.8405,0.8635 -0.0283,0.11506 -0.0274,0.23314 0.003,0.34776 0.0844,0.32269 0.57821,0.65063 0.85347,0.85061 l 3.67275,2.6683 c 0.27526,0.19998 0.73977,0.56828 1.07274,0.5488 0.11828,-0.007 0.23085,-0.0426 0.33155,-0.10506 0.28344,-0.17584 0.45141,-0.74428 0.56156,-1.06618 0.547,-1.59853 1.22605,-3.57814 1.87347,-5.46865 0.12025,-0.35114 -0.0257,-0.81269 -0.32596,-1.03088 l -1.49776,-1.0884 c -0.30025,-0.21819 -0.78428,-0.21443 -1.08108,0.008 z m -19.732618,2.79154 -5.522626,4.01218 a 0.92494694,0.92494694 0 0 0 -0.336023,1.03415 l 2.100658,6.4649 c 0.1147,0.35299 0.453926,0.46625 0.757684,0.25297 1.866352,-1.31046 3.621951,-2.54328 4.785051,-3.36334 0.278064,-0.19605 0.741337,-0.51968 0.90794,-0.81322 0.112194,-0.19767 0.185227,-0.42245 0.210642,-0.64831 0.03774,-0.33541 -0.146816,-0.86954 -0.256533,-1.19159 -0.457107,-1.34176 -1.149012,-3.36018 -1.885116,-5.50703 -0.120382,-0.3511 -0.461398,-0.45887 -0.761677,-0.24071 z m 23.905488,0.24071 c -0.73611,2.14687 -1.42803,4.16529 -1.88514,5.50705 -0.10972,0.32205 -0.29428,0.85619 -0.25651,1.19159 0.0254,0.22585 0.0985,0.45062 0.21067,0.64827 0.16663,0.29353 0.6299,0.61716 0.90797,0.81321 1.16308,0.82007 2.91864,2.0529 4.78499,3.36337 0.30376,0.21328 0.64298,0.10002 0.75768,-0.25297 l 2.10066,-6.4649 a 0.92494653,0.92494653 0 0 0 -0.33602,-1.03415 l -5.52263,-4.01218 c -0.30028,-0.21816 -0.64129,-0.11039 -0.76167,0.24071 z m -12.97665,3.8293 -4.168075,3.02832 c -0.275249,0.19998 -0.737756,0.52341 -0.912273,0.81283 -0.121859,0.20209 -0.195861,0.42983 -0.216069,0.66495 -0.02894,0.33673 0.155113,0.87026 0.260238,1.19384 l 1.591989,4.90018 c 0.10512,0.32358 0.26978,0.86341 0.49111,1.11882 0.15453,0.17834 0.34825,0.31909 0.5656,0.41096 0.31131,0.13157 0.8756,0.12138 1.21583,0.12138 h 5.15238 c 0.34022,0 0.90451,0.0102 1.21581,-0.12137 0.21737,-0.0919 0.4111,-0.23262 0.56564,-0.41096 0.22133,-0.25541 0.38602,-0.79522 0.49116,-1.1188 l 1.59225,-4.90024 c 0.10514,-0.32357 0.28921,-0.85709 0.26028,-1.19381 -0.0202,-0.23511 -0.0942,-0.46284 -0.21605,-0.66492 -0.17451,-0.28943 -0.63703,-0.61285 -0.91229,-0.81282 l -4.16843,-3.0284 c -0.27525,-0.19998 -0.72579,-0.53989 -1.05497,-0.61643 -0.22985,-0.0534 -0.46931,-0.0534 -0.69917,1e-5 -0.32919,0.0765 -0.77971,0.41647 -1.05496,0.61646 z m -8.683613,5.95832 c -1.375372,0.96699 -3.089736,2.17043 -4.73017,3.32314 -0.303682,0.21339 -0.456851,0.67256 -0.34214,1.02555 l 0.58547,1.80164 c 0.11471,0.35298 0.508546,0.63442 0.879659,0.62856 2.004553,-0.0317 4.098737,-0.0658 5.779745,-0.0919 0.340186,-0.005 0.932709,0.0106 1.187532,-0.20459 0.09053,-0.0765 0.159237,-0.17249 0.202368,-0.28284 0.121425,-0.31065 -0.08531,-0.86623 -0.190443,-1.18981 l -1.415834,-4.35781 c -0.10513,-0.32358 -0.264418,-0.89458 -0.54524,-1.07454 -0.09975,-0.0639 -0.211779,-0.10123 -0.329957,-0.10988 -0.33266,-0.0243 -0.802667,0.3368 -1.08099,0.53248 z m 18.220443,0.65192 -1.41609,4.35785 c -0.10514,0.32358 -0.31191,0.87916 -0.19049,1.18981 0.0431,0.11034 0.11182,0.20636 0.20234,0.28282 0.25482,0.21523 0.84734,0.19931 1.18753,0.20459 1.68108,0.0261 3.77545,0.0602 5.78016,0.0919 0.37111,0.006 0.76495,-0.27558 0.87966,-0.62856 l 0.58547,-1.80164 c 0.11471,-0.35299 -0.0385,-0.81216 -0.34214,-1.02555 -1.64044,-1.15271 -3.3548,-2.35615 -4.73017,-3.32314 -0.27833,-0.19568 -0.74833,-0.55683 -1.08099,-0.53249 -0.11819,0.009 -0.23023,0.046 -0.32999,0.10989 -0.28083,0.17995 -0.44014,0.75094 -0.54529,1.07452 z m -15.513745,7.46838 c -1.423043,0.0202 -3.568097,0.0547 -5.848384,0.0916 -0.371109,0.006 -0.578972,0.29702 -0.464276,0.65001 l 2.114724,6.50831 a 0.9249923,0.9249923 0 0 0 0.879718,0.63915 h 6.825343 c 0.37115,0 0.5837,-0.28763 0.47473,-0.64243 -0.67152,-2.18646 -1.30352,-4.24394 -1.725018,-5.60688 -0.100521,-0.32504 -0.26514,-0.86565 -0.492816,-1.11482 -0.153318,-0.16779 -0.344525,-0.30672 -0.551482,-0.40069 -0.307321,-0.13955 -0.872346,-0.12908 -1.212539,-0.12425 z m 12.506355,1.63975 c -0.42159,1.36294 -1.0537,3.42042 -1.72529,5.6069 -0.10898,0.3548 0.10356,0.64242 0.47472,0.64242 h 6.82575 a 0.92499253,0.92499253 0 0 0 0.87972,-0.63915 l 2.11472,-6.50831 c 0.1147,-0.35299 -0.0932,-0.64401 -0.46428,-0.65001 -2.2803,-0.0369 -4.42536,-0.0714 -5.84841,-0.0916 -0.34019,-0.005 -0.90521,-0.0153 -1.21254,0.12425 -0.20696,0.094 -0.39818,0.2329 -0.55151,0.40069 -0.22769,0.24916 -0.39234,0.78976 -0.49288,1.1148 z m -8.65349,0.0816 c 0.49321,1.60193 1.10836,3.60529 1.69885,5.52538 0.10911,0.35476 0.49847,0.64234 0.86963,0.64234 h 1.92021 c 0.37116,0 0.76053,-0.28758 0.86964,-0.64234 0.59052,-1.92008 1.20561,-3.92345 1.69882,-5.52539 0.10011,-0.32516 0.29839,-0.88376 0.17245,-1.19262 -0.0447,-0.10971 -0.11482,-0.20471 -0.20642,-0.27982 -0.25792,-0.21149 -0.8502,-0.18654 -1.19043,-0.18654 h -4.60833 c -0.34023,0 -0.93251,-0.0249 -1.19043,0.18653 -0.0916,0.0751 -0.1617,0.17013 -0.20643,0.27984 -0.12595,0.30886 0.0723,0.86746 0.17244,1.19262 z"
       inkscape:connector-curvature="0" />
  </g>
</svg>
