<?xml version="1.0" encoding="UTF-8" standalone="no"?>
<svg
   xmlns:dc="http://purl.org/dc/elements/1.1/"
   xmlns:cc="http://creativecommons.org/ns#"
   xmlns:rdf="http://www.w3.org/1999/02/22-rdf-syntax-ns#"
   xmlns:svg="http://www.w3.org/2000/svg"
   xmlns="http://www.w3.org/2000/svg"
   xmlns:sodipodi="http://sodipodi.sourceforge.net/DTD/sodipodi-0.dtd"
   xmlns:inkscape="http://www.inkscape.org/namespaces/inkscape"
   width="56.96666mm"
   height="56.96666mm"
   viewBox="0 0 56.96666 56.96666"
   version="1.1"
   id="svg8"
   inkscape:version="1.0beta2 (2b71d25, 2019-12-03)"
   sodipodi:docname="shengshou-5x5-icon.svg">
  <defs
     id="defs2" />
  <sodipodi:namedview
     id="base"
     pagecolor="#ffffff"
     bordercolor="#666666"
     borderopacity="1.0"
     inkscape:pageopacity="0.0"
     inkscape:pageshadow="2"
     inkscape:zoom="1.1275568"
     inkscape:cx="57.912139"
     inkscape:cy="150.97649"
     inkscape:document-units="mm"
     inkscape:current-layer="layer1"
     inkscape:document-rotation="0"
     showgrid="false"
     inkscape:snap-bbox="true"
     fit-margin-top="0"
     fit-margin-left="0"
     fit-margin-right="0"
     fit-margin-bottom="0"
     inkscape:window-width="1440"
     inkscape:window-height="775"
     inkscape:window-x="0"
     inkscape:window-y="23"
     inkscape:window-maximized="0" />
  <metadata
     id="metadata5">
    <rdf:RDF>
      <cc:Work
         rdf:about="">
        <dc:format>image/svg+xml</dc:format>
        <dc:type
           rdf:resource="http://purl.org/dc/dcmitype/StillImage" />
        <dc:title></dc:title>
      </cc:Work>
    </rdf:RDF>
  </metadata>
  <g
     inkscape:label="Layer 1"
     inkscape:groupmode="layer"
     id="layer1"
     transform="translate(-23.111965,-23.046639)">
    <path
       inkscape:connector-curvature="0"
       id="rect931"
       style="opacity:0.98;fill:#00ff00;fill-opacity:1;stroke:none;stroke-width:1.1225;stroke-dashoffset:43.2;paint-order:stroke fill markers"
       d="m 30.01377,28.74335 c -0.667605,0 -1.205094,0.53749 -1.205094,1.205094 v 5.589737 c 0,0.667604 0.537489,1.205094 1.205094,1.205094 h 5.589737 c 0.667605,0 1.205094,-0.53749 1.205094,-1.205094 v -5.589737 c 0,-0.667604 -0.537489,-1.205094 -1.205094,-1.205094 z m 9.393122,0 c -0.667605,0 -1.204681,0.53749 -1.204681,1.205094 v 5.589737 c 0,0.667604 0.537076,1.205094 1.204681,1.205094 h 5.59015 c 0.667604,0 1.205094,-0.53749 1.205094,-1.205094 v -5.589737 c 0,-0.667604 -0.53749,-1.205094 -1.205094,-1.205094 z m 9.393535,0 c -0.667605,0 -1.205094,0.53749 -1.205094,1.205094 v 5.589737 c 0,0.667604 0.537489,1.205094 1.205094,1.205094 h 5.589736 c 0.667605,0 1.205094,-0.53749 1.205094,-1.205094 v -5.589737 c 0,-0.667604 -0.537489,-1.205094 -1.205094,-1.205094 z m 9.393121,0 c -0.667605,0 -1.204679,0.53749 -1.204679,1.205094 v 5.589737 c 0,0.667604 0.537074,1.205094 1.204679,1.205094 h 5.590151 c 0.667605,0 1.205094,-0.53749 1.205094,-1.205094 v -5.589737 c 0,-0.667604 -0.537489,-1.205094 -1.205094,-1.205094 z m 9.393536,0 c -0.667605,0 -1.205094,0.53749 -1.205094,1.205094 v 5.589737 c 0,0.667604 0.537489,1.205094 1.205094,1.205094 h 5.589736 c 0.667605,0 1.205094,-0.53749 1.205094,-1.205094 v -5.589737 c 0,-0.667604 -0.537489,-1.205094 -1.205094,-1.205094 z M 30.01377,38.136885 c -0.667605,0 -1.205094,0.537076 -1.205094,1.204681 v 5.59015 c 0,0.667604 0.537489,1.205094 1.205094,1.205094 h 5.589737 c 0.667605,0 1.205094,-0.53749 1.205094,-1.205094 v -5.59015 c 0,-0.667605 -0.537489,-1.204681 -1.205094,-1.204681 z m 9.393122,0 c -0.667605,0 -1.204681,0.537076 -1.204681,1.204681 v 5.59015 c 0,0.667604 0.537076,1.205094 1.204681,1.205094 h 5.59015 c 0.667604,0 1.205094,-0.53749 1.205094,-1.205094 v -5.59015 c 0,-0.667605 -0.53749,-1.204681 -1.205094,-1.204681 z m 9.393535,0 c -0.667605,0 -1.205094,0.537076 -1.205094,1.204681 v 5.59015 c 0,0.667604 0.537489,1.205094 1.205094,1.205094 h 5.589736 c 0.667605,0 1.205094,-0.53749 1.205094,-1.205094 v -5.59015 c 0,-0.667605 -0.537489,-1.204681 -1.205094,-1.204681 z m 9.393121,0 c -0.667605,0 -1.204679,0.537076 -1.204679,1.204681 v 5.59015 c 0,0.667604 0.537074,1.205094 1.204679,1.205094 h 5.590151 c 0.667605,0 1.205094,-0.53749 1.205094,-1.205094 v -5.59015 c 0,-0.667605 -0.537489,-1.204681 -1.205094,-1.204681 z m 9.393536,0 c -0.667605,0 -1.205094,0.537076 -1.205094,1.204681 v 5.59015 c 0,0.667604 0.537489,1.205094 1.205094,1.205094 h 5.589736 c 0.667605,0 1.205094,-0.53749 1.205094,-1.205094 v -5.59015 c 0,-0.667605 -0.537489,-1.204681 -1.205094,-1.204681 z M 30.01377,47.530007 c -0.667605,0 -1.205094,0.537489 -1.205094,1.205094 v 5.589736 c 0,0.667605 0.537489,1.205094 1.205094,1.205094 h 5.589737 c 0.667605,0 1.205094,-0.537489 1.205094,-1.205094 v -5.589736 c 0,-0.667605 -0.537489,-1.205094 -1.205094,-1.205094 z m 9.393122,0 c -0.667605,0 -1.204681,0.537489 -1.204681,1.205094 v 5.589736 c 0,0.667605 0.537076,1.205094 1.204681,1.205094 h 5.59015 c 0.667604,0 1.205094,-0.537489 1.205094,-1.205094 v -5.589736 c 0,-0.667605 -0.53749,-1.205094 -1.205094,-1.205094 z m 9.393535,0 c -0.667605,0 -1.205094,0.537489 -1.205094,1.205094 v 5.589736 c 0,0.667605 0.537489,1.205094 1.205094,1.205094 h 5.589736 c 0.667605,0 1.205094,-0.537489 1.205094,-1.205094 v -5.589736 c 0,-0.667605 -0.537489,-1.205094 -1.205094,-1.205094 z m 9.393121,0 c -0.667605,0 -1.204679,0.537489 -1.204679,1.205094 v 5.589736 c 0,0.667605 0.537074,1.205094 1.204679,1.205094 h 5.590151 c 0.667605,0 1.205094,-0.537489 1.205094,-1.205094 v -5.589736 c 0,-0.667605 -0.537489,-1.205094 -1.205094,-1.205094 z m 9.393536,0 c -0.667605,0 -1.205094,0.537489 -1.205094,1.205094 v 5.589736 c 0,0.667605 0.537489,1.205094 1.205094,1.205094 h 5.589736 c 0.667605,0 1.205094,-0.537489 1.205094,-1.205094 v -5.589736 c 0,-0.667605 -0.537489,-1.205094 -1.205094,-1.205094 z M 30.01377,56.923543 c -0.667605,0 -1.205094,0.537074 -1.205094,1.204679 v 5.590151 c 0,0.667605 0.537489,1.205094 1.205094,1.205094 h 5.589737 c 0.667605,0 1.205094,-0.537489 1.205094,-1.205094 v -5.590151 c 0,-0.667605 -0.537489,-1.204679 -1.205094,-1.204679 z m 9.393122,0 c -0.667605,0 -1.204681,0.537074 -1.204681,1.204679 v 5.590151 c 0,0.667605 0.537076,1.205094 1.204681,1.205094 h 5.59015 c 0.667604,0 1.205094,-0.537489 1.205094,-1.205094 v -5.590151 c 0,-0.667605 -0.53749,-1.204679 -1.205094,-1.204679 z m 9.393535,0 c -0.667605,0 -1.205094,0.537074 -1.205094,1.204679 v 5.590151 c 0,0.667605 0.537489,1.205094 1.205094,1.205094 h 5.589736 c 0.667605,0 1.205094,-0.537489 1.205094,-1.205094 v -5.590151 c 0,-0.667605 -0.537489,-1.204679 -1.205094,-1.204679 z m 9.393121,0 c -0.667605,0 -1.204679,0.537074 -1.204679,1.204679 v 5.590151 c 0,0.667605 0.537074,1.205094 1.204679,1.205094 h 5.590151 c 0.667605,0 1.205094,-0.537489 1.205094,-1.205094 v -5.590151 c 0,-0.667605 -0.537489,-1.204679 -1.205094,-1.204679 z m 9.393536,0 c -0.667605,0 -1.205094,0.537074 -1.205094,1.204679 v 5.590151 c 0,0.667605 0.537489,1.205094 1.205094,1.205094 h 5.589736 c 0.667605,0 1.205094,-0.537489 1.205094,-1.205094 v -5.590151 c 0,-0.667605 -0.537489,-1.204679 -1.205094,-1.204679 z M 30.01377,66.316664 c -0.667605,0 -1.205094,0.537489 -1.205094,1.205094 v 5.589736 c 0,0.667605 0.537489,1.205094 1.205094,1.205094 h 5.589737 c 0.667605,0 1.205094,-0.537489 1.205094,-1.205094 v -5.589736 c 0,-0.667605 -0.537489,-1.205094 -1.205094,-1.205094 z m 9.393122,0 c -0.667605,0 -1.204681,0.537489 -1.204681,1.205094 v 5.589736 c 0,0.667605 0.537076,1.205094 1.204681,1.205094 h 5.59015 c 0.667604,0 1.205094,-0.537489 1.205094,-1.205094 v -5.589736 c 0,-0.667605 -0.53749,-1.205094 -1.205094,-1.205094 z m 9.393535,0 c -0.667605,0 -1.205094,0.537489 -1.205094,1.205094 v 5.589736 c 0,0.667605 0.537489,1.205094 1.205094,1.205094 h 5.589736 c 0.667605,0 1.205094,-0.537489 1.205094,-1.205094 v -5.589736 c 0,-0.667605 -0.537489,-1.205094 -1.205094,-1.205094 z m 9.393121,0 c -0.667605,0 -1.204679,0.537489 -1.204679,1.205094 v 5.589736 c 0,0.667605 0.537074,1.205094 1.204679,1.205094 h 5.590151 c 0.667605,0 1.205094,-0.537489 1.205094,-1.205094 v -5.589736 c 0,-0.667605 -0.537489,-1.205094 -1.205094,-1.205094 z m 9.393536,0 c -0.667605,0 -1.205094,0.537489 -1.205094,1.205094 v 5.589736 c 0,0.667605 0.537489,1.205094 1.205094,1.205094 h 5.589736 c 0.667605,0 1.205094,-0.537489 1.205094,-1.205094 v -5.589736 c 0,-0.667605 -0.537489,-1.205094 -1.205094,-1.205094 z" />
  </g>
</svg>
