<?xml version="1.0" encoding="UTF-8" standalone="no"?>
<svg
   xmlns:dc="http://purl.org/dc/elements/1.1/"
   xmlns:cc="http://creativecommons.org/ns#"
   xmlns:rdf="http://www.w3.org/1999/02/22-rdf-syntax-ns#"
   xmlns:svg="http://www.w3.org/2000/svg"
   xmlns="http://www.w3.org/2000/svg"
   xmlns:sodipodi="http://sodipodi.sourceforge.net/DTD/sodipodi-0.dtd"
   xmlns:inkscape="http://www.inkscape.org/namespaces/inkscape"
   sodipodi:docname="witeden-3x3x9-icon.svg"
   inkscape:version="1.0beta2 (2b71d25, 2019-12-03)"
   id="svg2192"
   version="1.1"
   viewBox="0 0 51.175003 48.700012"
   height="48.700012mm"
   width="51.175003mm">
  <defs
     id="defs2186" />
  <sodipodi:namedview
     inkscape:window-maximized="0"
     inkscape:window-y="23"
     inkscape:window-x="0"
     inkscape:window-height="778"
     inkscape:window-width="1440"
     fit-margin-bottom="0"
     fit-margin-right="0"
     fit-margin-left="0"
     fit-margin-top="0"
     showgrid="false"
     inkscape:document-rotation="0"
     inkscape:current-layer="layer1"
     inkscape:document-units="mm"
     inkscape:cy="113.57474"
     inkscape:cx="-8.0862013"
     inkscape:zoom="1.8312012"
     inkscape:pageshadow="2"
     inkscape:pageopacity="0.0"
     borderopacity="1.0"
     bordercolor="#666666"
     pagecolor="#ffffff"
     id="base" />
  <metadata
     id="metadata2189">
    <rdf:RDF>
      <cc:Work
         rdf:about="">
        <dc:format>image/svg+xml</dc:format>
        <dc:type
           rdf:resource="http://purl.org/dc/dcmitype/StillImage" />
        <dc:title />
      </cc:Work>
    </rdf:RDF>
  </metadata>
  <g
     transform="translate(-16.359369,-16.359369)"
     id="layer1"
     inkscape:groupmode="layer"
     inkscape:label="Layer 1">
    <path
       inkscape:connector-curvature="0"
       id="rect2755"
       style="fill:#00ff00;fill-opacity:1;stroke:none;stroke-width:0.301018;stroke-dashoffset:43.2;stroke-opacity:0.37247;paint-order:stroke fill markers"
       d="m 22.399951,21.229428 c -0.511439,0 -0.923148,0.411709 -0.923148,0.923148 v 1.353509 c 0,0.511439 0.411709,0.923148 0.923148,0.923148 h 10.95375 c 0.511439,0 0.923147,-0.411709 0.923147,-0.923148 v -1.353509 c 0,-0.511439 -0.411708,-0.923148 -0.923147,-0.923148 z m 14.070045,0 c -0.51144,0 -0.923148,0.411709 -0.923148,0.923148 v 1.353509 c 0,0.511439 0.411708,0.923148 0.923148,0.923148 h 10.953749 c 0.51144,0 0.923148,-0.411709 0.923148,-0.923148 v -1.353509 c 0,-0.511439 -0.411708,-0.923148 -0.923148,-0.923148 z m 14.070045,0 c -0.511439,0 -0.923148,0.411709 -0.923148,0.923148 v 1.353509 c 0,0.511439 0.411709,0.923148 0.923148,0.923148 h 10.95375 c 0.51144,0 0.923148,-0.411709 0.923148,-0.923148 v -1.353509 c 0,-0.511439 -0.411708,-0.923148 -0.923148,-0.923148 z m -28.14009,4.469805 c -0.511439,0 -0.923148,0.412121 -0.923148,0.923561 v 1.353509 c 0,0.511439 0.411709,0.923148 0.923148,0.923148 h 10.95375 c 0.511439,0 0.923147,-0.411709 0.923147,-0.923148 v -1.353509 c 0,-0.51144 -0.411708,-0.923561 -0.923147,-0.923561 z m 14.070045,0 c -0.51144,0 -0.923148,0.412121 -0.923148,0.923561 v 1.353509 c 0,0.511439 0.411708,0.923148 0.923148,0.923148 h 10.953749 c 0.51144,0 0.923148,-0.411709 0.923148,-0.923148 v -1.353509 c 0,-0.51144 -0.411708,-0.923561 -0.923148,-0.923561 z m 14.070045,0 c -0.511439,0 -0.923148,0.412121 -0.923148,0.923561 v 1.353509 c 0,0.511439 0.411709,0.923148 0.923148,0.923148 h 10.95375 c 0.51144,0 0.923148,-0.411709 0.923148,-0.923148 v -1.353509 c 0,-0.51144 -0.411708,-0.923561 -0.923148,-0.923561 z m -28.14009,4.470218 c -0.511439,0 -0.923148,0.411708 -0.923148,0.923147 v 1.35351 c 0,0.511439 0.411709,0.923147 0.923148,0.923147 h 10.95375 c 0.511439,0 0.923147,-0.411708 0.923147,-0.923147 v -1.35351 c 0,-0.511439 -0.411708,-0.923147 -0.923147,-0.923147 z m 14.070045,0 c -0.51144,0 -0.923148,0.411708 -0.923148,0.923147 v 1.35351 c 0,0.511439 0.411708,0.923147 0.923148,0.923147 h 10.953749 c 0.51144,0 0.923148,-0.411708 0.923148,-0.923147 v -1.35351 c 0,-0.511439 -0.411708,-0.923147 -0.923148,-0.923147 z m 14.070045,0 c -0.511439,0 -0.923148,0.411708 -0.923148,0.923147 v 1.35351 c 0,0.511439 0.411709,0.923147 0.923148,0.923147 h 10.95375 c 0.51144,0 0.923148,-0.411708 0.923148,-0.923147 v -1.35351 c 0,-0.511439 -0.411708,-0.923147 -0.923148,-0.923147 z m -28.14009,4.469804 c -0.511439,0 -0.923148,0.411708 -0.923148,0.923148 v 1.353923 c 0,0.511439 0.411709,0.923147 0.923148,0.923147 h 10.95375 c 0.511439,0 0.923147,-0.411708 0.923147,-0.923147 v -1.353923 c 0,-0.51144 -0.411708,-0.923148 -0.923147,-0.923148 z m 14.070045,0 c -0.51144,0 -0.923148,0.411708 -0.923148,0.923148 v 1.353923 c 0,0.511439 0.411708,0.923147 0.923148,0.923147 h 10.953749 c 0.51144,0 0.923148,-0.411708 0.923148,-0.923147 v -1.353923 c 0,-0.51144 -0.411708,-0.923148 -0.923148,-0.923148 z m 14.070045,0 c -0.511439,0 -0.923148,0.411708 -0.923148,0.923148 v 1.353923 c 0,0.511439 0.411709,0.923147 0.923148,0.923147 h 10.95375 c 0.51144,0 0.923148,-0.411708 0.923148,-0.923147 v -1.353923 c 0,-0.51144 -0.411708,-0.923148 -0.923148,-0.923148 z m -28.14009,4.470218 c -0.511439,0 -0.923148,0.411709 -0.923148,0.923148 v 1.353509 c 0,0.511439 0.411709,0.923148 0.923148,0.923148 h 10.95375 c 0.511439,0 0.923147,-0.411709 0.923147,-0.923148 v -1.353509 c 0,-0.511439 -0.411708,-0.923148 -0.923147,-0.923148 z m 14.070045,0 c -0.51144,0 -0.923148,0.411709 -0.923148,0.923148 v 1.353509 c 0,0.511439 0.411708,0.923148 0.923148,0.923148 h 10.953749 c 0.51144,0 0.923148,-0.411709 0.923148,-0.923148 v -1.353509 c 0,-0.511439 -0.411708,-0.923148 -0.923148,-0.923148 z m 14.070045,0 c -0.511439,0 -0.923148,0.411709 -0.923148,0.923148 v 1.353509 c 0,0.511439 0.411709,0.923148 0.923148,0.923148 h 10.95375 c 0.51144,0 0.923148,-0.411709 0.923148,-0.923148 v -1.353509 c 0,-0.511439 -0.411708,-0.923148 -0.923148,-0.923148 z m -28.14009,4.469804 c -0.511439,0 -0.923148,0.411709 -0.923148,0.923148 v 1.353924 c 0,0.511438 0.411709,0.923146 0.923148,0.923146 h 10.95375 c 0.511439,0 0.923147,-0.411708 0.923147,-0.923146 v -1.353924 c 0,-0.511439 -0.411708,-0.923148 -0.923147,-0.923148 z m 14.070045,0 c -0.51144,0 -0.923148,0.411709 -0.923148,0.923148 v 1.353924 c 0,0.511438 0.411708,0.923146 0.923148,0.923146 h 10.953749 c 0.51144,0 0.923148,-0.411708 0.923148,-0.923146 v -1.353924 c 0,-0.511439 -0.411708,-0.923148 -0.923148,-0.923148 z m 14.070045,0 c -0.511439,0 -0.923148,0.411709 -0.923148,0.923148 v 1.353924 c 0,0.511438 0.411709,0.923146 0.923148,0.923146 h 10.95375 c 0.51144,0 0.923148,-0.411708 0.923148,-0.923146 v -1.353924 c 0,-0.511439 -0.411708,-0.923148 -0.923148,-0.923148 z m -28.14009,4.470218 c -0.511439,0 -0.923148,0.411709 -0.923148,0.923148 v 1.353509 c 0,0.51144 0.411709,0.923148 0.923148,0.923148 h 10.95375 c 0.511439,0 0.923147,-0.411708 0.923147,-0.923148 v -1.353509 c 0,-0.511439 -0.411708,-0.923148 -0.923147,-0.923148 z m 14.070045,0 c -0.51144,0 -0.923148,0.411709 -0.923148,0.923148 v 1.353509 c 0,0.51144 0.411708,0.923148 0.923148,0.923148 h 10.953749 c 0.51144,0 0.923148,-0.411708 0.923148,-0.923148 v -1.353509 c 0,-0.511439 -0.411708,-0.923148 -0.923148,-0.923148 z m 14.070045,0 c -0.511439,0 -0.923148,0.411709 -0.923148,0.923148 v 1.353509 c 0,0.51144 0.411709,0.923148 0.923148,0.923148 h 10.95375 c 0.51144,0 0.923148,-0.411708 0.923148,-0.923148 v -1.353509 c 0,-0.511439 -0.411708,-0.923148 -0.923148,-0.923148 z M 22.399951,52.5193 c -0.511439,0 -0.923148,0.411709 -0.923148,0.923148 v 1.353922 c 0,0.511442 0.411709,0.923148 0.923148,0.923148 h 10.95375 c 0.511439,0 0.923147,-0.411706 0.923147,-0.923148 v -1.353922 c 0,-0.511439 -0.411708,-0.923148 -0.923147,-0.923148 z m 14.070045,0 c -0.51144,0 -0.923148,0.411709 -0.923148,0.923148 v 1.353922 c 0,0.511442 0.411708,0.923148 0.923148,0.923148 h 10.953749 c 0.51144,0 0.923148,-0.411706 0.923148,-0.923148 v -1.353922 c 0,-0.511439 -0.411708,-0.923148 -0.923148,-0.923148 z m 14.070045,0 c -0.511439,0 -0.923148,0.411709 -0.923148,0.923148 v 1.353922 c 0,0.511442 0.411709,0.923148 0.923148,0.923148 h 10.95375 c 0.51144,0 0.923148,-0.411706 0.923148,-0.923148 v -1.353922 c 0,-0.511439 -0.411708,-0.923148 -0.923148,-0.923148 z m -28.14009,4.470218 c -0.511439,0 -0.923148,0.411709 -0.923148,0.923148 v 1.353509 c 0,0.51144 0.411709,0.923148 0.923148,0.923148 h 10.95375 c 0.511439,0 0.923147,-0.411708 0.923147,-0.923148 v -1.353509 c 0,-0.511439 -0.411708,-0.923148 -0.923147,-0.923148 z m 14.070045,0 c -0.51144,0 -0.923148,0.411709 -0.923148,0.923148 v 1.353509 c 0,0.51144 0.411708,0.923148 0.923148,0.923148 h 10.953749 c 0.51144,0 0.923148,-0.411708 0.923148,-0.923148 v -1.353509 c 0,-0.511439 -0.411708,-0.923148 -0.923148,-0.923148 z m 14.070045,0 c -0.511439,0 -0.923148,0.411709 -0.923148,0.923148 v 1.353509 c 0,0.51144 0.411709,0.923148 0.923148,0.923148 h 10.95375 c 0.51144,0 0.923148,-0.411708 0.923148,-0.923148 v -1.353509 c 0,-0.511439 -0.411708,-0.923148 -0.923148,-0.923148 z" />
  </g>
</svg>
